<?xml version="1.0" encoding="utf-8"?>
<!-- Generator: Adobe Illustrator 16.0.0, SVG Export Plug-In . SVG Version: 6.00 Build 0)  -->
<!DOCTYPE svg PUBLIC "-//W3C//DTD SVG 1.1//EN" "http://www.w3.org/Graphics/SVG/1.1/DTD/svg11.dtd">
<svg version="1.1" id="레이어_1" xmlns="http://www.w3.org/2000/svg" xmlns:xlink="http://www.w3.org/1999/xlink" x="0px"
	 y="0px" width="416.286px" height="195.099px" viewBox="-69.056 -71.491 416.286 195.099"
	 enable-background="new -69.056 -71.491 416.286 195.099" xml:space="preserve">
<g>
	<path fill-rule="evenodd" clip-rule="evenodd" fill="#FFFFFF" d="M8.967,21.088c-20.559,0-40.943,0-61.546,0
		c0.871-4.923,1.72-9.725,2.574-14.551c27.314,0,54.537,0,81.873,0c-2.021,11.372-4.029,22.672-6.052,34.051
		c-20.458,0-40.843,0-61.402,0c-0.381,2.111-0.751,4.161-1.151,6.38c21.257,0,42.352,0,63.536,0
		c-0.904,5.054-1.78,9.952-2.663,14.892c-28.004,0-55.947,0-83.97,0c2.061-11.6,4.11-23.138,6.175-34.764c0.562,0,1.035,0,1.507,0
		c19.556,0,39.113-0.01,58.669,0.025c1.088,0.002,1.547-0.234,1.651-1.384C8.303,24.234,8.67,22.752,8.967,21.088z"/>
	<path fill-rule="evenodd" clip-rule="evenodd" fill="#FFFFFF" d="M152.083,4.639c-9.896,0-19.638,0-29.493,0
		c0.772-4.338,1.517-8.528,2.263-12.719c0.083-0.471,0.163-0.943,0.256-1.413c0.382-1.914,0.384-1.913,2.389-1.913
		c8.64,0,17.279,0,25.918,0c0.477,0,0.954,0,1.525,0c1.052-5.909,2.093-11.751,3.165-17.773c-7.218,0-14.342,0-21.602,0
		c0.973-5.472,1.913-10.758,2.865-16.111c7.205,0,14.315,0,21.602,0c1.555-8.749,3.102-17.444,4.658-26.2c6.602,0,13.144,0,19.887,0
		c-7.546,42.411-15.082,84.773-22.625,127.173c-6.654,0-13.199,0-19.889,0C146.024,38.7,149.031,21.793,152.083,4.639z"/>
	<path fill-rule="evenodd" clip-rule="evenodd" fill="#FFFFFF" d="M48.942-40.082c-2.896,5.537-5.699,10.869-8.467,16.218
		c-0.359,0.694-0.761,0.583-1.357,0.403c-8.659-2.629-17.325-5.233-25.989-7.845c-2.023-0.61-4.038-1.251-6.075-1.812
		c-0.497-0.137-1.114-0.153-1.596,0.011c-8.779,2.992-17.729,5.348-26.889,6.768c-8.163,1.265-16.373,2.224-24.563,3.31
		c-0.86,0.114-1.728,0.174-2.689,0.269c-0.543-5.354-1.074-10.578-1.616-15.919c1.754-0.147,3.383-0.228,4.997-0.427
		c7.843-0.969,15.717-1.752,23.513-3.018c8.351-1.356,16.596-3.334,24.502-6.421c2.912-1.137,5.659-2.73,8.399-4.261
		c0.848-0.474,1.427-1.429,2.13-2.163c-0.06-0.119-0.12-0.237-0.179-0.356c-17.471,0-34.941,0-52.577,0
		c0.384-2.275,0.722-4.345,1.085-6.411c0.45-2.554,0.964-5.097,1.361-7.658c0.123-0.788,0.436-0.947,1.159-0.946
		c24.958,0.016,49.917,0.013,74.875,0.016c0.235,0,0.471,0.038,0.571,0.046c-0.73,10.595-4.247,19.808-13.511,26.424
		C33.899-42.559,41.351-41.332,48.942-40.082z"/>
	<path fill-rule="evenodd" clip-rule="evenodd" fill="#FFFFFF" d="M137.892-62.295c-0.916,4.891-1.738,9.684-2.72,14.443
		c-3.373,16.36-11.121,30.463-22.136,42.905c-9.264,10.463-20.25,18.772-32.127,25.979c-3.034,1.841-6.197,3.469-9.303,5.189
		c-0.34,0.188-0.7,0.344-1.167,0.571c-2.647-5.308-5.256-10.54-7.885-15.812c3.005-1.675,5.995-3.26,8.906-4.978
		c11.365-6.706,21.701-14.706,30.328-24.749c6.665-7.758,11.28-16.605,13.414-26.671c0.031-0.146,0.042-0.297,0.082-0.58
		c-13.251,0-26.426,0-39.765,0c0.981-5.507,1.936-10.865,2.904-16.298C98.197-62.295,117.926-62.295,137.892-62.295z"/>
	<path fill-rule="evenodd" clip-rule="evenodd" fill="#FFFFFF" d="M-69.056-2.049c0.388-2.272,0.731-4.35,1.099-6.422
		c0.454-2.553,0.96-5.097,1.372-7.656c0.114-0.707,0.361-1.001,1.064-0.915c0.236,0.029,0.479,0.004,0.719,0.004
		c39.918,0,79.836,0,119.754,0c0.513,0,1.026,0,1.705,0c-0.381,2.237-0.729,4.347-1.102,6.453c-0.453,2.553-0.954,5.098-1.373,7.656
		c-0.106,0.649-0.339,0.931-0.987,0.882c-0.318-0.023-0.64-0.003-0.959-0.003C12.437-2.049-27.361-2.049-67.159-2.049
		C-67.713-2.049-68.267-2.049-69.056-2.049z"/>
	<path fill-rule="evenodd" clip-rule="evenodd" fill="#FFFFFF" d="M231.504,28.777c-10.652,0-20.994,0-31.457,0
		c0.586-3.293,1.139-6.467,1.736-9.634c0.04-0.212,0.381-0.432,0.627-0.522c0.248-0.091,0.553-0.027,0.832-0.027
		c14.641,0,29.279,0,43.92,0c0.43,0,0.86,0,1.449,0c-0.521,3.857-1.109,7.521-3.117,10.801c-1.965,3.211-4.631,5.764-7.707,8.168
		c5.191,1.109,10.197,2.18,15.346,3.279c-2.1,3.767-4.133,7.416-6.192,11.111c-0.483-0.148-0.902-0.256-1.308-0.404
		c-6.215-2.278-12.422-4.583-18.654-6.812c-0.635-0.228-1.514-0.219-2.135,0.033c-9.608,3.903-19.625,6.143-29.873,7.467
		c-0.072,0.01-0.152-0.037-0.336-0.086c-0.445-3.538-0.896-7.116-1.346-10.682c4.27-0.729,8.369-1.35,12.436-2.138
		c6.908-1.341,13.684-3.157,20.051-6.243C227.851,32.082,229.884,30.972,231.504,28.777z"/>
	<path fill-rule="evenodd" clip-rule="evenodd" fill="#FFFFFF" d="M237.219,1.807c-2.646,3.424-5.229,6.765-7.886,10.204
		c-4.481-3.212-8.911-6.389-13.435-9.631c-8.218,5.766-17.434,9.293-27.244,11.75c-0.809-3.522-1.605-6.996-2.412-10.511
		c2.668-0.759,5.246-1.425,7.783-2.224c6.36-2.004,12.424-4.67,17.605-8.944c1.912-1.579,3.436-3.634,5.105-5.501
		c0.305-0.34,0.453-0.819,0.794-1.459c-8.241,0-16.28,0-24.47,0c0.635-3.562,1.233-6.923,1.852-10.399c4.23,0,8.449,0,12.775,0
		c0.513-2.825,0.989-5.557,1.528-8.278c0.062-0.315,0.47-0.801,0.723-0.804c3.872-0.051,7.743-0.036,11.77-0.036
		c-0.53,3.048-1.038,5.976-1.571,9.042c4.088,0,8.066,0,12.059,0c-0.787,7.533-3.34,14.205-8.374,19.993
		C228.322-2.706,232.709-0.481,237.219,1.807z"/>
	<path fill-rule="evenodd" clip-rule="evenodd" fill="#FFFFFF" d="M278.287-15.632c0.615-3.484,1.178-6.74,1.793-9.985
		c0.043-0.232,0.458-0.528,0.727-0.558c0.711-0.079,1.436-0.029,2.156-0.029c11.635,0,23.27,0,34.904,0c0.475,0,0.947,0,1.611,0
		c-0.294,1.713-0.564,3.304-0.84,4.893c-1.65,9.526-4.927,18.392-10.696,26.237c-3.821,5.197-8.563,9.476-13.538,13.521
		c-5.566,4.526-11.527,8.443-17.962,11.63c-0.425,0.211-0.854,0.414-1.368,0.663c-1.686-3.388-3.35-6.729-5.051-10.146
		c1.928-1.06,3.781-2.053,5.611-3.088c6.742-3.817,12.965-8.351,18.484-13.795c5.281-5.208,9.021-11.343,10.727-18.629
		c0.045-0.19,0.066-0.385,0.123-0.715C296.092-15.632,287.277-15.632,278.287-15.632z"/>
	<path fill-rule="evenodd" clip-rule="evenodd" fill="#FFFFFF" d="M332.756,49.14c-4.317,0-8.467,0-12.755,0
		c4.824-27.115,9.636-54.155,14.45-81.222c4.283,0,8.469,0,12.778,0C342.398-4.972,337.581,22.062,332.756,49.14z"/>
	<path fill-rule="evenodd" clip-rule="evenodd" fill="#FFFFFF" d="M247.176-32.082c4.291,0,8.436,0,12.748,0
		c-1.003,5.671-1.991,11.259-3.004,16.98c4.255,0,8.396,0,12.699,0c-0.658,3.699-1.293,7.254-1.952,10.955c-0.824,0-1.612,0-2.401,0
		c-3.078,0-6.156,0.027-9.233-0.018c-0.858-0.014-1.129,0.255-1.274,1.115c-0.979,5.778-2.036,11.543-3.078,17.372
		c-4.251,0-8.465,0-12.771,0C241.668-1.165,244.416-16.585,247.176-32.082z"/>
	<path fill-rule="evenodd" clip-rule="evenodd" fill="#FFFFFF" d="M57.206,99.292c-0.864-1.944-1.67-3.759-2.529-5.691
		c3.401-1.994,6.842-3.779,10.794-4.317c2.634-0.359,5.257-0.375,7.839,0.377c5.091,1.482,7.312,5.033,6.222,10.185
		c-1.633,7.72-3.356,15.421-5.055,23.196c-2.269,0-4.531,0-6.841,0c0.175-1.051,0.344-2.064,0.544-3.267
		c-0.327,0.215-0.509,0.314-0.669,0.443c-4.104,3.305-8.727,4.154-13.735,2.72c-3.664-1.05-5.381-3.991-4.75-7.748
		c0.484-2.886,1.017-5.77,3.002-8.076c2.261-2.628,5.287-3.86,8.64-4.129c3.139-0.251,6.304-0.217,9.458-0.242
		c0.84-0.007,1.241-0.164,1.435-1.098c0.825-3.973-0.522-5.697-4.592-5.644c-3.11,0.041-5.96,0.987-8.601,2.602
		C58.032,98.808,57.692,99.004,57.206,99.292z M69.844,108.939c-2.566,0-5.04-0.027-7.512,0.007
		c-3.391,0.048-5.021,1.476-5.609,4.833c-0.289,1.648,0.329,2.604,1.94,3.004C64.284,118.173,69.156,114.812,69.844,108.939z"/>
	<path fill-rule="evenodd" clip-rule="evenodd" fill="#FFFFFF" d="M225.619,109.311c-0.104,0.838-0.25,1.506-0.258,2.177
		c-0.031,3.243,1.725,5.086,4.975,5.42c3.559,0.365,6.903-0.336,10.125-1.802c0.543-0.247,1.084-0.497,1.786-0.818
		c0.661,1.911,1.3,3.761,1.961,5.673c-3.122,1.854-6.406,3.064-9.94,3.354c-2.453,0.2-4.963,0.263-7.4-0.014
		c-5.662-0.642-9.182-4.634-8.967-10.359c0.195-5.207,1.179-10.32,3.758-14.95c4.327-7.771,12.826-10.164,20.025-8.396
		c5.945,1.46,7.798,6.512,7.225,11.477c-0.277,2.409-0.9,4.777-1.322,7.172c-0.144,0.81-0.481,1.095-1.342,1.09
		c-6.357-0.04-12.714-0.021-19.07-0.021C226.7,109.311,226.226,109.311,225.619,109.311z M227.049,103.363c0.396,0,0.783,0,1.17,0
		c3.916,0,7.832-0.049,11.745,0.031c1.095,0.022,1.431-0.393,1.602-1.357c0.577-3.257-0.492-5.384-3.216-6.157
		c-0.607-0.172-1.256-0.225-1.89-0.283C231.619,95.148,227.45,98.54,227.049,103.363z"/>
	<path fill-rule="evenodd" clip-rule="evenodd" fill="#FFFFFF" d="M147.583,101.177c-0.761,5.46-1.521,11.847-6.233,16.802
		c-4.275,4.496-9.661,6.021-15.697,5.481c-1.41-0.126-2.854-0.468-4.164-1c-4.159-1.691-6.273-4.992-6.185-9.366
		c0.114-5.671,1.105-11.242,4.347-16.073c4.146-6.177,10.208-8.398,17.421-7.84c1.374,0.106,2.772,0.437,4.066,0.915
		C145.408,91.676,147.609,95.231,147.583,101.177z M129.417,116.681c3.051-0.029,5.841-1.226,7.493-4.241
		c2.011-3.671,2.703-7.729,2.822-11.86c0.053-1.855-0.934-3.336-2.708-4.024c-3.858-1.497-9.852-0.41-11.628,4.622
		c-0.987,2.797-1.626,5.745-2.134,8.675C122.502,114.237,124.691,116.67,129.417,116.681z"/>
	<path fill-rule="evenodd" clip-rule="evenodd" fill="#FFFFFF" d="M22.899,123.077c-2.626,0-5.099,0-7.749,0
		c0.452-2.11,0.885-4.155,1.328-6.198c2.621-12.086,5.247-24.17,7.855-36.259c0.127-0.59,0.192-1.032,0.988-1.03
		c8.719,0.025,17.438,0.018,26.156,0.024c0.152,0,0.304,0.057,0.571,0.11c-0.45,2.095-0.856,4.157-1.38,6.19
		c-0.061,0.235-0.77,0.429-1.179,0.431c-5.679,0.028-11.358,0.056-17.037-0.012c-1.205-0.014-1.715,0.242-1.95,1.523
		c-0.638,3.485-1.467,6.936-2.249,10.529c6.187,0,12.288,0,18.494,0c-0.452,2.154-0.835,4.187-1.349,6.187
		c-0.071,0.276-0.784,0.548-1.201,0.551c-5.399,0.036-10.798,0.045-16.197,0.004c-0.923-0.007-1.289,0.236-1.486,1.188
		C25.361,111.894,24.122,117.454,22.899,123.077z"/>
	<path fill-rule="evenodd" clip-rule="evenodd" fill="#FFFFFF" d="M94.208,89.85c0.567,8.595,1.127,17.08,1.687,25.565
		c0.074,0.02,0.148,0.039,0.223,0.059c1.156-2.296,2.314-4.591,3.468-6.888c2.993-5.955,5.999-11.903,8.958-17.874
		c0.352-0.71,0.728-0.992,1.535-0.971c2.222,0.061,4.445,0.021,6.856,0.021c-0.27,0.561-0.44,0.949-0.64,1.321
		c-5.55,10.34-11.113,20.672-16.635,31.026c-0.422,0.791-0.888,1.041-1.757,1.023c-2.833-0.058-5.667-0.021-8.608-0.021
		c-1.153-11.11-2.298-22.141-3.453-33.263C88.634,89.85,91.365,89.85,94.208,89.85z"/>
	<path fill-rule="evenodd" clip-rule="evenodd" fill="#FFFFFF" d="M217.551,89.706c-0.488,2.295-0.934,4.391-1.396,6.563
		c-2.436,0-4.791,0.031-7.144-0.018c-0.792-0.018-1.102,0.243-1.265,1.019c-1.137,5.384-2.32,10.757-3.489,16.134
		c-0.009,0.039-0.027,0.076-0.035,0.115c-0.515,2.56,0.312,3.541,2.942,3.291c1.375-0.131,2.727-0.507,4.162-0.786
		c0,1.891,0.02,3.825-0.027,5.76c-0.006,0.209-0.357,0.505-0.608,0.598c-3.458,1.279-6.993,1.649-10.583,0.668
		c-2.613-0.714-4.197-2.892-3.908-5.711c0.289-2.807,0.834-5.594,1.389-8.364c0.838-4.18,1.782-8.337,2.715-12.655
		c-1.693,0-3.303,0-5.127,0c0.471-2.256,0.903-4.338,1.354-6.505c1.695,0,3.362,0,5.165,0c0.62-2.805,1.227-5.549,1.854-8.385
		c2.48,0,4.978,0,7.627,0c-0.581,2.735-1.157,5.442-1.76,8.277C212.099,89.706,214.712,89.706,217.551,89.706z"/>
	<path fill-rule="evenodd" clip-rule="evenodd" fill="#FFFFFF" d="M174.982,96.369c-2.256,0-4.291-0.333-6.167,0.069
		c-3.909,0.837-6.059,3.616-6.897,7.438c-1.394,6.35-2.759,12.707-4.154,19.146c-2.494,0-4.992,0-7.65,0
		c0.347-1.667,0.678-3.322,1.037-4.973c1.978-9.078,3.98-18.152,5.919-27.239c0.184-0.859,0.495-1.091,1.328-1.067
		c2.032,0.058,4.067,0.019,6.244,0.019c-0.287,1.453-0.55,2.787-0.884,4.478c2.48-2.909,5.145-4.818,8.718-5.124
		c2.01-0.172,3.969-0.024,5.958,0.695C177.185,92.183,175.983,94.469,174.982,96.369z"/>
	<path fill-rule="evenodd" clip-rule="evenodd" fill="#FFFFFF" d="M183.361,89.822c2.612,0,5.078,0,7.656,0
		c-2.417,11.129-4.815,22.179-7.219,33.248c-2.561,0-5.03,0-7.652,0C178.556,111.964,180.952,100.925,183.361,89.822z"/>
	<path fill-rule="evenodd" clip-rule="evenodd" fill="#FFFFFF" d="M184.215,85.147c0.609-2.842,1.187-5.529,1.779-8.292
		c2.624,0,5.244,0,8,0c-0.604,2.788-1.199,5.534-1.796,8.292C189.511,85.147,186.921,85.147,184.215,85.147z"/>
</g>
</svg>
