<?xml version="1.0" encoding="utf-8"?>
<!-- Generator: Adobe Illustrator 16.0.0, SVG Export Plug-In . SVG Version: 6.00 Build 0)  -->
<!DOCTYPE svg PUBLIC "-//W3C//DTD SVG 1.1//EN" "http://www.w3.org/Graphics/SVG/1.1/DTD/svg11.dtd">
<svg version="1.1" id="레이어_1" xmlns="http://www.w3.org/2000/svg" xmlns:xlink="http://www.w3.org/1999/xlink" x="0px"
	 y="0px" width="414.925px" height="209.384px" viewBox="436.28 245.89 414.925 209.384"
	 enable-background="new 436.28 245.89 414.925 209.384" xml:space="preserve">
<g>
	<path fill-rule="evenodd" clip-rule="evenodd" fill="#FFFFFF" d="M629.855,324.801c-5.194,4.42-10.359,8.814-15.619,13.29
		c-4.498-6.88-8.944-13.682-13.441-20.562c-9.496,9.763-20.275,17.606-32.256,24.036c-2.593-4.995-5.162-9.945-7.789-15.008
		c0.605-0.342,1.177-0.681,1.763-0.992c10.469-5.558,19.84-12.555,27.831-21.335c5.243-5.762,9.854-11.972,12.846-19.233
		c0.907-2.2,1.551-4.51,2.376-6.948c-10.487,0-20.736,0-31.182,0c0.951-5.382,1.875-10.613,2.818-15.955c5.321,0,10.585,0,15.943,0
		c0.979-5.464,1.939-10.826,2.902-16.204c6.372,0,12.639,0,19.011,0c-0.948,5.355-1.884,10.644-2.854,16.125
		c5.125,0,10.167,0,15.39,0c-0.479,2.625-0.895,5.045-1.365,7.456c-2.328,11.939-6.925,22.954-13.613,33.096
		c-0.574,0.871-0.259,1.313,0.259,1.93c5.536,6.575,11.056,13.163,16.58,19.748C629.579,324.392,629.68,324.558,629.855,324.801z"/>
	<path fill-rule="evenodd" clip-rule="evenodd" fill="#FFFFFF" d="M509.938,252.557c-1.098,7.307-2.666,14.324-5.589,20.996
		c-2.916,6.657-6.67,12.799-11.247,18.556c3.971,3.066,7.891,6.091,11.81,9.118c3.89,3.004,7.778,6.01,11.788,9.108
		c-4.644,4.997-9.255,9.96-13.943,15.004c-6.943-7.038-13.843-14.032-20.843-21.128c-11.771,10.632-25.348,18.25-40.092,24.202
		c-1.849-5.147-3.687-10.267-5.542-15.431c2.218-0.937,4.352-1.813,6.466-2.735c10.633-4.634,20.346-10.712,28.855-18.625
		c6.516-6.059,11.789-13.013,14.917-21.441c0.148-0.399,0.275-0.806,0.467-1.372c-12.403,0-24.656,0-37.128,0
		c0.294-1.785,0.545-3.415,0.834-5.037c0.603-3.376,1.287-6.739,1.804-10.128c0.152-0.999,0.569-1.104,1.393-1.1
		c4.679,0.026,9.358,0.013,14.038,0.013c13.478,0,26.955,0,40.433,0C508.835,252.557,509.31,252.557,509.938,252.557z"/>
	<path fill-rule="evenodd" clip-rule="evenodd" fill="#FFFFFF" d="M626.087,288.094c3.899,0,7.694-0.022,11.488,0.018
		c0.825,0.009,1.133-0.17,1.289-1.068c2.189-12.571,4.437-25.133,6.674-37.695c0.048-0.27,0.148-0.529,0.227-0.802
		c6.235,0,12.423,0,18.68,0c-7.137,40.127-14.262,80.191-21.401,120.34c-6.182,0-12.36,0-18.749,0
		c3.807-21.432,7.609-42.843,11.439-64.404c-4.213,0-8.309,0-12.542,0C624.173,298.935,625.125,293.542,626.087,288.094z"/>
	<path fill-rule="evenodd" clip-rule="evenodd" fill="#FFFFFF" d="M672.177,247.307c6.378,0,12.606,0,19.007,0
		c-0.387,2.213-0.752,4.354-1.133,6.492c-1.798,10.094-3.602,20.187-5.398,30.28c-1.896,10.643-3.787,21.285-5.68,31.928
		c-1.789,10.053-3.58,20.105-5.363,30.159c-1.623,9.149-3.233,18.301-4.855,27.45c-0.091,0.509-0.17,0.967-0.934,0.962
		c-5.957-0.039-11.916-0.031-17.874-0.043c-0.073,0-0.146-0.05-0.377-0.136C657.098,332.078,664.631,289.73,672.177,247.307z"/>
	<path fill-rule="evenodd" clip-rule="evenodd" fill="#FFFFFF" d="M532.507,292.862c-7.354,0-14.577,0-21.986,0
		c0.302-1.806,0.566-3.482,0.865-5.152c0.603-3.376,1.285-6.74,1.802-10.129c0.154-1.008,0.594-1.089,1.404-1.087
		c6.518,0.021,13.036-0.012,19.553,0.036c1.019,0.007,1.328-0.305,1.499-1.3c1.559-9.043,3.185-18.074,4.796-27.108
		c0.048-0.268,0.162-0.522,0.251-0.804c6.58,0,13.124,0,19.798,0c-5.651,31.759-11.287,63.438-16.934,95.175
		c-6.643,0-13.213,0-19.888,0C526.612,325.965,529.541,309.518,532.507,292.862z"/>
	<path fill-rule="evenodd" clip-rule="evenodd" fill="#FFFFFF" d="M726.174,312.257c3.141,0,6.009,0.026,8.875-0.046
		c0.244-0.006,0.619-0.633,0.688-1.016c1.384-7.613,2.724-15.235,4.116-22.848c0.059-0.323,0.541-0.809,0.832-0.813
		c3.6-0.05,7.199-0.025,10.799-0.013c0.107,0.001,0.217,0.076,0.477,0.175c-4.539,25.533-9.08,51.076-13.632,76.681
		c-3.99,0-7.929,0-12.034,0c2.465-13.873,4.915-27.667,7.392-41.605c-2.928,0-5.679-0.007-8.432,0.002
		c-1.437,0.005-3.104-0.405-4.247,0.185c-1.133,0.585-1.74,2.19-2.576,3.351c-6.293,8.73-14.108,15.866-22.953,21.924
		c-0.061,0.042-0.146,0.049-0.342,0.11c-2.148-2.968-4.32-5.967-6.576-9.082c0.68-0.479,1.316-0.932,1.955-1.379
		c8.529-5.986,15.982-13.021,21.387-22.035c2.063-3.439,3.641-7.091,4.546-11.014c0.079-0.345,0.122-0.697,0.209-1.207
		c-6.442,0-12.812,0-19.443,0c0.626-3.574,1.22-6.958,1.817-10.368c10.607,0,21.11,0,31.748,0
		C729.686,299.664,728.755,306.008,726.174,312.257z"/>
	<path fill-rule="evenodd" clip-rule="evenodd" fill="#FFFFFF" d="M480.46,359.792c21.023,0,41.88,0,62.841,0
		c-0.618,3.483-1.206,6.814-1.8,10.146c-0.28,1.57-0.641,3.13-0.832,4.711c-0.109,0.903-0.49,1.075-1.312,1.064
		c-3.319-0.044-6.64-0.019-9.959-0.019c-23.359,0-46.718,0-70.077,0c-0.474,0-0.948,0-1.573,0
		c2.593-14.525,5.162-28.922,7.739-43.356c6.6,0,13.105,0,19.852,0C483.713,341.484,482.101,350.556,480.46,359.792z"/>
	<path fill-rule="evenodd" clip-rule="evenodd" fill="#FFFFFF" d="M842.239,337.117c-0.879,5.003-1.74,9.951-2.619,14.897
		c-1.012,5.692-2.054,11.379-3.045,17.075c-0.124,0.715-0.334,1.027-1.119,1.026c-16.432-0.02-32.865-0.015-49.298-0.018
		c-0.195,0-0.391-0.035-0.794-0.073c1.946-10.991,3.883-21.924,5.827-32.908C808.219,337.117,825.194,337.117,842.239,337.117z
		 M799.761,359.817c0.259,0.135,0.294,0.169,0.33,0.169c8.267,0.014,16.534,0.034,24.8,0.001c0.29-0.002,0.748-0.503,0.834-0.845
		c0.291-1.156,0.451-2.345,0.658-3.521c0.49-2.803,0.978-5.605,1.477-8.467c-8.68,0-17.216,0-25.861,0
		C801.248,351.399,800.503,355.617,799.761,359.817z"/>
	<path fill-rule="evenodd" clip-rule="evenodd" fill="#FFFFFF" d="M824.792,307.904c-0.383,7.435-4.887,14.267-12.797,18.714
		c-7.095,3.988-14.734,4.749-22.563,2.265c-6.99-2.218-11.508-8.624-11.24-15.931c0.342-9.387,5.229-16.058,13.104-20.517
		c6.971-3.947,14.5-4.699,22.207-2.177C820.433,292.526,824.865,298.778,824.792,307.904z M799.798,319.633
		c5.784-0.171,10.375-3.694,11.938-9.163c1.6-5.599-1.461-10.469-6.963-11.079c-6.613-0.734-12.454,3.649-13.612,10.217
		C790.128,315.465,793.87,319.808,799.798,319.633z"/>
	<path fill-rule="evenodd" clip-rule="evenodd" fill="#FFFFFF" d="M755.965,367.978c-4.145,0-8.098,0-12.203,0
		c0.498-2.829,0.98-5.6,1.474-8.367c1.798-10.096,3.599-20.19,5.396-30.286c1.813-10.174,3.621-20.348,5.432-30.521
		c0.67-3.771,1.329-7.545,2.041-11.308c0.059-0.307,0.483-0.774,0.743-0.778c3.792-0.051,7.585-0.034,11.603-0.034
		C765.608,313.858,760.789,340.894,755.965,367.978z"/>
	<path fill-rule="evenodd" clip-rule="evenodd" fill="#FFFFFF" d="M687.256,412.713c0.607-0.563,1.105-1.065,1.646-1.518
		c3.694-3.093,7.917-4.044,12.55-2.839c3.34,0.868,5.461,3.702,5.77,7.164c0.278,3.135-0.566,6.099-1.215,9.097
		c-1.189,5.495-2.383,10.988-3.611,16.475c-0.071,0.318-0.469,0.797-0.727,0.804c-2.309,0.063-4.621,0.037-7.066,0.037
		c0.662-3.056,1.309-5.97,1.924-8.892c0.878-4.174,1.766-8.346,2.57-12.533c0.167-0.872,0.061-1.819-0.046-2.718
		c-0.188-1.602-1.226-2.434-2.747-2.741c-3.937-0.798-7.482,1.354-8.519,5.493c-1.335,5.335-2.427,10.731-3.62,16.102
		c-0.387,1.745-0.762,3.491-1.143,5.24c-2.575,0-5.043,0-7.637,0c0.655-3.026,1.306-5.978,1.93-8.934
		c0.883-4.173,1.785-8.342,2.585-12.531c0.174-0.909,0.08-1.924-0.12-2.839c-0.417-1.898-2.183-2.871-4.622-2.701
		c-3.257,0.228-5.794,2.224-6.573,5.53c-1.527,6.48-2.906,12.996-4.35,19.496c-0.146,0.658-0.309,1.313-0.467,1.986
		c-2.537,0-5.008,0-7.621,0c2.412-11.115,4.809-22.161,7.215-33.248c2.379,0,4.687,0,7.189,0c-0.233,1.217-0.458,2.393-0.739,3.861
		c1.935-2.197,4.047-3.638,6.661-4.243c2.346-0.543,4.675-0.589,6.947,0.327C685.284,409.341,686.6,410.651,687.256,412.713z"/>
	<path fill-rule="evenodd" clip-rule="evenodd" fill="#FFFFFF" d="M613.208,410.775c0.125-0.523,0.308-1.291,0.506-2.121
		c2.429,0,4.844,0,7.352,0c-0.898,4.127-1.774,8.176-2.659,12.222c-1.593,7.284-3.095,14.59-4.814,21.844
		c-1.788,7.548-7.334,11.93-15.061,12.464c-3.87,0.267-7.581,0.03-11.051-1.832c-0.87-0.467-1.666-1.072-2.612-1.689
		c1.641-2.081,3.192-4.047,4.792-6.075c3.831,2.987,8.017,3.7,12.447,1.728c3.962-1.765,4.207-5.672,4.94-9.298
		c-1.876,2.012-4.19,3.136-6.854,3.538c-2.349,0.355-4.695,0.387-7.006-0.289c-3.331-0.974-5.313-3.444-5.777-6.886
		c-0.506-3.754,0.572-7.289,1.293-10.875c0.666-3.311,1.764-6.454,3.798-9.216c3.902-5.297,10.926-7.764,16.771-5.721
		C610.65,409.049,611.861,410.003,613.208,410.775z M610.954,420.278c0.019-2.453-0.861-4-2.584-4.895
		c-2.72-1.412-7.776-1.118-10.125,3.007c-2.064,3.624-2.813,7.619-2.988,11.695c-0.118,2.763,1.356,4.541,3.487,4.881
		c3.924,0.626,7.729-1.263,9.586-4.83C610.017,426.894,610.211,423.257,610.954,420.278z"/>
	<path fill-rule="evenodd" clip-rule="evenodd" fill="#FFFFFF" d="M525.726,441.836c-0.387-2.947-0.817-5.904-1.152-8.873
		c-0.328-2.906-0.286-2.911-3.246-2.91c-3.397,0-6.795,0.025-10.192-0.02c-0.789-0.01-1.21,0.248-1.59,0.937
		c-1.873,3.387-3.821,6.732-5.699,10.117c-0.356,0.642-0.749,0.884-1.489,0.866c-2.236-0.054-4.474-0.02-6.95-0.02
		c0.243-0.452,0.405-0.778,0.588-1.093c8.033-13.839,16.074-27.674,24.087-41.524c0.395-0.682,0.823-0.938,1.603-0.909
		c1.677,0.06,3.357,0.035,5.036,0.01c0.625-0.009,0.88,0.164,0.982,0.853c1.9,12.74,3.834,25.477,5.765,38.213
		c0.215,1.418,0.447,2.833,0.688,4.354C531.346,441.836,528.585,441.836,525.726,441.836z M513.865,423.29c3.32,0,6.371,0,9.501,0
		c-0.532-4.855-1.052-9.607-1.597-14.591C519.076,413.669,516.507,418.413,513.865,423.29z"/>
	<path fill-rule="evenodd" clip-rule="evenodd" fill="#FFFFFF" d="M647.829,441.884c-2.315,0-4.507,0-6.771,0
		c0.193-1.151,0.377-2.242,0.586-3.485c-3.089,2.967-6.743,4.1-10.8,3.978c-1.258-0.038-2.546-0.285-3.752-0.657
		c-3.446-1.061-5.18-3.767-4.647-7.346c0.279-1.881,0.639-3.803,1.331-5.561c1.82-4.618,5.697-6.524,10.321-7.001
		c2.97-0.307,5.983-0.194,8.978-0.266c0.516-0.013,1.031-0.002,1.806-0.002c0.088-1.339,0.283-2.63,0.227-3.91
		c-0.065-1.464-1.041-2.287-2.431-2.567c-3.363-0.677-6.493,0.12-9.495,1.599c-0.821,0.404-1.597,0.899-2.551,1.442
		c-0.834-1.873-1.663-3.736-2.524-5.671c5.798-3.556,11.796-5.753,18.586-3.948c5.167,1.374,7.323,4.907,6.228,10.259
		c-1.533,7.498-3.23,14.963-4.861,22.44C648.008,441.416,647.912,441.633,647.829,441.884z M643.285,427.769
		c-2.659,0-5.325-0.048-7.989,0.013c-2.946,0.067-4.803,1.849-5.151,4.808c-0.225,1.912,0.521,3.046,2.417,3.052
		c1.888,0.006,3.839-0.167,5.652-0.664C641.713,434.017,642.909,431.196,643.285,427.769z"/>
	<path fill-rule="evenodd" clip-rule="evenodd" fill="#FFFFFF" d="M735.991,433.19c0.633,1.837,1.266,3.672,1.925,5.584
		c-3.088,1.842-6.365,3.074-9.896,3.354c-2.571,0.205-5.221,0.321-7.753-0.065c-5.944-0.909-9.181-5.125-8.692-11.205
		c0.336-4.178,1.165-8.303,2.842-12.182c3.945-9.126,12.984-12.109,20.794-10.299c5.246,1.217,8.142,5.646,7.428,11.342
		c-0.322,2.565-0.971,5.089-1.43,7.639c-0.155,0.859-0.735,0.778-1.342,0.778c-6.316-0.004-12.634-0.003-18.95-0.002
		c-1.653,0-1.653,0.001-1.803,1.675c-0.313,3.507,1.494,5.583,5.025,5.928c3.52,0.344,6.823-0.359,10.008-1.796
		c0.473-0.213,0.939-0.438,1.413-0.648C735.662,433.246,735.781,433.238,735.991,433.19z M734.907,422.141
		c0.131-0.48,0.263-0.857,0.336-1.246c0.74-3.946-0.784-6.02-4.8-6.43c-0.9-0.093-1.836-0.005-2.74,0.117
		c-3.731,0.504-6.983,4.075-6.902,7.559C725.468,422.141,730.135,422.141,734.907,422.141z"/>
	<path fill-rule="evenodd" clip-rule="evenodd" fill="#FFFFFF" d="M830.277,332.722c2.731-15.36,5.455-30.674,8.181-45.999
		c4.285,0,8.434,0,12.748,0c-0.271,1.609-0.52,3.158-0.795,4.702c-2.06,11.575-4.125,23.15-6.188,34.725
		c-0.336,1.884-0.656,3.77-1.01,5.649c-0.098,0.52-0.114,1.079-0.962,1.069c-3.796-0.044-7.593-0.022-11.389-0.029
		C830.713,332.839,830.563,332.781,830.277,332.722z"/>
	<path fill-rule="evenodd" clip-rule="evenodd" fill="#FFFFFF" d="M742.668,438.229c1.588-2.015,3.117-3.954,4.686-5.943
		c2.228,1.635,4.523,3.045,7.27,3.244c1.734,0.125,3.511,0.058,5.234-0.172c1.736-0.23,2.815-1.347,3.168-3.139
		c0.303-1.541,0.01-2.278-1.51-2.754c-1.785-0.559-3.617-0.964-5.426-1.45c-0.846-0.228-1.695-0.452-2.521-0.739
		c-4.721-1.639-6.25-4.353-5.226-9.231c1.149-5.478,5.509-9.229,11.456-9.949c3.332-0.403,6.643-0.279,9.874,0.529
		c1.695,0.424,3.272,1.322,5.134,2.104c-1.703,2.142-3.154,3.968-4.646,5.846c-3.389-2.238-7.091-2.345-10.867-1.736
		c-1.688,0.271-2.951,1.148-3.252,3.029c-0.207,1.296,0.072,2.025,1.322,2.417c1.556,0.487,3.162,0.813,4.742,1.227
		c1.195,0.312,2.394,0.618,3.573,0.981c4.601,1.421,6.173,4.195,5.299,8.953c-0.868,4.729-3.634,7.854-7.997,9.517
		c-6.362,2.425-12.59,1.945-18.55-1.4C743.816,439.217,743.293,438.708,742.668,438.229z"/>
	<path fill-rule="evenodd" clip-rule="evenodd" fill="#FFFFFF" d="M556.902,396.318c-3.317,15.28-6.595,30.381-9.886,45.544
		c-2.534,0-5.033,0-7.639,0c0.607-2.851,1.194-5.652,1.802-8.448c2.615-12.03,5.246-24.057,7.835-36.093
		c0.169-0.787,0.458-1.038,1.246-1.021C552.412,396.35,554.566,396.318,556.902,396.318z"/>
	<path fill-rule="evenodd" clip-rule="evenodd" fill="#FFFFFF" d="M563.21,441.889c-2.617,0-5.089,0-7.655,0
		c3.3-15.203,6.587-30.344,9.881-45.519c2.545,0,5.013,0,7.653,0C569.792,411.563,566.509,426.693,563.21,441.889z"/>
</g>
</svg>
