<?xml version="1.0" encoding="utf-8"?>
<!-- Generator: Adobe Illustrator 16.0.0, SVG Export Plug-In . SVG Version: 6.00 Build 0)  -->
<!DOCTYPE svg PUBLIC "-//W3C//DTD SVG 1.1//EN" "http://www.w3.org/Graphics/SVG/1.1/DTD/svg11.dtd">
<svg version="1.1" id="레이어_1" xmlns="http://www.w3.org/2000/svg" xmlns:xlink="http://www.w3.org/1999/xlink" x="0px"
	 y="0px" width="421.432px" height="210.676px" viewBox="-24.104 -56.999 421.432 210.676"
	 enable-background="new -24.104 -56.999 421.432 210.676" xml:space="preserve">
<g>
	<path fill-rule="evenodd" clip-rule="evenodd" fill="#FFFFFF" d="M198.457-34.324c-20.493,0-40.962,0-61.596,0
		c0.961-5.422,1.902-10.73,2.845-16.055c27.416,0,54.719,0,82.066,0c-2.8,18.455-7.203,36.411-14.39,53.796
		c8.581,0,16.968,0,25.483,0c-0.447,2.594-0.867,5.061-1.299,7.526c-0.454,2.594-0.942,5.182-1.366,7.781
		c-0.123,0.753-0.377,1.19-1.213,1.073c-0.235-0.033-0.479-0.005-0.72-0.005c-39.718,0-79.437,0-119.155,0c-0.55,0-1.1,0-1.794,0
		c0.984-5.522,1.939-10.884,2.919-16.38c0.56,0,1.068,0,1.577,0c24.559,0,49.118-0.013,73.677,0.037
		c1.271,0.002,1.774-0.432,2.23-1.529c4.81-11.57,8.2-23.56,10.732-35.81C198.477-34,198.457-34.119,198.457-34.324z"/>
	<path fill-rule="evenodd" clip-rule="evenodd" fill="#FFFFFF" d="M40.066-26.881c-13.825,0-27.649,0-41.599,0
		c0.493-2.817,0.964-5.52,1.438-8.221c0.366-2.082,0.781-4.156,1.086-6.247c0.142-0.976,0.516-1.29,1.534-1.282
		c6.319,0.052,12.638,0.026,18.957,0.026c0.472,0,0.944,0,1.484,0c0.869-4.855,1.718-9.596,2.577-14.394c6.4,0,12.743,0,19.295,0
		c-0.836,4.776-1.662,9.497-2.513,14.362c6.81,0,13.506,0,20.409,0c-0.927,5.687-1.722,11.219-4.097,16.385
		c-2.363,5.14-5.684,9.595-9.72,13.663c6.3,2.639,12.467,5.222,18.745,7.851C63.593,0.877,59.611,6.37,55.56,11.958
		c-0.444-0.262-0.851-0.488-1.245-0.734C47.848,7.175,41.381,3.129,34.924-0.934c-0.578-0.363-1.021-0.508-1.713-0.12
		C22.434,4.99,10.832,8.794-1.165,11.503c-2.644,0.597-5.307,1.111-7.962,1.66c-0.074,0.015-0.157-0.016-0.362-0.04
		C-10.745,7.786-12.01,2.408-13.304-3.09c2.469-0.507,4.847-0.967,7.212-1.486c10.976-2.408,21.728-5.508,31.838-10.526
		c4.448-2.208,8.782-4.619,12.199-8.333c0.875-0.951,1.576-2.061,2.357-3.098C40.223-26.649,40.145-26.765,40.066-26.881z"/>
	<path fill-rule="evenodd" clip-rule="evenodd" fill="#FFFFFF" d="M83.879-54.696c6.611,0,13.156,0,19.889,0
		C96.223-12.284,88.687,30.078,81.143,72.482c-6.639,0-13.184,0-19.892,0C68.799,30.064,76.334-12.29,83.879-54.696z"/>
	<path fill-rule="evenodd" clip-rule="evenodd" fill="#FFFFFF" d="M203.929,59.054c-0.97,5.443-1.898,10.656-2.843,15.957
		c-27.666,0-55.317,0-83.134,0c2.557-14.34,5.109-28.652,7.676-43.046c6.752,0,13.491,0,20.428,0
		c-1.601,9.007-3.195,17.976-4.815,27.089C162.112,59.054,182.887,59.054,203.929,59.054z"/>
	<path fill-rule="evenodd" clip-rule="evenodd" fill="#FFFFFF" d="M15.168,10.875c6.584,0,12.972,0,19.572,0
		c-1.014,5.743-2.013,11.401-3.067,17.374c10.367-1.041,20.562-2.065,30.896-3.103c-0.424,5.022-0.856,10.136-1.295,15.334
		c-28.305,4.083-56.719,4.718-85.376,4.648c0.96-5.385,1.901-10.66,2.877-16.137c11.041,0,22.094,0,33.174,0
		C13.041,22.833,14.101,16.871,15.168,10.875z"/>
	<path fill-rule="evenodd" clip-rule="evenodd" fill="#FFFFFF" d="M301.574,59.171c-0.621,3.438-1.199,6.643-1.781,9.87
		c-17.781,0-35.446,0-53.264,0c0.402-2.285,0.792-4.504,1.185-6.722c0.925-5.226,1.88-10.446,2.751-15.681
		c0.162-0.974,0.543-1.186,1.465-1.184c11.877,0.031,23.754,0.005,35.63,0.044c1.16,0.004,1.78-0.213,1.796-1.508
		c0.01-0.857,0.264-1.711,0.43-2.688c-12.796,0-25.458,0-38.289,0c0.297-1.797,0.565-3.469,0.852-5.137
		c0.208-1.218,0.49-2.426,0.641-3.651c0.095-0.78,0.45-0.977,1.178-0.972c3.639,0.026,7.277,0.012,10.916,0.012
		c12.477,0,24.953,0,37.43,0c0.508,0,1.016,0,1.7,0c-0.31,1.843-0.577,3.521-0.875,5.193c-1.009,5.656-2.06,11.305-3.011,16.971
		c-0.169,1.002-0.563,1.193-1.471,1.191c-11.877-0.025-23.754-0.004-35.631-0.038c-1.045-0.003-1.64,0.144-1.673,1.357
		c-0.025,0.934-0.296,1.86-0.484,2.94C274.623,59.171,288.002,59.171,301.574,59.171z"/>
	<path fill-rule="evenodd" clip-rule="evenodd" fill="#FFFFFF" d="M385.172-15.274c4.039,0,8.023,0,12.156,0
		c-3.013,16.934-6.009,33.779-9.019,50.697c-4.045,0-8.063,0-12.234,0c1.248-7.041,2.489-14.043,3.746-21.136
		c-2.002,0-3.831,0-5.842,0c-1.128,6.265-2.263,12.565-3.409,18.93c-3.993,0-7.931,0-12.013,0c0.382-2.171,0.749-4.28,1.124-6.389
		c1.881-10.604,3.764-21.208,5.645-31.812c0.502-2.827,0.987-5.657,1.502-8.482c0.095-0.519,0.107-1.085,0.958-1.074
		c3.559,0.045,7.118,0.021,10.678,0.029c0.149,0,0.3,0.061,0.574,0.12c-1.055,5.994-2.103,11.945-3.185,18.094
		c1.86,0,3.637,0.035,5.406-0.043c0.223-0.01,0.545-0.591,0.609-0.946c1.072-5.888,2.112-11.782,3.162-17.673
		C385.045-15.036,385.094-15.105,385.172-15.274z"/>
	<path fill-rule="evenodd" clip-rule="evenodd" fill="#FFFFFF" d="M362.758,36.238c5.035,0.25,9.351,0.638,13.395,2.53
		c8.451,3.954,10.429,12.546,5.961,19.967c-3.057,5.076-7.773,8.059-13.348,9.711c-7.499,2.224-15.067,2.457-22.503-0.126
		c-5.45-1.892-9.345-5.463-9.813-11.611c-0.349-4.579,1.368-8.544,4.448-11.888c4.117-4.471,9.358-6.854,15.266-7.837
		C358.562,36.584,361.001,36.431,362.758,36.238z M359.162,60.066c0.014-0.104,0.027-0.21,0.04-0.314
		c0.719,0,1.441,0.049,2.155-0.009c2.611-0.214,5.154-0.745,7.372-2.215c2.106-1.396,3.366-3.359,3.026-5.969
		c-0.33-2.525-2.193-3.669-4.435-4.305c-3.818-1.083-7.652-0.99-11.479-0.045c-1.847,0.456-3.544,1.23-4.916,2.595
		c-3.329,3.31-2.322,7.763,2.154,9.093C355.051,59.482,357.132,59.688,359.162,60.066z"/>
	<path fill-rule="evenodd" clip-rule="evenodd" fill="#FFFFFF" d="M278.034,28.024c-2.603-2.54-5.129-4.927-7.563-7.406
		c-2.406-2.451-4.719-4.994-7.217-7.649c-6.235,7.631-13.644,12.913-22.25,16.831c-1.75-3.229-3.492-6.443-5.289-9.759
		c6.76-3.329,12.719-7.585,17.438-13.455c4.751-5.909,7.108-12.761,8.009-20.227c4.291,0,8.475,0,12.863,0
		c-0.492,2.532-0.82,5.022-1.481,7.422c-0.804,2.912-1.833,5.767-2.885,8.602c-0.296,0.796-0.202,1.151,0.435,1.663
		c5.736,4.605,11.441,9.248,17.156,13.881c0.247,0.201,0.49,0.407,0.867,0.72C284.763,21.765,281.447,24.85,278.034,28.024z"/>
	<path fill-rule="evenodd" clip-rule="evenodd" fill="#FFFFFF" d="M341.161,3.001c4.086,0.134,7.72,0.646,10.794,2.951
		c4.359,3.267,6.056,8.653,4.33,14.273c-2.413,7.857-7.965,12.298-15.898,13.834c-4.231,0.819-8.438,0.584-12.447-1.174
		c-4.936-2.164-7.75-7.526-7.188-12.889c0.826-7.869,7.435-15.495,17.082-16.656C339.061,3.192,340.295,3.088,341.161,3.001z
		 M337.482,25.001c4.354,0.021,7.208-2.284,8.059-6.377c0.541-2.604-0.496-4.767-2.748-5.734c-3.155-1.354-7.537-0.152-9.408,2.715
		c-1.415,2.169-2.055,4.579-0.779,7.023C333.632,24.597,335.612,24.948,337.482,25.001z"/>
	<path fill-rule="evenodd" clip-rule="evenodd" fill="#FFFFFF" d="M161.887,106.601c2.49,0,4.842,0,7.313,0
		c-0.196,1.027-0.382,2.004-0.61,3.202c3.102-2.975,6.681-4.079,10.668-3.929c4.868,0.185,8.205,2.62,9.027,6.856
		c0.364,1.88,0.394,3.926,0.079,5.813c-0.575,3.45-1.265,6.923-2.366,10.233c-1.937,5.823-5.816,9.832-11.988,11.246
		c-2.164,0.496-4.345,0.559-6.521-0.018c-1.808-0.479-3.245-1.482-4.481-3.208c-0.433,1.939-0.822,3.662-1.2,5.387
		c-0.709,3.23-1.401,6.466-2.136,9.691c-0.072,0.315-0.386,0.818-0.598,0.823c-2.344,0.06-4.69,0.038-7.205,0.038
		C155.228,137.271,158.548,121.98,161.887,106.601z M171.088,133.68c2.683,0.003,4.992-1.232,6.428-3.719
		c2.209-3.823,2.915-8.102,3.14-12.412c0.139-2.663-1.136-4.216-3.078-4.693c-4.188-1.03-8.621,0.946-10.184,4.961
		c-1.06,2.723-1.464,5.694-2.259,8.527C163.868,130.858,167.438,133.786,171.088,133.68z"/>
	<path fill-rule="evenodd" clip-rule="evenodd" fill="#FFFFFF" d="M334.039,109.151c1.117-5.117,2.169-9.942,3.227-14.792
		c2.563,0,5.064,0,7.642,0c-3.294,15.217-6.571,30.359-9.849,45.498c-2.451,0-4.797,0-7.229,0c0.225-1.151,0.437-2.232,0.703-3.595
		c-3.087,3.356-6.854,4.222-10.933,4.097c-1.183-0.036-2.39-0.249-3.526-0.581c-3.41-0.997-5.405-3.758-5.659-7.501
		c-0.265-3.9,0.878-7.582,1.639-11.327c0.626-3.083,1.636-6.014,3.552-8.542c3.958-5.224,9.217-7.311,15.674-6.253
		C331.123,106.458,332.791,107.233,334.039,109.151z M316.355,127.371c-0.055,4.559,1.523,6.343,5.016,6.296
		c3.799-0.051,6.773-1.887,8.115-5.315c1.307-3.336,1.98-6.951,2.634-10.499c0.336-1.824-0.651-3.385-2.341-4.373
		c-2.643-1.544-8.013-1.366-10.469,3.095C317.318,120.188,316.885,124.195,316.355,127.371z"/>
	<path fill-rule="evenodd" clip-rule="evenodd" fill="#FFFFFF" d="M59.721,116.086c-0.868-1.956-1.672-3.771-2.51-5.659
		c5.699-3.553,11.67-5.7,18.419-4.021c5.143,1.279,7.48,4.857,6.439,10.027c-1.574,7.811-3.361,15.578-5.068,23.415
		c-2.295,0-4.552,0-6.849,0c0.181-1.085,0.35-2.101,0.571-3.429c-2.069,1.967-4.299,3.017-6.781,3.579
		c-2.547,0.577-5.073,0.549-7.572-0.21c-3.67-1.114-5.446-4.035-4.816-7.839c0.458-2.769,0.979-5.532,2.799-7.788
		c2.27-2.813,5.396-4.104,8.882-4.38c3.18-0.251,6.385-0.212,9.579-0.239c0.776-0.007,1.077-0.2,1.242-1.01
		c0.851-4.162-0.466-5.815-4.711-5.728c-3.112,0.065-5.947,1.058-8.583,2.671C60.463,115.661,60.156,115.833,59.721,116.086z
		 M72.399,125.741c-2.58,0-5.056-0.027-7.531,0.007c-3.387,0.048-5.038,1.487-5.624,4.827c-0.293,1.676,0.389,2.686,2.055,3.044
		C67.016,134.846,71.599,131.644,72.399,125.741z"/>
	<path fill-rule="evenodd" clip-rule="evenodd" fill="#FFFFFF" d="M225.76,139.873c0.204-1.187,0.385-2.242,0.597-3.478
		c-3.114,2.948-6.757,4.081-10.801,3.963c-1.222-0.036-2.47-0.266-3.643-0.617c-3.452-1.036-5.202-3.587-4.765-7.165
		c0.239-1.961,0.667-3.952,1.369-5.794c1.76-4.614,5.633-6.483,10.197-6.979c3.049-0.332,6.146-0.203,9.222-0.276
		c0.476-0.012,0.951-0.002,1.577-0.002c0.143-1.16,0.389-2.256,0.389-3.351c-0.002-1.815-0.881-2.817-2.664-3.146
		c-3.953-0.727-7.49,0.468-10.846,2.437c-0.31,0.182-0.607,0.381-1.037,0.651c-0.84-1.879-1.662-3.718-2.551-5.704
		c0.837-0.48,1.641-0.966,2.465-1.411c3.826-2.063,7.867-3.386,12.261-3.111c1.692,0.105,3.428,0.413,5.026,0.966
		c3.921,1.355,6.043,4.681,5.252,8.721c-1.564,7.982-3.396,15.912-5.121,23.862c-0.031,0.147-0.113,0.284-0.175,0.435
		C230.288,139.873,228.097,139.873,225.76,139.873z M227.955,125.748c-2.708,0-5.305-0.046-7.898,0.012
		c-3.174,0.07-5.251,2.288-5.26,5.476c-0.004,1.157,0.5,1.998,1.619,2.194c1.165,0.204,2.378,0.275,3.56,0.214
		C224.756,133.392,227.715,130.456,227.955,125.748z"/>
	<path fill-rule="evenodd" clip-rule="evenodd" fill="#FFFFFF" d="M282.449,126.113c-1.453,4.147,0.538,7.218,4.77,7.607
		c3.394,0.313,6.587-0.343,9.667-1.72c0.646-0.29,1.299-0.565,2.041-0.888c0.603,1.763,1.201,3.402,1.698,5.072
		c0.078,0.262-0.216,0.816-0.487,0.969c-2.813,1.579-5.828,2.596-9.034,2.979c-2.947,0.354-5.896,0.451-8.823-0.232
		c-4.638-1.084-7.702-4.404-7.668-9.145c0.05-6.75,1.229-13.304,5.651-18.77c4.338-5.361,12.678-7.594,19.17-5.241
		c3.84,1.392,5.723,4.261,6.137,8.218c0.383,3.664-0.809,7.11-1.52,10.617c-0.049,0.244-0.733,0.505-1.125,0.51
		c-3.6,0.039-7.199,0.022-10.799,0.022C288.89,126.113,285.654,126.113,282.449,126.113z M283.798,120.166c0.425,0,0.856,0,1.288,0
		c3.598,0,7.194,0.012,10.791-0.005c2.45-0.012,1.967,0.35,2.402-2.043c0.514-2.823-0.945-5.162-3.627-5.493
		c-1.705-0.21-3.544-0.175-5.201,0.239C285.969,113.734,283.663,117.387,283.798,120.166z"/>
	<path fill-rule="evenodd" clip-rule="evenodd" fill="#FFFFFF" d="M275.971,106.564c-9.122,15.834-18.117,31.444-27.146,47.113
		c-2.238-0.862-4.389-1.69-6.624-2.552c1.663-2.772,3.146-5.566,4.945-8.14c1.396-1.995,1.597-3.963,1.265-6.286
		c-1.048-7.348-1.921-14.721-2.865-22.083c-0.28-2.178-0.576-4.353-0.854-6.53c-0.06-0.462-0.075-0.931-0.116-1.461
		c2.844,0,5.582,0,8.42,0c0.672,8.024,1.34,15.996,2.037,24.321c0.37-0.615,0.578-0.924,0.748-1.252
		c3.829-7.36,7.666-14.717,11.461-22.095c0.4-0.779,0.842-1.088,1.734-1.06C271.212,106.612,273.451,106.564,275.971,106.564z"/>
	<path fill-rule="evenodd" clip-rule="evenodd" fill="#FFFFFF" d="M299.796-15.28c4.343,0,8.491,0,12.784,0
		c-2.598,14.552-5.18,29.022-7.767,43.518c-4.269,0-8.417,0-12.753,0C294.646,13.692,297.219-0.777,299.796-15.28z"/>
	<path fill-rule="evenodd" clip-rule="evenodd" fill="#FFFFFF" d="M115.379,108.722c-1.746,2.174-3.191,3.975-4.684,5.833
		c-3.341-2.235-7.005-2.325-10.743-1.76c-1.99,0.302-2.997,1.276-3.333,2.947c-0.292,1.452,0.013,2.125,1.444,2.557
		c1.831,0.552,3.708,0.946,5.561,1.429c1.002,0.262,2.007,0.526,2.989,0.857c4.234,1.43,5.696,4.127,4.973,8.53
		c-0.921,5.609-4.398,8.827-9.552,10.383c-5.448,1.646-10.816,1.125-15.972-1.31c-0.609-0.287-1.167-0.692-1.722-1.082
		c-0.356-0.25-0.662-0.571-1.07-0.93c1.549-1.971,3.071-3.906,4.64-5.901c0.605,0.411,1.149,0.795,1.707,1.157
		c3.247,2.109,6.789,2.688,10.559,1.984c2.268-0.423,3.387-1.747,3.529-4.035c0.072-1.163-0.676-1.676-1.599-1.938
		c-2.109-0.602-4.251-1.085-6.359-1.692c-1.183-0.342-2.373-0.732-3.47-1.279c-2.816-1.405-3.963-3.768-3.64-6.903
		c0.787-7.627,6.256-10.654,11.844-11.485c3.281-0.488,6.565-0.283,9.758,0.521C111.933,107.031,113.508,107.933,115.379,108.722z"
		/>
	<path fill-rule="evenodd" clip-rule="evenodd" fill="#FFFFFF" d="M339.228-17.17c4.015,0,7.92,0,11.949,0
		c-0.502,2.85-0.989,5.625-1.497,8.514c4.354,0,8.622,0,13.093,0c-0.305,1.835-0.58,3.543-0.873,5.247
		c-0.203,1.18-0.504,2.349-0.625,3.536c-0.086,0.856-0.469,1.027-1.239,1.022c-4.719-0.027-9.438-0.013-14.157-0.013
		c-7.559,0-15.117,0-22.676,0c-0.475,0-0.949,0-1.647,0c0.591-3.319,1.157-6.51,1.737-9.774c4.837,0,9.587,0,14.404,0
		C338.21-11.494,338.709-14.273,339.228-17.17z"/>
	<path fill-rule="evenodd" clip-rule="evenodd" fill="#FFFFFF" d="M45.944,139.875c-9.058,0-18.006,0-27.109,0
		c0.542-2.502,1.069-4.938,1.599-7.375c2.542-11.688,5.095-23.372,7.604-35.066c0.168-0.785,0.422-1.062,1.225-1.044
		c2.228,0.047,4.458,0.017,6.779,0.017c-2.669,12.311-5.303,24.461-7.965,36.739c6.444,0,12.782,0,19.3,0
		C46.879,135.478,46.413,137.667,45.944,139.875z"/>
	<path fill-rule="evenodd" clip-rule="evenodd" fill="#FFFFFF" d="M123.343,113.065c-1.667,0-3.293,0-5.086,0
		c0.478-2.222,0.926-4.305,1.392-6.47c1.718,0,3.386,0,5.177,0c0.514-2.389,1.062-4.705,1.493-7.042
		c0.198-1.075,0.575-1.524,1.767-1.45c2.024,0.125,4.061,0.034,6.222,0.034c-0.608,2.861-1.187,5.581-1.787,8.402
		c2.7,0,5.327,0,8.131,0c-0.481,2.231-0.937,4.342-1.404,6.509c-2.717,0-5.348,0-8.12,0c-0.492,2.205-0.985,4.364-1.456,6.529
		c-0.771,3.544-1.529,7.092-2.292,10.638c-0.042,0.194-0.099,0.388-0.125,0.584c-0.272,2.108,0.396,2.882,2.541,2.841
		c0.794-0.016,1.593-0.133,2.374-0.288c0.736-0.146,1.449-0.402,2.256-0.634c0,1.996,0.019,3.931-0.027,5.863
		c-0.005,0.208-0.351,0.506-0.6,0.598c-3.333,1.223-6.739,1.635-10.227,0.752c-2.881-0.73-4.501-2.674-4.26-5.657
		c0.227-2.807,0.775-5.597,1.33-8.365c0.821-4.103,1.773-8.179,2.666-12.268C123.339,113.492,123.327,113.333,123.343,113.065z"/>
	<path fill-rule="evenodd" clip-rule="evenodd" fill="#FFFFFF" d="M190.845,139.868c3.302-15.21,6.583-30.327,9.878-45.504
		c2.524,0,5.029,0,7.655,0c-3.299,15.193-6.586,30.334-9.879,45.504C195.956,139.868,193.484,139.868,190.845,139.868z"/>
</g>
</svg>
