<?xml version="1.0" encoding="utf-8"?>
<!-- Generator: Adobe Illustrator 16.0.0, SVG Export Plug-In . SVG Version: 6.00 Build 0)  -->
<!DOCTYPE svg PUBLIC "-//W3C//DTD SVG 1.1//EN" "http://www.w3.org/Graphics/SVG/1.1/DTD/svg11.dtd">
<svg version="1.1" id="레이어_1" xmlns="http://www.w3.org/2000/svg" xmlns:xlink="http://www.w3.org/1999/xlink" x="0px"
	 y="0px" width="696.388px" height="182.88px" viewBox="-42.194 323.527 696.388 182.88"
	 enable-background="new -42.194 323.527 696.388 182.88" xml:space="preserve">
<title>cps1</title>
<g>
	<path fill-rule="evenodd" clip-rule="evenodd" fill="#FFFFFF" d="M-42.194,387.127c0-2.24,0-4.479,0-6.72
		c0.153-0.696,0.344-1.386,0.452-2.089c0.299-1.934,0.46-3.896,0.858-5.809c2.854-13.714,9.723-25.09,20.598-33.842
		c16.603-13.361,35.543-17.395,56.182-12.605c15.841,3.676,28.384,12.5,37.527,26.029c0.241,0.356,0.452,0.732,0.71,1.151
		c-10.446,10.929-20.85,21.814-31.229,32.673c-3.173-1.888-19.562-13.315-20.146-14.034c0.463-0.65,0.993-1.265,1.376-1.959
		c0.537-0.974,1.08-1.972,1.419-3.024c1.272-3.951-2.619-7.48-6.11-6.824c-2.534,0.476-4.801,1.357-6.756,3.11
		c-1.954,1.753-3.792,3.578-4.916,5.978c-1.819,3.886-2.513,8.009-2.132,12.264c0.391,4.364,1.492,8.586,3.153,12.637
		c3.382,8.242,11.991,14.821,22.365,13.457c5.256-0.691,9.266-3.324,11.571-8.251c0.1-0.213,0.225-0.413,0.325-0.597
		c2.828-0.266,24.085-0.138,25.051,0.187c0,6.074,0,12.19,0.003,18.306c0,0.025,0.047,0.059,0.078,0.072s0.071,0.007,0.184,0.014
		c11.494-30.046,22.996-60.113,34.487-90.153c13.451,0,26.76,0,40.11,0c0.207,0.516,0.405,0.991,0.591,1.471
		c10.169,26.319,20.34,52.638,30.503,78.96c0.755,1.955,1.804,3.743,3.004,5.445c0.642,0.911,1.464,1.644,2.604,2.261
		c0.034-0.596,0.082-1.061,0.084-1.526c0.015-4.72,0.024-9.439,0.031-14.16c0.015-10.359,0.026-20.719,0.041-31.079
		c0.004-3.24,0.09-6.482-0.007-9.719c-0.071-2.37-0.929-4.373-3.395-5.281c-0.627-0.231-1.229-0.528-1.813-0.781
		c0-8.556,0-17.022,0-25.654c0.609,0,1.156,0,1.703,0c19.44,0,38.88-0.019,58.32,0.012c5.735,0.009,11.403,0.702,16.994,2.016
		c8.683,2.041,15.471,6.709,20.052,14.432c1.162,1.959,2.231,3.972,3.349,5.958c0.16,0.286,0.348,0.558,0.565,0.904
		c0.847-1.217,1.551-2.335,2.358-3.373c10.878-13.987,25.326-21.341,42.852-22.663c8.046-0.607,16.058,0.181,23.965,1.854
		c9.176,1.942,17.291,5.943,23.975,12.591c2.32,2.308,4.409,4.849,6.602,7.285c0.281,0.313,0.55,0.638,0.818,0.951
		c1.485-1.521,2.832-3.002,4.285-4.37c11.776-11.081,25.793-17.108,41.866-18.381c3.063-0.243,6.152-0.162,9.229-0.234
		c5.346-0.125,10.629,0.402,15.813,1.708c13.862,3.495,25.14,10.847,33.465,22.569c1.02,1.435,2.074,2.843,3.121,4.258
		c0.149,0.202,0.341,0.374,0.721,0.785c0-8.919,0-17.536,0-26.248c18.146,0,36.167,0,54.188,0c0.996,3.033,5.305,12.892,5.94,13.533
		c1.336-4.504,2.663-8.979,4.004-13.497c18.516,0,37.05,0,55.647,0c0,8.43,0,16.769,0,25.087c-0.854,0.413-1.648,0.783-2.43,1.18
		c-0.824,0.418-1.379,1.08-1.655,1.964c-0.516,1.655-0.789,3.323-0.52,5.075c1.351,8.769,2.672,17.542,3.998,26.316
		c1.201,7.942,2.393,15.887,3.593,23.83c0.262,1.732,1.212,3.119,2.371,4.347c0.379,0.402,1.02,0.604,1.577,0.781
		c0.635,0.203,1.311,0.276,1.982,0.409c0,9.477,0,18.891,0,28.329c-18.671,0-37.254,0-55.976,0c0-1.493-0.017-19.92-0.026-21.505
		c-2.521,0-30.775,0.004-32.061,0.004c-0.086,7.222-0.172,14.356-0.257,21.456c-1.47,0.302-51.662,0.235-52.537-0.051
		c0-4.52,0-9.052,0-13.59c-0.156,0.014-0.251-0.006-0.304,0.032c-0.229,0.161-0.448,0.335-0.664,0.514
		c-3.089,2.554-6.362,4.848-9.834,6.848c-13.912,8.014-28.753,11.244-44.65,8.205c-15.726-3.007-29.415-10.04-40.762-21.446
		c-0.23-0.232-0.489-0.437-0.882-0.784c0,2.477-0.007,4.712,0.001,6.947c0.009,2.2,0.069,4.4,0.036,6.6
		c-0.033,2.218,0.172,4.442-0.045,6.758c-0.586,0-1.059,0-1.532,0c-13.04,0-26.079,0-39.12-0.001c-1.039,0-2.083,0.045-3.117-0.027
		c-3.952-0.275-7.878-0.759-11.753-1.603c-11.827-2.577-22.459-7.606-31.592-15.605c-9.997-8.758-16.581-19.571-19.314-32.646
		c-0.111-0.534-0.234-1.065-0.382-1.729c-0.418,0.352-0.713,0.608-1.017,0.855c-1.706,1.387-3.36,2.845-5.13,4.146
		c-8.004,5.886-16.865,10.077-26.322,13.019c-3.01,0.937-6.1,1.617-9.15,2.426c-1.665,0.44-2.23,1.624-1.55,3.199
		c0.436,1.006,1.173,1.728,2.185,2.11c1.303,0.491,2.633,0.907,4.012,1.376c0,8.058,0,16.154,0,24.303
		c-0.303,0.033-0.533,0.076-0.765,0.081c-2.438,0.042-4.875,0.106-7.313,0.11c-13.28,0.023-26.56,0.041-39.84,0.043
		c-52.64,0.011-105.279,0.018-157.919,0.019c-8.715,0-17.193-1.444-25.409-4.348c-11.513-4.067-21.438-10.506-29.269-19.958
		c-7.453-8.994-11.767-19.321-12.859-30.974C-41.823,388.519-42.045,387.826-42.194,387.127z M483.92,426.714
		c-0.013,2.278-0.088,4.459,0.008,6.614c1.922,0.245,29.47,0.158,30.35-0.086c0-2.012,0-4.034,0-6.064
		c-0.736-0.232-1.425-0.421-2.093-0.667c-1.874-0.69-2.954-2.046-3.067-4.036c-0.082-1.429-0.128-2.888,0.063-4.299
		c0.697-5.148,1.508-10.28,2.263-15.421c1.62-11.031,3.231-22.064,4.852-33.096c0.034-0.231,0.136-0.452,0.205-0.678
		c0.066,0.003,0.134,0.007,0.2,0.01c4.975,14.336,9.948,28.671,14.935,43.041c6.223,0.087,12.362,0.172,18.566,0.259
		c2.489-7.815,4.947-15.539,7.409-23.262c2.474-7.759,4.95-15.517,7.425-23.275c0.276,0.42,0.366,0.83,0.431,1.244
		c0.285,1.816,0.564,3.633,0.845,5.45c1.001,6.477,2.002,12.955,3.004,19.431c1.002,6.478,2.007,12.954,3.008,19.431
		c0.483,3.12,1.065,6.229,1.415,9.364c0.406,3.63-1.176,5.453-4.132,6.359c-0.411,0.126-0.825,0.242-1.296,0.38
		c0,1.89-0.002,3.726,0.004,5.563c0,0.19,0.048,0.382,0.08,0.62c11.699,0,23.35,0,35.047,0c0-2.239,0-4.389,0-6.549
		c-0.19-0.079-0.331-0.149-0.479-0.197c-1.864-0.604-3.075-1.799-3.437-3.773c-0.05-0.273-0.159-0.538-0.201-0.813
		c-0.717-4.619-1.454-9.235-2.133-13.86c-0.709-4.824-1.359-9.656-2.037-14.485c-0.762-5.422-1.526-10.843-2.287-16.265
		c-0.768-5.461-1.53-10.924-2.296-16.386c-0.505-3.602-1.06-7.197-1.505-10.807c-0.305-2.474,0.467-4.502,2.829-5.701
		c0.603-0.306,1.19-0.641,1.753-0.945c0-1.884,0-3.706,0-5.59c-12.244,0-24.381,0-36.564,0c-4.41,12.696-8.802,25.34-13.194,37.983
		c-0.077-0.012-0.154-0.024-0.231-0.036c-4.192-12.656-8.385-25.313-12.576-37.963c-11.614,0-23.113,0-34.662,0
		c0,2.3,0,4.521,0,6.741c1.064,0.41,2.089,0.747,3.064,1.191c1.778,0.81,2.327,1.938,2.014,3.87
		c-1.15,7.101-2.295,14.202-3.438,21.305c-1.16,7.22-2.31,14.443-3.473,21.663c-1.169,7.26-2.338,14.52-3.531,21.774
		c-0.35,2.128-0.713,4.258-1.191,6.358c-0.599,2.637-2.332,4.301-4.841,5.201C484.69,426.432,484.357,426.555,483.92,426.714z
		 M426.906,436.34c5.078-0.034,9.017-0.385,12.902-1.2c12.55-2.632,23.156-8.625,31.461-18.459
		c11.475-13.588,14.643-31.896,8.278-48.179c-4.979-12.738-13.934-21.89-26.13-27.837c-12.187-5.942-25.017-7.295-38.216-4.35
		c-12.639,2.821-23.232,9.17-31.26,19.415c-8.914,11.376-12.234,24.294-9.691,38.552c1.865,10.45,6.901,19.294,14.576,26.575
		C399.791,431.26,413.018,436.07,426.906,436.34z M215.359,406.272c1.858-0.518,3.598-0.972,5.319-1.485
		c8.558-2.558,16.775-6.015,24.946-9.572c4.269-1.858,8.216-4.305,11.741-7.379c4.414-3.85,7.685-8.46,9.146-14.197
		c1.492-5.856,1.426-11.743-0.233-17.543c-2.262-7.902-7.451-12.965-15.357-15.211c-1.766-0.502-3.575-0.849-5.348-1.328
		c-3.728-1.008-7.499-1.523-11.375-1.471c-4.918,0.067-9.838-0.046-14.757-0.063c-10.72-0.037-21.438-0.063-32.158-0.089
		c-0.308-0.001-0.615,0.054-1.014,0.091c-0.066,2.646-0.132,5.228-0.191,7.599c1.396,0.986,2.634,1.846,3.855,2.729
		c0.769,0.555,1.086,1.355,1.137,2.279c0.077,1.397,0.233,2.794,0.223,4.19c-0.035,4.358-0.188,8.716-0.196,13.074
		c-0.031,17.08-0.023,34.16-0.028,51.239c0,0.479-0.011,0.964,0.044,1.438c0.156,1.339-0.316,2.44-1.245,3.36
		c-1.083,1.073-2.221,2.075-3.842,2.39c-0.11,2.374-0.27,4.703-0.172,7.021c2.357,0.263,33.015,0.199,33.984-0.073
		c0-2.322,0-4.666,0-6.94c-0.923-0.684-1.81-1.298-2.649-1.972c-1.432-1.148-2.109-2.644-2.073-4.503
		c0.081-4.278,0.11-8.558,0.165-12.836C215.283,406.785,215.328,406.554,215.359,406.272z M174.505,426.525
		c-0.189-0.099-0.289-0.171-0.4-0.205c-2.736-0.821-4.823-2.504-6.24-4.944c-0.919-1.584-1.781-3.228-2.433-4.935
		c-9.789-25.646-19.539-51.307-29.3-76.964c-0.168-0.441-0.354-0.876-0.555-1.37c-8.437,0-16.819,0-25.235,0
		c-0.174,0.451-0.335,0.856-0.485,1.266c-9.248,25.08-18.487,50.163-27.758,75.235c-0.69,1.868-1.486,3.719-2.434,5.468
		c-1.52,2.803-3.329,5.387-6.735,6.282c0.123,2.369,0.243,4.667,0.362,6.937c1.554,0.264,28.116,0.197,28.986-0.06
		c0-2.219,0-4.446,0-6.672c-0.366-0.105-0.673-0.191-0.978-0.281c-2.29-0.675-3.471-2.15-3.605-4.515
		c-0.088-1.538,0.132-3.021,0.698-4.464c2.047-5.207,4.071-10.422,6.107-15.632c0.114-0.291,0.267-0.567,0.396-0.839
		c9.925,0,19.792,0,29.688,0c0.479,1.205,0.953,2.348,1.388,3.505c1.84,4.899,3.683,9.799,5.486,14.712
		c0.314,0.854,0.556,1.765,0.644,2.667c0.24,2.454-0.903,3.958-3.298,4.516c-0.301,0.07-0.597,0.162-0.857,0.232
		c0,2.355,0,4.615,0,6.889c12.229,0,24.363,0,36.559,0C174.505,431.034,174.505,428.807,174.505,426.525z M55.635,409.417
		c-1.813,0-3.561-0.021-5.307,0.024c-0.235,0.007-0.5,0.316-0.687,0.539c-0.738,0.887-1.333,1.934-2.194,2.672
		c-4.311,3.698-9.279,5.751-15.031,5.584c-2.276-0.065-4.551-0.248-6.823-0.421c-6.408-0.485-12.127-2.801-17.132-6.778
		c-4.636-3.685-7.883-8.412-10.107-13.906c-3.281-8.104-4.752-16.464-3.296-25.118c1.361-8.089,5.502-14.582,12.355-19.224
		c3.155-2.137,6.658-3.299,10.478-3.33c2.275-0.019,4.556,0.083,6.828,0.221c4.109,0.25,7.514,2.031,10.332,4.976
		c3.827,3.999,3.86,9.779,1.827,13.106c-0.431,0.705-0.373,0.837,0.309,1.399c0.617,0.508,1.258,0.988,1.889,1.479
		c1.792,1.391,3.044,1.305,4.602-0.329c4.939-5.181,9.876-10.364,14.812-15.548c0.271-0.284,0.525-0.582,0.815-0.906
		c-0.271-0.366-0.499-0.692-0.746-1.002c-2.305-2.898-4.956-5.439-7.971-7.584c-8.707-6.199-18.449-9.473-29.094-9.899
		c-6.32-0.253-12.516,0.786-18.519,2.8c-11.164,3.746-20.306,10.256-26.784,20.176c-6.635,10.159-8.863,21.297-6.662,33.242
		c1.591,8.635,5.541,16.164,11.426,22.616c11.341,12.435,25.612,18.553,42.329,18.914c10.394,0.225,20.796,0.084,31.193,0.103
		c0.382,0,0.763-0.047,1.158-0.073C55.635,425.2,55.635,417.379,55.635,409.417z M368.86,353.822
		c-1.412-1.558-2.685-3.162-4.157-4.554c-8.97-8.476-19.809-12.732-31.967-13.728c-6.848-0.561-13.566,0.471-20.086,2.625
		c-11.305,3.735-20.533,10.311-27.074,20.35c-6.329,9.714-8.595,20.393-6.835,31.848c1.229,7.994,4.516,15.163,9.597,21.426
		c11.148,13.741,25.783,20.711,43.326,21.335c10.824,0.385,21.672,0.116,32.509,0.135c0.301,0,0.601-0.07,0.878-0.104
		c0-7.926,0-15.748,0-23.638c-1.933,0-3.791,0-5.498,0c-0.766,0.985-1.347,1.977-2.152,2.727c-4.037,3.762-8.813,5.887-14.362,6.041
		c-2.072,0.058-4.154-0.125-6.229-0.248c-4.016-0.236-7.895-1.006-11.632-2.601c-6.831-2.914-12.012-7.686-15.44-14.15
		c-4.213-7.944-6.174-16.482-5.654-25.55c0.428-7.474,3.223-13.887,8.373-19.246c4.469-4.649,9.895-7.238,16.472-7.021
		c1.678,0.055,3.355,0.128,5.029,0.235c4.279,0.274,7.835,2.071,10.722,5.208c1.066,1.158,1.909,2.477,2.368,3.993
		c0.928,3.065,0.901,6.071-0.732,8.928c-0.285,0.497-0.301,0.9,0.161,1.261c0.913,0.714,1.799,1.472,2.76,2.116
		c1.122,0.752,2.401,0.587,3.413-0.325c0.178-0.161,0.334-0.344,0.5-0.518c4.938-5.181,9.875-10.362,14.812-15.545
		C368.231,354.538,368.486,354.238,368.86,353.822z"/>
	<path fill-rule="evenodd" clip-rule="evenodd" fill="#FFFFFF" d="M4.846,506.407c-0.78-0.154-1.559-0.315-2.34-0.462
		C-8.407,503.907-16.755,494.792-18,483.729c-1.454-12.924,7.2-25.261,20.506-27.838c1.482-0.287,3.017-0.313,4.527-0.451
		c0.277-0.025,0.56-0.005,0.839-0.005c185.649,0,371.298,0.003,556.947-0.01c6.194-0.001,11.757,1.766,16.542,5.698
		c5.69,4.677,8.837,10.727,9.368,18.103c0.928,12.877-8.111,24.667-21.336,26.876c-0.506,0.085-1.006,0.203-1.509,0.306
		C380.205,506.407,192.526,506.407,4.846,506.407z M423.663,494.187c0-3.719-0.018-14.755-0.018-18.796
		c2.055,5.674,3.629,10.899,5.607,16.363c1.144,0,2.167,0,3.214,0c1.035-2.83,2.06-5.602,3.063-8.382
		c1.002-2.778,1.983-5.563,2.974-8.346c-0.352,5.743-0.604,17.271-0.247,19.205c1.539,0.048,3.103,0.042,4.639,0.005
		c0.275-1.89,0.188-25.775-0.076-26.623c-1.899,0-3.805,0-5.814,0c-2.018,5.783-4.027,11.542-6.066,17.389
		c-1.031-2.978-2.004-5.849-3.02-8.705c-1.03-2.894-2.104-5.772-3.143-8.616c-1.146,0-4.537,0.063-5.889,0.063
		c0,3.6-0.008,24.549-0.008,26.443C420.875,494.188,421.797,494.187,423.663,494.187z M203.259,487.491
		c0.625,2.235,1.243,4.45,1.888,6.755c1.869,0.019,3.675,0.029,5.638-0.008c-2.896-9.007-5.729-17.812-8.562-26.62
		c-2.173,0-4.23,0-6.358,0c-2.832,8.849-5.65,17.653-8.504,26.565c1.923,0,3.66,0,5.454,0c0.635-2.271,1.255-4.486,1.872-6.692
		C197.595,487.491,200.386,487.491,203.259,487.491z M403.177,478.121c-3.111,0-6.16,0-9.224,0c0-2.079,0-3.979,0-5.971
		c3.667-0.141,7.28,0.067,10.936-0.122c-0.005-1.563,0.084-2.981-0.052-4.373c-1.856-0.222-15.386-0.145-16.254,0.075
		c-0.242,1.461-0.173,25.574,0.082,26.442c5.489,0,10.983,0,16.498,0c0-1.5,0-2.911,0-4.458c-3.794,0-7.494,0-11.205,0
		c0-2.399,0-4.661,0-7.021c3.116-0.084,6.169,0.034,9.219-0.067C403.177,481.065,403.177,479.682,403.177,478.121z M134.993,494.26
		c0.078-3.276-0.04-6.336,0.074-9.456c1.372,0,2.578,0.094,3.764-0.023c1.502-0.148,3.046-0.289,4.468-0.752
		c3.063-0.996,4.934-3.173,5.467-6.384c0.137-0.82,0.126-1.677,0.092-2.512c-0.137-3.328-1.94-5.828-5.119-6.789
		c-1.512-0.458-3.131-0.692-4.712-0.76c-2.795-0.12-5.599-0.038-8.399-0.03c-0.303,0.001-0.606,0.068-0.911,0.104
		c0,8.879,0,17.663,0,26.522c0.412,0.029,0.761,0.074,1.109,0.076C132.174,494.265,133.523,494.26,134.993,494.26z M325.404,490.827
		c0.336,0.317,0.576,0.578,0.85,0.798c3.313,2.647,7.103,3.58,11.256,2.955c2.184-0.328,4.107-1.275,5.625-2.952
		c2.397-2.65,2.912-7.877-1.081-10.686c-0.779-0.548-1.634-1.008-2.503-1.401c-1.528-0.691-3.111-1.263-4.638-1.959
		c-0.754-0.344-1.466-0.807-2.132-1.304c-0.521-0.389-0.811-0.965-0.837-1.658c-0.055-1.396,0.753-2.398,2.321-2.749
		c2.198-0.49,4.197,0.049,6.052,1.251c0.357,0.231,0.706,0.478,1.11,0.751c0.936-1.164,1.802-2.24,2.795-3.476
		c-0.332-0.231-0.575-0.375-0.788-0.554c-2.273-1.903-4.908-2.8-7.854-2.787c-2.17,0.009-4.196,0.56-5.979,1.837
		c-4.199,3.006-4.129,9.008,0.156,11.884c0.79,0.53,1.667,0.947,2.538,1.342c1.528,0.692,3.089,1.315,4.625,1.991
		c0.473,0.208,0.946,0.447,1.358,0.753c1.811,1.344,1.552,3.846-0.508,4.754c-0.571,0.253-1.223,0.386-1.85,0.44
		c-2.399,0.212-4.46-0.691-6.36-2.055c-0.353-0.252-0.691-0.523-1.102-0.835C327.426,488.405,326.435,489.593,325.404,490.827z
		 M284.417,470.507c-0.404-0.364-0.711-0.675-1.052-0.94c-2.3-1.79-4.928-2.595-7.822-2.506c-2.123,0.065-4.097,0.654-5.817,1.944
		c-4.024,3.019-3.903,8.923,0.26,11.742c0.788,0.533,1.663,0.952,2.532,1.347c1.527,0.693,3.086,1.314,4.62,1.993
		c0.508,0.225,1.021,0.477,1.46,0.811c1.747,1.326,1.504,3.772-0.486,4.689c-0.6,0.276-1.296,0.416-1.96,0.472
		c-2.442,0.203-4.525-0.742-6.443-2.149c-0.313-0.229-0.62-0.464-0.979-0.733c-1.048,1.256-2.037,2.442-3.037,3.643
		c0.226,0.236,0.35,0.394,0.499,0.52c3.414,2.888,7.357,3.912,11.736,3.215c2.055-0.327,3.863-1.232,5.336-2.759
		c2.546-2.638,3.104-8.042-0.938-10.855c-0.781-0.544-1.633-1.007-2.501-1.398c-1.564-0.705-3.195-1.268-4.741-2.009
		c-0.846-0.404-1.692-0.941-2.33-1.615c-0.969-1.024-0.691-2.662,0.476-3.457c0.418-0.284,0.924-0.491,1.419-0.599
		c2.106-0.458,4.035,0.052,5.826,1.188c0.396,0.251,0.787,0.509,1.241,0.803C282.628,472.722,283.498,471.645,284.417,470.507z
		 M231.847,494.2c0.021-0.494,0.054-0.885,0.055-1.276c0.005-2.438,0.019-4.876-0.008-7.313c-0.008-0.739,0.144-1.401,0.463-2.068
		c2.348-4.897,4.672-9.807,7-14.714c0.178-0.376,0.324-0.768,0.508-1.204c-1.956,0-3.738,0-5.563,0
		c-1.656,4.059-3.294,8.069-5.043,12.354c-1.746-4.329-3.377-8.376-5.012-12.43c-1.048,0-1.965-0.016-2.881,0.005
		c-0.888,0.02-1.789-0.093-2.776,0.106c0.232,0.533,0.396,0.935,0.58,1.325c2.288,4.838,4.57,9.679,6.879,14.506
		c0.354,0.741,0.521,1.478,0.51,2.3c-0.034,2.397-0.015,4.796-0.009,7.193c0.001,0.387,0.037,0.774,0.061,1.216
		C228.368,494.2,230.033,494.2,231.847,494.2z M302.647,494.097c1.394,0.266,4.392,0.224,5.337-0.082c0-0.367,0-0.762,0-1.156
		c0-2.317,0.03-4.637-0.014-6.953c-0.02-0.989,0.207-1.862,0.636-2.751c2.291-4.748,4.538-9.517,6.798-14.28
		c0.182-0.382,0.337-0.775,0.55-1.27c-1.946,0-3.725,0-5.534,0c-1.788,4.015-3.262,8.127-5.116,12.328
		c-1.726-4.285-3.347-8.313-4.985-12.384c-1.013,0-1.927-0.001-2.84,0c-0.896,0.002-1.792,0.008-2.879,0.012
		c0.271,0.609,0.439,1.003,0.621,1.389c2.271,4.803,4.529,9.61,6.826,14.4c0.393,0.818,0.57,1.629,0.557,2.531
		c-0.035,2.317-0.015,4.636-0.009,6.954C302.595,493.264,302.629,493.692,302.647,494.097z M363.109,472.125
		c0,7.413,0,14.707,0,22.067c1.837,0,3.532,0,5.371,0c0-7.359,0-14.653,0-22.037c2.584-0.132,5.043,0.035,7.508-0.101
		c0-1.557,0-2.973,0-4.372c-1.644-0.263-19.458-0.181-20.338,0.103c-0.01,1.394-0.07,2.811,0.043,4.34
		C358.209,472.125,360.59,472.125,363.109,472.125z M178.032,489.733c-3.668,0-7.168,0-10.798,0c0-0.612,0-1.085,0-1.557
		c0-6.395,0.001-12.79-0.004-19.185c0-0.459-0.05-0.919-0.079-1.443c-0.979,0-1.816-0.002-2.652,0.001
		c-0.863,0.003-1.727,0.011-2.603,0.017c0,8.974,0,17.783,0,26.623c5.39,0,10.69,0,16.034,0c0.039-0.337,0.095-0.608,0.098-0.881
		C178.039,492.195,178.032,491.081,178.032,489.733z"/>
	<path fill-rule="evenodd" clip-rule="evenodd" fill="#FFFFFF" d="M638.685,323.527c0.611,0.157,1.221,0.315,1.832,0.471
		c7.081,1.795,11.83,6.168,13.263,13.324c2.37,11.836-5.815,19.821-14.546,21.064c-9.612,1.369-18.614-5.458-19.779-15.091
		c-1.137-9.406,4.979-17.686,14.382-19.478c0.343-0.065,0.673-0.192,1.009-0.29C636.125,323.527,637.406,323.527,638.685,323.527z
		 M636.745,356.204c8.35,0.013,15.134-6.707,15.176-15.031c0.041-8.382-6.744-15.231-15.102-15.243
		c-8.327-0.011-15.156,6.763-15.173,15.049C621.631,349.401,628.364,356.191,636.745,356.204z"/>
	<path fill-rule="evenodd" clip-rule="evenodd" fill="#FFFFFF" d="M215.706,352.671c-0.253,1.497-0.133,39.273,0.126,40.153
		c0.186-0.068,0.372-0.126,0.55-0.205c5.808-2.571,11.053-6.07,16.158-9.798c0.193-0.141,0.377-0.301,0.538-0.476
		c2.22-2.408,4.518-4.75,6.63-7.248c2.65-3.134,3.653-6.807,3.31-10.928c-0.453-5.437-3.45-8.924-8.266-10.919
		C228.5,350.661,222.089,351.327,215.706,352.671z"/>
	<path fill-rule="evenodd" clip-rule="evenodd" fill="#FFFFFF" d="M456.363,385.091c-0.255,3.496-0.229,7.292-0.857,10.976
		c-1.77,10.367-7.172,18.168-16.976,22.529c-3.959,1.761-8.166,2.139-12.452,1.784c-2.354-0.194-4.686-0.534-6.962-1.182
		c-6.674-1.896-11.57-5.953-14.726-12.129c-2.171-4.251-3.351-8.8-4.004-13.494c-0.76-5.455-0.748-10.926,0.012-16.378
		c0.978-7.013,3.474-13.369,8.477-18.542c4.493-4.646,10.035-7.118,16.436-7.791c3.336-0.351,6.631-0.162,9.882,0.623
		c4.927,1.19,9.082,3.713,12.419,7.516c4.463,5.087,7.146,11.065,8.261,17.692C456.32,379.357,456.206,382.113,456.363,385.091z"/>
	<path fill-rule="evenodd" clip-rule="evenodd" fill="#FFFFFF" d="M215.706,352.671c6.383-1.344,12.794-2.01,19.046,0.58
		c4.815,1.995,7.813,5.482,8.266,10.919c0.344,4.121-0.659,7.793-3.31,10.928c-2.112,2.499-4.41,4.84-6.63,7.248
		c-0.161,0.175-0.345,0.335-0.538,0.476c-5.105,3.728-10.351,7.227-16.158,9.798c-0.178,0.079-0.364,0.137-0.55,0.205
		C215.573,391.944,215.453,354.167,215.706,352.671z"/>
	<path fill-rule="evenodd" clip-rule="evenodd" fill="#FFFFFF" d="M109.77,385.611c3.054-9.101,6.082-18.128,9.11-27.155
		c0.074-0.001,0.147-0.002,0.221-0.003c3.232,9.001,6.465,18.002,9.752,27.159C122.418,385.611,116.199,385.611,109.77,385.611z"/>
	<path fill-rule="evenodd" clip-rule="evenodd" fill="#FFFFFF" d="M202.046,483.138c-2.093,0-4.064,0-6.143,0
		c1.004-3.76,1.983-7.427,2.963-11.095c0.067-0.009,0.135-0.018,0.202-0.026C200.052,475.688,201.034,479.359,202.046,483.138z"/>
	<path fill-rule="evenodd" clip-rule="evenodd" fill="#FFFFFF" d="M135.104,480.503c0-2.94,0-5.75,0-8.654
		c1.869,0.036,3.658-0.149,5.431,0.245c1.893,0.422,2.829,1.375,3.019,3.071c0.263,2.358-0.526,4.026-2.283,4.808
		c-0.254,0.112-0.521,0.203-0.79,0.271C138.716,480.689,136.935,480.453,135.104,480.503z"/>
	<path fill-rule="evenodd" clip-rule="evenodd" fill="#FFFFFF" d="M647.677,351.309c-1.626,0-2.905-0.027-4.182,0.013
		c-0.554,0.018-0.876-0.184-1.167-0.636c-1.104-1.715-2.229-3.416-3.368-5.106c-1.268-1.883-0.672-1.522-2.83-1.557
		c-1.271-0.02-2.543-0.003-3.951-0.003c0,2.43,0,4.728,0,7.111c-1.477,0-2.817,0-4.16,0c-0.274-0.814-0.385-18.473-0.116-20.508
		c0.242-0.037,0.506-0.111,0.77-0.111c3.399-0.001,6.8-0.022,10.198,0.022c3.44,0.046,5.979,1.952,6.792,5.008
		c0.787,2.965-0.39,5.958-2.989,7.595c-0.232,0.146-0.47,0.285-0.822,0.498C643.759,346.147,645.629,348.612,647.677,351.309z
		 M632.239,340.038c2.529,0,4.998,0.134,7.444-0.043c1.913-0.139,2.909-2.88,1.733-4.411c-0.183-0.239-0.476-0.444-0.761-0.541
		c-0.446-0.151-0.928-0.268-1.396-0.276c-2.111-0.04-4.225-0.04-6.337-0.043c-0.224,0-0.447,0.07-0.684,0.109
		C632.239,336.602,632.239,338.296,632.239,340.038z"/>
</g>
</svg>
