<?xml version="1.0" encoding="utf-8"?>
<!-- Generator: Adobe Illustrator 16.0.0, SVG Export Plug-In . SVG Version: 6.00 Build 0)  -->
<!DOCTYPE svg PUBLIC "-//W3C//DTD SVG 1.1//EN" "http://www.w3.org/Graphics/SVG/1.1/DTD/svg11.dtd">
<svg version="1.1" id="Ebene_1" xmlns="http://www.w3.org/2000/svg" xmlns:xlink="http://www.w3.org/1999/xlink" x="0px" y="0px"
	 width="611.982px" height="494.571px" viewBox="0.011 148.72 611.982 494.571"
	 enable-background="new 0.011 148.72 611.982 494.571" xml:space="preserve">
<title>fba</title>
<path fill="#FFFFFF" d="M611.946,345.161c0.108-1.467,0-2.989,0-4.218c0-28.069,0-56.139,0-84.208
	c0.037-1.463-0.116-2.925-0.457-4.349c-8.131-30.439-22.774-56.921-47.071-77.446c-19.96-16.829-42.876-26.221-69.282-26.221
	h-208.79c-93.673,0-187.349,0-281.029,0c-1.729,0-3.457,0-5.305,0v63.835c1.305,0.5,2.446,1.021,3.62,1.402
	c8.609,2.754,17.227,5.486,25.852,8.197l260.319,82.425c40.983,12.98,81.968,25.964,122.952,38.951
	c2.562,0.92,5.248,1.448,7.969,1.565c62.327,0.087,124.655,0.108,186.982,0.065C608.967,345.161,610.478,345.27,611.946,345.161z
	 M370.346,341.139l-167.415-53.073v246.404l-71.597,36.114v72.706h292.965v-141.26h-53.953V341.139z M389.316,360.402v123.931
	h222.358V360.402H389.316z"/>
</svg>
