<?xml version="1.0" encoding="utf-8"?>
<!-- Generator: Adobe Illustrator 16.0.0, SVG Export Plug-In . SVG Version: 6.00 Build 0)  -->
<!DOCTYPE svg PUBLIC "-//W3C//DTD SVG 1.1//EN" "http://www.w3.org/Graphics/SVG/1.1/DTD/svg11.dtd">
<svg version="1.1" id="Layer_2" xmlns="http://www.w3.org/2000/svg" xmlns:xlink="http://www.w3.org/1999/xlink" x="0px" y="0px"
	 width="567.154px" height="100.826px" viewBox="0 0 567.154 100.826" enable-background="new 0 0 567.154 100.826"
	 xml:space="preserve">
<g>
	<path fill="#FFFFFF" d="M161.567,35.195c1.66,1.149,2.906,2.396,3.737,3.736c0.894,1.598,1.437,3.386,1.629,5.364v44.17
		c0,2.684-0.495,4.773-1.485,6.275c-0.989,1.5-2.093,2.697-3.306,3.594c-1.405,1.02-3.002,1.725-4.79,2.105h-29.798V33.276h26.923
		C157.545,33.407,159.907,34.045,161.567,35.195z M163.676,44.105c-0.191-1.404-0.606-2.683-1.245-3.832
		c-0.512-0.958-1.31-1.836-2.396-2.635c-1.086-0.8-2.556-1.134-4.406-1.007l-25.008,0.096v60.649h25.391
		c1.341-0.254,2.555-0.701,3.641-1.34c0.896-0.512,1.757-1.277,2.587-2.301c0.83-1.021,1.311-2.426,1.438-4.215L163.676,44.105
		L163.676,44.105z M149.592,47.986c0.574,0.543,1.021,1.134,1.341,1.772c0.319,0.703,0.511,1.5,0.575,2.395v27.785
		c0.063,1.6-0.08,2.828-0.433,3.689c-0.352,0.863-0.781,1.484-1.293,1.867c-0.574,0.512-1.214,0.799-1.916,0.863h-5.749
		l-0.19-39.379h5.174C148.186,47.108,149.016,47.443,149.592,47.986z M148.441,52.153c-0.128-0.51-0.318-0.926-0.574-1.246
		c-0.574-0.702-1.564-0.894-2.971-0.575v32.959c0.574,0.191,1.117,0.256,1.629,0.191c0.447-0.063,0.847-0.254,1.197-0.574
		c0.352-0.318,0.591-0.926,0.719-1.82V52.153z"/>
	<path fill="#FFFFFF" d="M189.737,33.566v66.685h-18.588V33.566H189.737z M186.479,37.398h-12.264V96.61h12.264V37.398z"/>
	<path fill="#FFFFFF" d="M214.171,55.411v-2.777c0.063-1.277-0.225-2.045-0.862-2.301c-0.256-0.127-0.607-0.127-1.054,0
		c-0.513,0-0.879,0.112-1.104,0.336c-0.224,0.225-0.367,0.497-0.431,0.815c-0.129,0.318-0.129,0.701,0,1.148v3.641l14.755,9.582
		c1.852,1.021,3.273,2.107,4.264,3.258c0.991,1.152,1.678,2.236,2.061,3.26c0.447,1.148,0.671,2.361,0.671,3.641v14.658
		c-0.128,2.107-0.671,3.816-1.629,5.127s-2.044,2.314-3.258,3.018c-1.405,0.83-2.971,1.438-4.694,1.82h-19.354
		c-2.428-0.064-4.327-0.67-5.7-1.82c-1.373-1.148-2.379-2.363-3.019-3.641c-0.767-1.533-1.246-3.258-1.438-5.174V68.153
		l17.438,10.639v3.734c0,0.574,0.079,1.006,0.239,1.293c0.159,0.287,0.367,0.496,0.623,0.623c0.255,0.191,0.574,0.287,0.958,0.287
		c0.958-0.063,1.501-0.447,1.629-1.148c0.063-0.256,0.031-0.605-0.096-1.055v-4.408l-12.743-7.662
		c-2.236-1.215-3.913-2.51-5.03-3.883c-1.118-1.373-1.933-2.604-2.442-3.688c-0.575-1.277-0.862-2.555-0.862-3.832V43.34
		c0.127-2.428,0.702-4.312,1.725-5.652c1.021-1.342,2.172-2.332,3.449-2.971c1.469-0.702,3.098-1.117,4.887-1.245h17.15
		c2.938,0.128,5.205,0.671,6.803,1.629c1.597,0.958,2.812,2.044,3.642,3.257c0.895,1.406,1.469,2.971,1.725,4.695v24.432
		L214.171,55.411z M212.636,47.076c1.021,0.128,1.805,0.367,2.348,0.72c0.543,0.352,0.975,0.75,1.293,1.196
		c0.319,0.513,0.543,1.087,0.671,1.726v2.778l12.456,7.473l-0.191-16.383c0.063-1.66-0.305-3.018-1.103-4.071
		c-0.799-1.054-1.677-1.868-2.635-2.443c-1.15-0.702-2.46-1.149-3.929-1.342H202.96c-1.471,0.129-2.62,0.528-3.45,1.198
		c-0.83,0.671-1.469,1.356-1.916,2.06c-0.512,0.896-0.862,1.854-1.054,2.875v15.521c-0.064,1.277,0.19,2.395,0.767,3.354
		c0.574,0.957,1.213,1.787,1.916,2.49c0.767,0.83,1.693,1.564,2.779,2.203l15.713,10.156v6.229c0,1.213-0.256,2.156-0.768,2.826
		c-0.512,0.672-1.086,1.166-1.725,1.484c-0.703,0.385-1.533,0.641-2.491,0.768c-1.214-0.127-2.14-0.396-2.777-0.813
		c-0.64-0.414-1.118-0.877-1.438-1.391c-0.384-0.574-0.64-1.246-0.767-2.014V80.61l-11.21-6.707l-0.191,15.713
		c0.063,1.854,0.463,3.273,1.197,4.266c0.733,0.99,1.549,1.74,2.442,2.252c1.021,0.574,2.203,0.926,3.545,1.053h18.685
		c1.852-0.063,3.241-0.479,4.168-1.244c0.926-0.768,1.612-1.598,2.06-2.492c0.512-1.086,0.768-2.299,0.768-3.641V75.532
		c0.063-0.768-0.128-1.533-0.575-2.301c-0.447-0.766-0.958-1.436-1.532-2.012c-0.703-0.703-1.47-1.373-2.3-2.012l-17.055-11.02
		v-7.09c0.063-1.086,0.366-1.885,0.909-2.395c0.543-0.512,1.103-0.896,1.678-1.15C211.041,47.299,211.806,47.14,212.636,47.076z"/>
	<path fill="#FFFFFF" d="M273.574,58.669l-6.897,7.951l6.897,8.432v25.199h-17.726V81.663l-2.491-2.299v21.078H235.44V33.47h17.917
		v21.078l2.491-2.969V33.47h17.726V58.669z M270.508,37.301h-11.114l-0.096,16.002l-9.007,9.197l-0.384-25.583h-11.21v59.596h11.114
		V71.794l8.719,8.238v16.576h11.785V75.435l-7.568-8.814l7.761-9.006V37.301L270.508,37.301z"/>
	<path fill="#FFFFFF" d="M325.6,55.411v-2.777c0.064-1.277-0.223-2.045-0.86-2.301c-0.257-0.127-0.607-0.127-1.056,0
		c-0.512,0-0.879,0.112-1.102,0.336c-0.226,0.225-0.367,0.497-0.433,0.815c-0.129,0.318-0.129,0.701,0,1.148v3.641l14.757,9.582
		c1.852,1.021,3.272,2.107,4.264,3.258c0.991,1.152,1.676,2.236,2.059,3.26c0.447,1.148,0.673,2.361,0.673,3.641v14.658
		c-0.13,2.107-0.673,3.816-1.63,5.127c-0.959,1.311-2.045,2.314-3.258,3.018c-1.405,0.83-2.971,1.438-4.694,1.82h-19.354
		c-2.428-0.064-4.328-0.67-5.701-1.82c-1.373-1.148-2.379-2.363-3.018-3.641c-0.769-1.533-1.246-3.258-1.438-5.174V68.153
		l17.438,10.639v3.734c0,0.574,0.08,1.006,0.24,1.293c0.157,0.287,0.366,0.496,0.622,0.623c0.255,0.191,0.574,0.287,0.957,0.287
		c0.959-0.063,1.503-0.447,1.63-1.148c0.063-0.256,0.03-0.605-0.097-1.055v-4.408l-12.742-7.662c-2.235-1.215-3.914-2.51-5.03-3.883
		c-1.117-1.373-1.933-2.604-2.443-3.688c-0.574-1.277-0.861-2.555-0.861-3.832V43.34c0.127-2.428,0.701-4.312,1.726-5.652
		c1.021-1.342,2.172-2.332,3.449-2.971c1.469-0.702,3.098-1.117,4.887-1.245h17.149c2.938,0.128,5.205,0.671,6.804,1.629
		c1.596,0.958,2.811,2.044,3.641,3.257c0.896,1.406,1.469,2.971,1.726,4.695v24.432L325.6,55.411z M324.067,47.076
		c1.021,0.128,1.806,0.367,2.349,0.72c0.543,0.352,0.975,0.75,1.293,1.196c0.32,0.513,0.543,1.087,0.672,1.726v2.778l12.455,7.473
		l-0.191-16.383c0.063-1.66-0.305-3.018-1.102-4.071c-0.799-1.054-1.678-1.868-2.635-2.443c-1.15-0.702-2.461-1.149-3.931-1.342
		h-18.586c-1.471,0.129-2.621,0.528-3.451,1.198c-0.829,0.671-1.469,1.356-1.916,2.06c-0.512,0.896-0.86,1.854-1.053,2.875v15.521
		c-0.063,1.277,0.191,2.395,0.767,3.354c0.573,0.957,1.213,1.787,1.916,2.49c0.768,0.83,1.692,1.564,2.778,2.203l15.713,10.156
		v6.229c0,1.213-0.256,2.156-0.766,2.826c-0.512,0.672-1.086,1.166-1.725,1.484c-0.703,0.385-1.533,0.641-2.492,0.768
		c-1.213-0.127-2.14-0.396-2.777-0.813c-0.639-0.414-1.119-0.877-1.438-1.391c-0.386-0.574-0.642-1.246-0.769-2.014V80.61
		l-11.209-6.707l-0.19,15.713c0.063,1.854,0.463,3.273,1.196,4.266c0.734,0.99,1.549,1.74,2.443,2.252
		c1.021,0.574,2.203,0.926,3.545,1.053h18.684c1.853-0.063,3.24-0.479,4.168-1.244c0.927-0.768,1.611-1.598,2.06-2.492
		c0.512-1.086,0.768-2.299,0.768-3.641V75.532c0.063-0.768-0.129-1.533-0.576-2.301c-0.446-0.766-0.957-1.436-1.53-2.012
		c-0.703-0.703-1.472-1.373-2.302-2.012l-17.055-11.02v-7.09c0.064-1.086,0.367-1.885,0.91-2.395
		c0.543-0.512,1.102-0.896,1.678-1.15C322.471,47.299,323.238,47.14,324.067,47.076z"/>
	<path fill="#FFFFFF" d="M387.113,33.663v56.911c-0.064,2.236-0.527,4.012-1.39,5.318c-0.862,1.313-1.836,2.316-2.922,3.018
		c-1.215,0.77-2.619,1.313-4.217,1.631h-28.263V84.253h18.012v-3.162H356.07c-2.363-0.127-4.152-0.703-5.365-1.727
		c-1.215-1.02-2.076-2.172-2.588-3.447c-0.64-1.471-0.957-3.1-0.957-4.889V33.663h18.396v30.563h3.162V33.663H387.113z
		 M383.951,37.208h-11.593v26.157c-0.063,0.83-0.288,1.564-0.672,2.203c-0.319,0.574-0.813,1.086-1.483,1.533
		c-0.672,0.447-1.646,0.703-2.922,0.766c-0.959,0.064-1.789-0.029-2.492-0.285c-0.64-0.258-1.213-0.703-1.726-1.344
		c-0.512-0.639-0.799-1.658-0.86-3.064V37.208h-11.211v34.014c0.063,1.277,0.352,2.428,0.862,3.449
		c0.447,0.895,1.134,1.709,2.06,2.441c0.926,0.734,2.283,1.104,4.072,1.104h14.276v4.98c-0.129,0.83-0.416,1.564-0.863,2.203
		c-0.383,0.514-0.959,0.99-1.725,1.439c-0.768,0.447-1.789,0.672-3.066,0.672H353.77v9.484h24.433
		c1.086-0.129,2.045-0.445,2.875-0.957c0.701-0.447,1.354-1.117,1.963-2.014c0.607-0.895,0.91-2.107,0.91-3.643V37.208
		L383.951,37.208z"/>
	<path fill="#FFFFFF" d="M411.451,55.411v-2.777c0.063-1.277-0.226-2.045-0.863-2.301c-0.256-0.127-0.607-0.127-1.053,0
		c-0.513,0-0.879,0.112-1.104,0.336c-0.223,0.225-0.367,0.497-0.43,0.815c-0.129,0.318-0.129,0.701,0,1.148v3.641l14.754,9.582
		c1.852,1.021,3.273,2.107,4.264,3.258c0.991,1.152,1.679,2.236,2.062,3.26c0.447,1.148,0.67,2.361,0.67,3.641v14.658
		c-0.127,2.107-0.67,3.816-1.629,5.127c-0.957,1.311-2.043,2.314-3.258,3.018c-1.404,0.83-2.97,1.438-4.693,1.82h-19.355
		c-2.428-0.064-4.327-0.67-5.7-1.82c-1.373-1.148-2.379-2.363-3.019-3.641c-0.766-1.533-1.246-3.258-1.438-5.174V68.153
		l17.438,10.639v3.734c0,0.574,0.078,1.006,0.238,1.293s0.367,0.496,0.623,0.623c0.256,0.191,0.574,0.287,0.959,0.287
		c0.957-0.063,1.5-0.447,1.629-1.148c0.063-0.256,0.031-0.605-0.096-1.055v-4.408l-12.744-7.662
		c-2.236-1.215-3.912-2.51-5.029-3.883c-1.119-1.373-1.934-2.604-2.442-3.688c-0.576-1.277-0.863-2.555-0.863-3.832V43.34
		c0.127-2.428,0.703-4.312,1.725-5.652c1.022-1.341,2.172-2.332,3.449-2.971c1.469-0.702,3.098-1.117,4.887-1.245h17.15
		c2.938,0.128,5.205,0.671,6.803,1.629c1.599,0.958,2.812,2.044,3.642,3.257c0.895,1.406,1.469,2.971,1.725,4.695v24.432
		L411.451,55.411z M409.918,47.076c1.021,0.128,1.805,0.367,2.348,0.72c0.543,0.352,0.974,0.75,1.293,1.196
		c0.318,0.513,0.543,1.087,0.67,1.726v2.778l12.457,7.473l-0.192-16.383c0.063-1.66-0.304-3.018-1.103-4.071
		s-1.676-1.868-2.635-2.443c-1.15-0.702-2.459-1.149-3.928-1.342H400.24c-1.47,0.129-2.619,0.528-3.449,1.198
		c-0.83,0.671-1.469,1.356-1.916,2.06c-0.512,0.896-0.863,1.854-1.055,2.875v15.521c-0.064,1.277,0.19,2.395,0.768,3.354
		c0.574,0.957,1.213,1.787,1.916,2.49c0.766,0.83,1.693,1.564,2.779,2.203l15.713,10.156v6.229c0,1.213-0.256,2.156-0.769,2.826
		c-0.512,0.672-1.086,1.166-1.725,1.484c-0.703,0.385-1.533,0.641-2.49,0.768c-1.215-0.127-2.141-0.396-2.779-0.813
		c-0.639-0.414-1.116-0.877-1.438-1.391c-0.383-0.574-0.639-1.246-0.766-2.014V80.61l-11.211-6.707l-0.191,15.713
		c0.063,1.854,0.463,3.273,1.197,4.266c0.733,0.99,1.549,1.74,2.442,2.252c1.021,0.574,2.203,0.926,3.545,1.053h18.685
		c1.852-0.063,3.242-0.479,4.168-1.244c0.926-0.768,1.613-1.598,2.061-2.492c0.511-1.086,0.767-2.299,0.767-3.641V75.532
		c0.063-0.768-0.127-1.533-0.574-2.301c-0.447-0.766-0.959-1.436-1.533-2.012c-0.703-0.703-1.469-1.373-2.299-2.012l-17.055-11.02
		v-7.09c0.063-1.086,0.366-1.885,0.909-2.395c0.543-0.512,1.103-0.896,1.677-1.15C408.32,47.299,409.088,47.14,409.918,47.076z"/>
	<path fill="#FFFFFF" d="M468.076,33.853v17.439h-8.24v49.15h-19.354v-49.15h-7.856V33.471L468.076,33.853z M464.34,37.301h-28.266
		v10.156h8.049v49.536h11.688V47.745h8.527L464.34,37.301L464.34,37.301z"/>
	<path fill="#FFFFFF" d="M489.922,51.099v7.762h12.264v17.438H489.54v7.377h12.646v17.055l-31.139-0.189V33.471h31.521v17.629
		h-12.646V51.099z M486.184,62.405V47.554h12.646V37.398h-24.24v60.554h24.24V87.317h-12.838V72.753h13.028V62.405H486.184z"/>
	<path fill="#FFFFFF" d="M563.6,35.915c1.277,1.053,2.172,2.154,2.685,3.305c0.639,1.342,0.926,2.812,0.86,4.406v57.2H548.94V52.729
		c-0.063-0.703-0.317-1.148-0.766-1.342c-0.256-0.064-0.512-0.096-0.768-0.096c-0.384,0-0.687,0.096-0.91,0.287
		s-0.398,0.383-0.525,0.574c-0.192,0.256-0.289,0.512-0.289,0.768v47.713h-18.011V53.015c0-0.701-0.256-1.244-0.766-1.627
		c-0.256-0.191-0.513-0.32-0.769-0.385c-0.447,0-0.799,0.098-1.055,0.289c-0.256,0.189-0.447,0.414-0.574,0.67
		c-0.19,0.256-0.287,0.574-0.287,0.957v47.428h-17.438V33.565h22.323c1.404-0.128,2.636-0.018,3.688,0.335
		c1.055,0.353,1.965,0.783,2.732,1.294c0.829,0.575,1.596,1.246,2.299,2.012c0.383-0.701,0.86-1.261,1.438-1.677
		c0.574-0.415,1.148-0.75,1.726-1.006c0.639-0.256,1.309-0.479,2.012-0.671h15.043C560.469,34.172,562.324,34.86,563.6,35.915z
		 M563.793,43.147c-0.064-1.086-0.318-2.044-0.766-2.874c-0.386-0.703-1.039-1.356-1.966-1.965c-0.926-0.606-2.221-0.91-3.881-0.91
		h-13.125c-1.022,0.063-1.979,0.319-2.875,0.767c-0.768,0.385-1.549,0.959-2.348,1.726s-1.422,1.789-1.869,3.065
		c-0.512-1.213-1.117-2.268-1.82-3.162c-0.703-0.766-1.563-1.469-2.586-2.106c-1.022-0.64-2.365-0.927-4.024-0.862l-17.916,0.191
		v59.977h10.635V52.538c-0.064-0.896,0.096-1.694,0.479-2.397c0.32-0.639,0.849-1.213,1.582-1.725
		c0.734-0.512,1.836-0.768,3.306-0.768c0.768,0,1.502,0.191,2.205,0.575c0.51,0.319,1.006,0.878,1.483,1.677
		c0.479,0.799,0.719,1.963,0.719,3.497v43.594h11.308V52.534c0-0.766,0.19-1.5,0.574-2.204c0.317-0.574,0.829-1.102,1.532-1.58
		c0.701-0.479,1.756-0.719,3.162-0.719c0.767-0.063,1.5,0.032,2.203,0.287c0.574,0.256,1.103,0.703,1.58,1.342
		c0.479,0.639,0.719,1.661,0.719,3.065v44.266h11.689V43.147z"/>
</g>
<polygon fill="#FFFFFF" points="127.752,0 139.484,0 139.484,4.088 131.862,4.088 131.862,9.049 139.484,9.049 139.484,13.27 
	131.862,13.27 131.862,22.086 127.752,22.086 "/>
<path fill="#FFFFFF" d="M152.827,22.086h-3.996v-3.439h-7.742l-2.294,3.439h-4.707L149.572,0h3.255V22.086z M148.831,14.474V8.03
	l-4.729,6.444H148.831z"/>
<polygon fill="#FFFFFF" points="154.394,0 159.03,0 165.567,14.846 172.15,0 176.834,0 176.834,22.086 172.707,22.086 
	172.707,10.951 167.607,22.086 163.434,22.086 158.52,10.951 158.52,22.086 154.394,22.086 "/>
<polygon fill="#FFFFFF" points="253.77,0 258.407,0 264.943,14.846 271.527,0 276.211,0 276.211,22.086 272.084,22.086 
	272.084,10.951 266.983,22.086 262.811,22.086 257.896,10.951 257.896,22.086 253.77,22.086 "/>
<rect x="178.135" y="0" fill="#FFFFFF" width="4.271" height="22.086"/>
<polygon fill="#FFFFFF" points="183.582,0 187.851,0 187.851,18.059 193.417,18.059 193.417,22.086 183.582,22.086 "/>
<polygon fill="#FFFFFF" points="188.672,0 193.417,0 197.902,9.049 202.26,0 206.962,0 199.886,14.047 199.886,22.086 
	195.747,22.086 195.747,14.047 "/>
<path fill="#FFFFFF" stroke="#FFFFFF" stroke-width="0.3451" d="M230.233,16.383"/>
<path fill="#FFFFFF" d="M230.173,6.09c-1.875-3.572-5.621-6.01-9.938-6.01c-6.193,0-11.216,5.021-11.216,11.215
	c0,6.195,5.021,11.215,11.216,11.215c4.347,0,8.115-2.471,9.978-6.086l-5.082,0.041c-1.253,1.156-2.927,1.861-4.767,1.861
	c-3.884,0-7.03-3.147-7.03-7.031c0-3.885,3.146-7.031,7.03-7.031c1.813,0,3.467,0.686,4.712,1.813L230.173,6.09z"/>
<path fill="#FFFFFF" d="M241.27,22.57c-6.226,0-11.272-5.048-11.272-11.274c0-6.226,5.048-11.273,11.272-11.273
	c6.229,0,11.275,5.048,11.275,11.273C252.547,17.523,247.499,22.57,241.27,22.57z M248.448,11.295c0-3.938-3.194-7.133-7.134-7.133
	c-3.938,0-7.133,3.194-7.133,7.133c0,3.939,3.193,7.134,7.133,7.134S248.448,15.235,248.448,11.295z"/>
<path fill="#FFFFFF" d="M285.006,0.002c3.737,0.301,6.677,3.43,6.677,7.244s-2.938,6.943-6.677,7.243l-3.229-0.015v7.611h-4.141V0
	h4.141L285.006,0.002z M281.777,4.25v5.991l3.229-0.003c1.412-0.264,2.481-1.503,2.481-2.992c0-1.49-1.069-2.729-2.481-2.992
	L281.777,4.25z"/>
<path fill="#FFFFFF" d="M337.179,22.374h-4.099V0.19l5.694-0.008l3.229,0.002c3.737,0.3,6.677,3.429,6.677,7.244
	c0,3.115-1.963,5.775-4.719,6.807l4.778,8.137h-4.485l-6.697-11.441h-0.378V22.374L337.179,22.374z M342.006,10.42
	c1.412-0.265,2.481-1.504,2.481-2.992c0-1.49-1.069-2.729-2.481-2.993h-4.825v5.989L342.006,10.42z"/>
<path fill="#FFFFFF" d="M297.08,12.762l0.003,3.229c0.265,1.413,1.503,2.481,2.992,2.481c1.488,0,2.729-1.069,2.993-2.481
	l0.003-3.229l0.011-12.571h4.24v12.571l-0.005,3.229c-0.3,3.738-3.428,6.676-7.242,6.676s-6.942-2.938-7.243-6.676l0.015-3.229
	L292.84,0.191h4.256L297.08,12.762z"/>
<polygon fill="#FFFFFF" points="311.556,22.374 315.742,22.374 315.742,4.372 319.494,4.372 319.494,0.19 307.932,0.19 
	307.932,4.372 311.556,4.372 "/>
<polygon fill="#FFFFFF" points="332.004,22.374 320.507,22.374 320.507,0.19 332.004,0.19 332.004,4.25 324.628,4.25 324.628,9.518 
	332.004,9.518 332.004,13.66 324.628,13.66 324.628,18.275 332.004,18.275 "/>
<path fill="#FFFFFF" stroke="#FFFFFF" stroke-width="0.3451" d="M337.179,10.951"/>
<g>
	<g>
		<path fill="#FFFFFF" d="M2.986,89.351c0.005-4.535,2.627-8.455,6.445-10.318l0,0c0-1.922,0-3.965,0-6.156l0,0
			C3.805,69.729,0.002,63.712,0,56.808l0,0c0.002-6.903,3.806-12.922,9.432-16.066l0,0c0-13.819,0-25.575,0-27.795l0,0
			C9.434,5.913,15.133,0.213,22.166,0.213l0,0h68.333c7.033,0,12.732,5.701,12.733,12.733l0,0c0,2.22,0,13.978,0,27.795l0,0
			c5.626,3.144,9.431,9.163,9.433,16.066l0,0c-0.002,6.904-3.806,12.924-9.433,16.068l0,0c0,2.191,0,4.234,0,6.156l0,0
			c3.819,1.863,6.442,5.783,6.445,10.318l0,0c-0.001,6.338-5.136,11.473-11.477,11.475l0,0H65.347V98.31
			c-0.009-4.947-4.013-8.951-8.96-8.961l0,0v-2.516v-2.516c6.869,0.002,12.58,4.951,13.765,11.479l0,0h28.053
			c3.558-0.008,6.438-2.889,6.443-6.445l0,0c0.005-2.928-1.956-5.396-4.62-6.186l0,0l-1.042-0.307l-0.782-1.545v-0.602
			c-0.002-2.813-0.002-5.879-0.002-9.314l0,0v-0.561l0.68-1.449l0.854-0.381c4.657-2.092,7.903-6.766,7.901-12.201l0,0
			c0.002-5.41-3.213-10.062-7.833-12.168l0,0l-0.183-0.083l-1.419-0.938v-1.352c0-14.47,0-27.019,0-29.32l0,0
			C98.194,8.691,94.754,5.25,90.5,5.241l0,0H22.167c-4.254,0.008-7.695,3.45-7.703,7.704l0,0c0,2.302,0,14.851,0,29.32l0,0v1.352
			l-1.129,0.746l-0.291,0.192l-0.181,0.082c-4.621,2.107-7.835,6.76-7.833,12.168l0,0c-0.003,5.438,3.244,10.109,7.901,12.201l0,0
			l0.852,0.381l0.68,1.449v0.561c0,3.436,0,6.502,0,9.314l0,0v0.602l-0.784,1.545l-1.042,0.307c-2.665,0.787-4.625,3.258-4.62,6.186
			l0,0c0.005,3.557,2.886,6.439,6.445,6.445l0,0h28.051c1.187-6.527,6.896-11.477,13.767-11.479l0,0h0.105v2.516v2.516h-0.104
			c-4.948,0.01-8.951,4.014-8.961,8.961l0,0v2.516H14.465C8.126,100.823,2.988,95.688,2.986,89.351L2.986,89.351z"/>
	</g>
	<path fill="#FFFFFF" d="M11.948,91.655"/>
	<path fill="#FFFFFF" d="M16.611,38.308c0.001-10.448,8.471-18.916,18.918-18.917l0,0c10.448,0.001,18.917,8.469,18.917,18.917l0,0
		c-0.001,10.448-8.47,18.916-18.917,18.916l0,0C25.083,57.224,16.613,48.756,16.611,38.308L16.611,38.308z M19.757,38.308
		c0.015,8.712,7.062,15.757,15.772,15.773l0,0c8.711-0.016,15.759-7.062,15.773-15.773l0,0c-0.017-8.71-7.063-15.757-15.773-15.773
		l0,0C26.818,22.551,19.771,29.598,19.757,38.308L19.757,38.308z"/>
	<circle fill="#FFFFFF" cx="47.74" cy="38.362" r="4.402"/>
	<path fill="#FFFFFF" d="M58.22,38.308L58.22,38.308c0-10.448,8.469-18.916,18.917-18.917l0,0
		c10.447,0.001,18.916,8.469,18.917,18.917l0,0c-0.001,10.448-8.47,18.916-18.917,18.916l0,0
		C66.689,57.224,58.22,48.756,58.22,38.308L58.22,38.308z M77.137,54.081c8.71-0.016,15.757-7.061,15.771-15.772l0,0
		c-0.016-8.71-7.062-15.758-15.771-15.773l0,0c-8.71,0.016-15.759,7.063-15.774,15.773l0,0C61.38,47.02,68.427,54.065,77.137,54.081
		L77.137,54.081z"/>
	<circle fill="#FFFFFF" cx="64.927" cy="38.362" r="4.402"/>
</g>
</svg>
