<?xml version="1.0" encoding="utf-8"?>
<!-- Generator: Adobe Illustrator 16.0.0, SVG Export Plug-In . SVG Version: 6.00 Build 0)  -->
<!DOCTYPE svg PUBLIC "-//W3C//DTD SVG 1.1//EN" "http://www.w3.org/Graphics/SVG/1.1/DTD/svg11.dtd">
<svg version="1.1" id="Layer_1" xmlns="http://www.w3.org/2000/svg" xmlns:xlink="http://www.w3.org/1999/xlink" x="0px" y="0px"
	 width="612.068px" height="158.921px" viewBox="0.004 316.463 612.068 158.921"
	 enable-background="new 0.004 316.463 612.068 158.921" xml:space="preserve">
<title>retropie</title>
<path fill="#FFFFFF" d="M58.314,475.377c-8.752,0.109-17.434-1.587-25.502-4.981c-7.797-3.502-13.121-8.573-15.396-14.691
	c-1.028-2.653-8.176-21.839-11.839-31.603l0.541,0.108l0.686,0.09c0.803,0.039,1.591,0.223,2.328,0.541
	c0.938,0.506,1.228,1.264,1.661,2.581l1.209,3.61c0.271,0.812,1.209,1.118,3.356,1.118h2.347c0.605-0.016,1.212,0.039,1.805,0.163
	c1.099,0.18,2.127,0.654,2.979,1.371c0.348,0.371,0.596,0.825,0.722,1.317c0.118,0.359,0.263,0.71,0.433,1.047
	c1.284,1.96,3.554,3.039,5.884,2.798c0.493,0.027,0.987,0.027,1.48,0c0.649,0,1.3-0.234,1.913-0.361
	c0.763-0.2,1.542-0.333,2.328-0.396h0.668c1.022-0.004,2.042,0.123,3.032,0.379c1.1,0.265,2.124,0.776,2.996,1.498l0.523,0.487
	c0.557,0.593,1.209,1.087,1.931,1.462c1.284,0.615,2.691,0.931,4.115,0.92c1.526-0.003,3.035-0.335,4.422-0.975l0.253-0.126
	c1.104-0.576,2.282-1.002,3.501-1.264c0.745-0.129,1.5-0.195,2.256-0.198c0.523,0,1.065,0,1.606,0
	c1.247,0.213,2.461,0.59,3.609,1.119c1.333,0.641,2.758,1.067,4.224,1.264c0.343,0.018,0.687,0.018,1.028,0
	c1.131,0.002,2.254-0.188,3.321-0.56c1.125-0.463,2.135-1.165,2.96-2.058l0.234-0.198c1.691-1.334,3.804-2.02,5.956-1.932h0.758
	c0.881,0.073,1.755,0.206,2.617,0.397c1.086,0.239,2.191,0.378,3.303,0.415c0.802,0.008,1.599-0.108,2.364-0.344
	c1.465-0.344,2.689-1.342,3.321-2.707l0,0c0.123-0.948,0.632-1.804,1.408-2.364c0.965-0.639,2.076-1.023,3.23-1.119
	c0.3-0.02,0.602-0.02,0.902,0h1.083h1.173h0.758h0.163c0.758,0,2.165-0.144,2.563-1.317l0.686-2.039
	c0.108-0.307,0.198-0.65,0.289-0.975c0.165-0.837,0.504-1.63,0.992-2.328c0.764-0.717,1.753-1.145,2.798-1.21h0.198
	c0.425-0.036,0.847-0.096,1.264-0.18l-12.002,31.53c-2.292,6.118-7.707,11.226-15.648,14.745
	C75.939,473.817,67.16,475.507,58.314,475.377"/>
<path fill="#FFFFFF" d="M48.731,445.958c-2.383,0.089-4.688-0.858-6.317-2.6c-1.28-1.344-3.021-2.155-4.873-2.273
	c-2.581-0.271-4.891,0.83-7.436,0.83c-2.402,0.175-4.715-0.947-6.064-2.942c-0.451-0.83-0.451-1.805-1.155-2.49
	c-0.965-0.852-2.182-1.364-3.465-1.462c-2.419-0.307-4.783,0.469-7.021-0.957c-0.921-0.569-1.572-1.487-1.806-2.544
	c-0.144-0.56-1.083-3.827-1.227-4.513c-0.181-1.011-3.285-0.325-4.332-0.92c-0.822-0.694-1.419-1.618-1.715-2.653
	c-0.539-1.094-0.975-2.236-1.299-3.411c1.164-0.463,2.374-0.802,3.609-1.011c0,0-0.596-0.162-1.643-0.523
	c-1.024-0.398-1.909-1.089-2.545-1.985c-0.36-0.523-1.805-3.05-1.354-4.296c0.649-0.83,3.971-0.74,4.711-1.354
	c-0.163-0.217-2.021-1.588-2.238-1.805c-0.677-1.289-0.601-2.844,0.198-4.061c0.776-0.921,4.17-0.451,5.415-1.155
	c0.469-0.271-1.66-0.145-1.245-0.505c0.415-0.361,0.288-1.949,0.288-2.672c0.343-2.671,4.837-1.805,6.552-2.508
	c0.506-0.199,0.993,0.234,1.426-0.127c0.434-0.361,0.234-0.992,0.451-1.354c1.097-1.15,2.461-2.012,3.971-2.509
	c1.101-0.343,1.101,0.361,2.202,0c0.558-0.15,1.084-0.401,1.552-0.74c0.379-0.289,0.56-0.848,0.993-1.155
	c1.023-0.749,2.191-1.277,3.429-1.552c1.272-0.183,2.561-0.237,3.845-0.163c0.902,0,1.407-1.029,2.273-1.335
	c1.033-0.517,2.153-0.835,3.304-0.938c1.192,0.203,2.408,0.233,3.609,0.09c0.938-0.271,1.805-0.831,2.707-1.029
	c2.184-0.433,4.35,0.234,6.533-0.145c0.957-0.163,1.805-0.596,2.798-0.722c1.157-0.159,2.334-0.091,3.465,0.198
	c2.274,0.614,4.386-0.289,6.643-0.252c1.678,0,3.14,0.74,4.782,0.902c1.998-0.103,4.001-0.06,5.992,0.126
	c0.921,0.216,1.66,0.758,2.563,0.992c1.144,0.129,2.299,0.086,3.43-0.126c1.051,0.185,2.063,0.545,2.996,1.065
	c1.173,0.487,1.805,0.957,2.941,1.317c1.138,0.361,1.444-0.199,2.762,0c1.644,0.28,3.197,0.948,4.53,1.949
	c0.379,0.343,0.523,0.866,0.956,1.119c0.459,0.267,0.95,0.473,1.462,0.613c0.866,0.271,0.199-0.523,1.083-0.379
	c1.608,0.461,3.111,1.234,4.422,2.274c0.438,0.38,0.72,0.906,0.794,1.479c0,0.542,0.542,0.687,1.029,0.596
	c0.219-0.055,0.448-0.055,0.668,0c1.064,0.344,3.609-0.197,4.782,0.759c0.776,0.686,1.426,0.704,1.57,1.805
	c0,0.523,0.271,3.032,0.668,2.978c1.047,0.47,3.032,0,3.971,1.191c0.498,0.457,0.7,1.152,0.523,1.805
	c-0.392,1.172-0.658,2.383-0.794,3.609c0.992,0.74,2.563,0.506,2.995,1.607c0.326,1.582,0.016,3.229-0.866,4.584
	c-0.507,0.592-0.954,1.232-1.335,1.913c0.523,0.704,0.505,0.866,0.469,1.372c-0.224,1.326-0.649,2.61-1.263,3.808
	c-0.813,2.635-3.898,2.094-5.884,2.779c-0.356,2.271-1.006,4.484-1.932,6.588c-1.624,2.075-4.313,1.913-6.605,1.805
	c-1.175-0.049-2.345,0.161-3.43,0.613c-0.51,0.204-0.976,0.504-1.371,0.885c-0.44,0.512-0.728,1.138-0.83,1.805
	c-0.919,2.18-3.05,3.601-5.415,3.609c-1.774,0.002-3.54-0.235-5.252-0.703c-1.762-0.313-3.574-0.176-5.27,0.396
	c-0.795,0.294-1.521,0.748-2.13,1.336c-0.556,0.596-1.159,1.146-1.805,1.643c-1.488,0.961-3.229,1.457-5,1.426
	c-1.806,0.007-3.581-0.467-5.144-1.372c-1.562-0.843-3.315-1.266-5.09-1.228c-1.776-0.043-3.533,0.387-5.09,1.246
	C52.296,445.498,50.529,445.965,48.731,445.958"/>
<path fill="#FFFFFF" d="M48.531,440.2c-2.379,0.101-4.701-0.742-6.461-2.347c-1.384-1.244-3.158-1.965-5.018-2.039
	c-2.635-0.234-5.018,0.776-7.616,0.776c-2.388,0.174-4.707-0.847-6.19-2.726c-0.47-0.758-0.47-1.66-1.191-2.274
	c-1.045-0.791-2.301-1.256-3.609-1.335c-2.455-0.271-4.892,0.433-7.22-0.849c-0.901-0.479-1.557-1.319-1.805-2.31
	c-0.117-0.475-0.117-0.97,0-1.444c0.126-0.469,0.397-0.885,0.181-1.372c-0.289-0.812-1.534-1.245-2.383-1.245
	c-1.151-0.063-2.285-0.313-3.356-0.739c-0.996-0.41-1.688-1.331-1.805-2.4c0.084-1.104,0.611-2.126,1.462-2.834
	c0.775-0.866,0.271-1.462-0.776-1.805c-1.146-0.156-2.129-0.894-2.599-1.949c-0.232-1.125,0.247-2.277,1.209-2.906
	c0.758-0.631,1.931-0.992,2.418-1.805c0.163-0.289-0.83-0.74-1.047-0.992c-0.678-0.863-0.567-2.105,0.253-2.834
	c0.844-0.811,1.862-1.416,2.979-1.769c0.508-0.194,0.987-0.455,1.426-0.776c0.56-0.415,0.145-0.469,0-1.064
	c-0.487-2.581,3.609-3.123,5.414-3.736c0.532-0.173,1.037-0.422,1.498-0.74c0.253-0.198,0.234-0.902,0.47-1.227
	c0.725-0.819,1.703-1.373,2.779-1.57c1.137-0.307,2.328-0.361,3.465-0.686c0.562-0.137,1.098-0.362,1.589-0.668
	c0.379-0.252,0.559-0.776,0.992-1.047c2.202-1.39,5.054-0.794,7.454-1.606c0.866-0.289,1.443-0.938,2.328-1.209
	c1.222-0.366,2.498-0.519,3.772-0.451c1.135,0.064,2.272-0.045,3.375-0.325c0.956-0.253,1.805-0.758,2.779-0.938
	c2.22-0.379,4.439,0.216,6.678-0.126c0.975-0.145,1.805-0.542,2.869-0.65c1.205-0.147,2.426-0.086,3.61,0.181
	c2.328,0.56,4.494-0.253,6.786-0.235c1.805,0,3.212,0.686,4.909,0.831c2.039-0.1,4.083-0.063,6.118,0.108
	c0.938,0.181,1.715,0.686,2.635,0.903c1.145,0.246,2.314,0.349,3.483,0.307c1.064-0.04,2.128,0.076,3.158,0.343
	c1.119,0.307,1.806,1.065,2.924,1.39c2.4,0.722,5.415,0.145,7.473,1.805c0.396,0.307,0.541,0.776,0.992,1.01
	c0.471,0.243,0.967,0.43,1.48,0.56c0.884,0.235,1.805,0.307,2.707,0.505c1.054,0.175,2.054,0.588,2.924,1.209
	c0.442,0.326,0.74,0.812,0.83,1.354c0,0.487,0.596,0.668,1.047,0.866c1.529,0.438,3.03,0.968,4.494,1.589
	c0.951,0.431,1.529,1.413,1.443,2.454c-0.09,0.415-0.433,0.577,0,0.884c0.477,0.371,1.006,0.67,1.57,0.885
	c1.679,0.65,4.801,2.13,3.411,4.296c-0.269,0.413-0.65,0.739-1.101,0.938c-0.307,0.145,0,0.434,0.234,0.613
	c0.776,0.795,1.913,1.155,2.671,1.985c0.803,0.729,1.018,1.905,0.523,2.87c-0.613,1.101-1.805,1.209-2.833,1.678
	c-1.029,0.47-0.397,1.336,0.198,1.949c0.878,0.781,1.247,1.984,0.957,3.123c-0.831,2.4-3.736,2.003-5.758,2.617
	c-0.956,0.288-2.094,0.992-1.624,2.075c0.509,1.111,0.318,2.419-0.487,3.339c-1.643,1.896-4.404,1.805-6.75,1.679
	c-1.198-0.042-2.394,0.147-3.52,0.56c-0.508,0.178-0.979,0.447-1.39,0.794c-0.433,0.428-0.728,0.975-0.849,1.57
	c-0.74,2.184-3.285,3.177-5.541,3.356c-1.824,0.021-3.644-0.191-5.414-0.631c-1.81-0.282-3.659-0.159-5.415,0.36
	c-0.818,0.237-1.584,0.63-2.256,1.155c-0.555,0.553-1.159,1.055-1.805,1.498c-1.553,0.89-3.318,1.339-5.107,1.3
	c-1.831,0.01-3.638-0.417-5.271-1.246c-1.626-0.777-3.413-1.161-5.216-1.118c-1.799-0.046-3.582,0.345-5.198,1.137
	c-1.639,0.829-3.451,1.256-5.288,1.245"/>
<path fill="#FFFFFF" d="M74.377,427.494c-1.645,0.017-3.278-0.271-4.819-0.848c-1.587-0.519-2.942-1.579-3.826-2.996l-0.181-0.325
	c-0.273-0.417-0.406-0.91-0.379-1.408v-1.353l-0.198-2.203l1.624,1.426c0.487,0.414,1.021,0.771,1.589,1.065
	c1.893,0.943,3.984,1.42,6.1,1.39c2.012,0.018,4.002-0.408,5.83-1.245c0.65-0.317,1.258-0.718,1.805-1.191l1.643-1.426l-0.126,2.185
	c0.022,0.239,0.022,0.481,0,0.722c0,0.144,0,0.252,0,0.595c-0.251,1.835-1.422,3.415-3.104,4.188
	c-1.819,0.957-3.847,1.447-5.902,1.426"/>
<path fill="#FFFFFF" d="M74.323,422.116c-2.065,0.024-4.114-0.388-6.01-1.21c-2.437-1.119-3.718-2.833-3.501-4.746
	c0.451-1.902,1.894-3.412,3.771-3.953c1.818-0.732,3.762-1.1,5.722-1.082c1.967-0.02,3.919,0.355,5.739,1.101
	c0.192,0.071,0.379,0.156,0.56,0.253c1.804,0.652,3.064,2.294,3.23,4.205c0,1.805-1.39,3.429-3.79,4.439
	c-1.818,0.73-3.762,1.099-5.722,1.083"/>
<path fill="#FFFFFF" d="M92.859,418.055c-1.646,0.002-3.277-0.291-4.819-0.866c-1.583-0.526-2.935-1.585-3.826-2.995
	c-0.051-0.113-0.111-0.223-0.181-0.326c-0.273-0.416-0.406-0.909-0.379-1.407l-0.18-3.609l1.642,1.426
	c0.482,0.426,1.016,0.79,1.589,1.083c1.896,0.936,3.985,1.411,6.1,1.39c2.012,0.015,4.001-0.409,5.83-1.245
	c0.65-0.317,1.257-0.718,1.805-1.191l1.624-1.426l-0.107,2.166c0.014,0.246,0.014,0.493,0,0.74c0,0.144,0,0.252,0,0.576
	c-0.247,1.832-1.411,3.41-3.087,4.188c-1.815,0.965-3.846,1.456-5.901,1.426"/>
<path fill="#FFFFFF" d="M92.804,412.695c-2.067,0.019-4.115-0.399-6.01-1.229c-2.437-1.064-3.772-2.869-3.501-4.674
	c0.419-1.932,1.858-3.481,3.754-4.043c3.686-1.469,7.793-1.469,11.479,0c0.193,0.074,0.381,0.166,0.56,0.271
	c1.804,0.652,3.064,2.293,3.23,4.205c-0.246,2.107-1.745,3.855-3.79,4.422c-1.815,0.742-3.76,1.117-5.722,1.101"/>
<path fill="#FFFFFF" d="M58.062,405.422c-2.112,0-5.739-0.831-5.866-3.971c-0.234-6.155-2.833-37.054-3.411-44.002h18.698
	c-1.029,13.139-3.375,43.316-3.609,44.507c-0.285,1.123-1.061,2.058-2.112,2.545c-1.163,0.583-2.452,0.874-3.754,0.849"/>
<path fill="#FFFFFF" d="M73.728,354.345c-8.741,8.483-22.704,8.274-31.188-0.466c-8.483-8.741-8.274-22.704,0.466-31.187
	c8.663-8.408,22.476-8.289,30.992,0.267c8.613,8.718,8.533,22.768-0.181,31.386"/>
<path fill="#FFFFFF" d="M70.785,324.384c3.609,3.917,4.024,8.573,2.256,9.53c-1.769,0.957-5.035-0.993-8.085-3.61
	c-3.051-2.617-4.909-5.884-3.61-8.14c1.3-2.256,5.938-1.697,9.476,2.22"/>
<path fill="#FFFFFF" d="M162.778,445.958h-11.948v-93.039h31.693c7.655-0.155,15.063,2.718,20.611,7.995
	c5.539,5.031,8.638,12.208,8.5,19.691c0.07,6.299-2.17,12.405-6.299,17.164c-4.057,4.853-9.635,8.192-15.828,9.476l-0.253,0.379
	l26.116,37.901v0.506h-14.168l-25.178-37.757h-13.247V445.958z M162.778,364.361v32.74h19.239c4.58,0.104,9.016-1.602,12.346-4.747
	c3.305-3.001,5.147-7.287,5.053-11.75c-0.078-9.051-7.479-16.324-16.529-16.245c-0.031,0-0.062,0-0.093,0.001H162.778z"/>
<path fill="#FFFFFF" d="M251.142,448.033c-8.731,0.263-17.157-3.233-23.138-9.602c-6.106-6.591-9.352-15.333-9.024-24.311
	c-0.292-8.914,2.877-17.594,8.844-24.222c5.745-6.401,14.018-9.947,22.615-9.692c9.433,0,16.947,3.056,22.542,9.169
	c5.595,6.112,8.387,14.667,8.374,25.665l-0.126,1.299h-50.103c-0.06,5.665,2.195,11.109,6.245,15.071
	c3.801,3.752,8.954,5.814,14.294,5.721c7.616,0,13.591-3.813,17.922-11.442l10.667,5.198c-2.71,5.237-6.829,9.613-11.894,12.634
	C263.145,446.578,257.187,448.14,251.142,448.033z M232.029,406.521h36.53c-0.272-4.232-2.222-8.182-5.415-10.973
	c-3.651-3.045-8.318-4.599-13.066-4.35c-4.252-0.085-8.387,1.392-11.623,4.151c-3.311,2.887-5.57,6.791-6.426,11.1V406.521z"/>
<path fill="#FFFFFF" d="M315.466,447.005c-4.775,0.155-9.422-1.568-12.94-4.801c-3.546-3.534-5.45-8.391-5.252-13.393v-35.609
	h-11.172v-10.829h11.172v-19.583h11.947v19.492h15.648v10.829h-15.594v31.729c0,4.235,0.824,7.117,2.473,8.646
	c1.499,1.455,3.506,2.271,5.595,2.274c0.937,0.001,1.869-0.108,2.779-0.325c0.873-0.203,1.725-0.487,2.545-0.849l3.772,10.648
	C322.913,446.463,319.199,447.062,315.466,447.005z"/>
<path fill="#FFFFFF" d="M348.205,445.958h-11.947v-63.675h11.424v10.396h0.523c1.437-3.643,4.072-6.686,7.473-8.627
	c3.283-2.244,7.143-3.497,11.117-3.61c3.018-0.088,6.021,0.44,8.826,1.552l-3.61,11.569c-2.265-0.73-4.644-1.042-7.021-0.92
	c-4.525-0.004-8.826,1.975-11.768,5.415c-3.226,3.413-5.016,7.937-4.999,12.634L348.205,445.958z"/>
<path fill="#FFFFFF" d="M375.892,414.121c-0.302-9.006,3.021-17.757,9.223-24.293c6.126-6.354,14.639-9.845,23.463-9.62
	c8.833-0.277,17.366,3.222,23.463,9.62c6.281,6.497,9.66,15.261,9.367,24.293c0.325,9.042-3.059,17.824-9.367,24.311
	c-6.099,6.394-14.632,9.886-23.463,9.602c-8.821,0.232-17.335-3.252-23.463-9.602C378.909,431.89,375.588,423.132,375.892,414.121z
	 M387.84,414.121c-0.274,6.116,1.872,12.095,5.974,16.64c7.754,8.184,20.674,8.532,28.857,0.778
	c0.267-0.252,0.525-0.512,0.778-0.778c4.102-4.545,6.248-10.523,5.974-16.64c0.255-6.07-1.891-11.998-5.974-16.496
	c-7.535-8.184-20.277-8.71-28.461-1.175c-0.407,0.375-0.8,0.767-1.175,1.175C389.731,402.123,387.584,408.051,387.84,414.121z"/>
<path fill="#FFFFFF" d="M484.778,448.033c-4.443,0.054-8.834-0.968-12.797-2.978c-3.626-1.791-6.7-4.528-8.897-7.924h-0.523
	l0.523,8.826v28.064h-11.876v-91.739h11.425v8.844h0.523c2.197-3.395,5.271-6.132,8.897-7.923
	c11.601-5.815,25.671-2.979,34.111,6.876c5.96,6.572,9.188,15.17,9.024,24.041c0.2,8.876-3.032,17.487-9.024,24.04
	C500.894,444.516,493.032,448.145,484.778,448.033z M482.828,437.204c5.538,0.085,10.828-2.296,14.438-6.497
	c4.008-4.543,6.104-10.461,5.848-16.514c0.224-6.043-1.868-11.943-5.848-16.497c-7.14-8.004-19.415-8.705-27.419-1.566
	c-0.552,0.492-1.075,1.014-1.566,1.566c-3.904,4.589-5.946,10.476-5.722,16.497c-0.241,6.066,1.8,12.004,5.722,16.64
	c3.697,4.122,9.011,6.423,14.547,6.299V437.204z"/>
<path fill="#FFFFFF" d="M540.799,360.318c-0.012,4.665-3.803,8.438-8.467,8.426c-4.665-0.011-8.438-3.802-8.426-8.467
	c0.005-2.224,0.887-4.355,2.454-5.932c3.288-3.31,8.636-3.327,11.945-0.039C539.906,355.896,540.805,358.062,540.799,360.318z
	 M538.326,382.283v63.675h-11.948v-63.675H538.326z"/>
<path fill="#FFFFFF" d="M581.86,448.033c-8.733,0.266-17.159-3.231-23.139-9.602c-6.106-6.591-9.352-15.333-9.023-24.311
	c-0.293-8.914,2.876-17.594,8.843-24.222c5.745-6.401,14.018-9.947,22.615-9.692c9.445,0,16.959,3.056,22.542,9.169
	c5.583,6.112,8.374,14.667,8.374,25.665l-0.126,1.299h-50.102c-0.061,5.665,2.195,11.109,6.244,15.071
	c3.801,3.752,8.954,5.814,14.294,5.721c7.617,0,13.591-3.813,17.923-11.442l10.666,5.198c-2.71,5.237-6.829,9.613-11.894,12.634
	C593.862,446.578,587.904,448.14,581.86,448.033z M562.746,406.521h36.457c-0.272-4.232-2.221-8.182-5.414-10.973
	c-3.652-3.045-8.319-4.599-13.067-4.35c-4.252-0.085-8.387,1.392-11.623,4.151c-3.284,2.898-5.518,6.8-6.353,11.1V406.521z"/>
</svg>
