<?xml version="1.0" encoding="utf-8"?>
<!-- Generator: Adobe Illustrator 16.0.0, SVG Export Plug-In . SVG Version: 6.00 Build 0)  -->
<!DOCTYPE svg PUBLIC "-//W3C//DTD SVG 1.1//EN" "http://www.w3.org/Graphics/SVG/1.1/DTD/svg11.dtd">
<svg version="1.1" id="Layer_1" xmlns="http://www.w3.org/2000/svg" xmlns:xlink="http://www.w3.org/1999/xlink" x="0px" y="0px"
	 width="612.011px" height="166.398px" viewBox="-0.011 312.824 612.011 166.398"
	 enable-background="new -0.011 312.824 612.011 166.398" xml:space="preserve">
<title>scummvm</title>
<path fill="#FFFFFF" d="M-0.011,434.513c0.177-0.252,0.316-0.527,0.415-0.818c0.587-2.865,2.107-5.25,3.922-7.44
	c2.058-2.488,4.221-4.89,6.334-7.328c0.437-0.504,0.891-0.985,1.305-1.5c0.681-0.752,0.803-1.854,0.305-2.738
	c-0.563-1.143-1.258-2.215-2.068-3.197c-3.822-4.226-5.366-9.402-6.212-14.824c-0.813-4.95-0.587-10.015,0.663-14.874
	c2.047-7.854,6.776-13.696,13.591-17.938c4.849-2.97,10.291-4.836,15.942-5.465c9.269-1.224,18.694,0.181,27.203,4.055
	c4.226,1.949,8.256,4.295,12.036,7.008c1.331,0.954,2.573,2.026,3.712,3.203c3.208,3.319,4.536,7.302,4.21,11.871
	c-0.078,1.134-0.232,2.268-0.371,3.596c0.486-0.112,0.964-0.262,1.427-0.448c1.169-0.527,2.29-1.153,3.353-1.87
	c3.689-2.766,7.871-4.364,12.346-5.255c8.884-1.77,17.701-1.504,26.313,1.411c3.007,0.944,5.805,2.455,8.242,4.453
	c0.375,0.311,0.769,0.599,1.178,0.863c1.239,0.807,1.964,0.835,3.131-0.116c1.03-0.837,1.997-1.748,2.894-2.727
	c1.096-1.169,2.545-1.947,4.126-2.213c3.702-0.677,7.46-1.009,11.224-0.99c3.446-0.039,6.903,0.05,10.344,0.26
	c1.41,0.084,2.793,0.423,4.082,1.001c2.661,1.228,5.039,1.007,7.313-0.802c1.659-1.339,3.662-1.87,5.759-2.157
	c6.447-0.89,12.976-1.046,19.459-0.465c2.146,0.194,4.182,0.708,5.919,2.085c1.836,1.455,3.872,1.66,6.146,1.2
	c5.244-1.007,10.565-0.968,15.87-0.808c1.328,0.091,2.635,0.389,3.871,0.885c2.623,1,5.495,1.144,8.203,0.409
	c4.149-1.106,8.153-0.26,12.092,1.106c0.253,0.085,0.497,0.192,0.73,0.321c2.284,1.289,4.553,1.106,6.854,0
	c5.315-2.578,10.975-2.849,16.728-2.384c2.958,0.226,5.876,0.834,8.679,1.809c1.272,0.493,2.505,1.081,3.689,1.759
	c0.857,0.454,1.659,1.018,2.483,1.532c1.292,0.906,3.049,0.745,4.154-0.382c0.629-0.486,1.229-1.009,1.797-1.565
	c1.488-1.593,3.369-2.367,5.449-2.815c3.922-0.852,7.898-0.913,11.881-0.874c0.886,0,1.771,0.066,2.655,0.05
	c2.526-0.075,5.044,0.34,7.412,1.223c2.164,0.853,4.549,0.963,6.782,0.315c4.303-1.278,8.402-0.393,12.468,1.012
	c0.835,0.293,1.659,0.625,2.483,0.935c1.132,0.422,2.382,0.397,3.496-0.072c0.38-0.133,0.749-0.294,1.106-0.481
	c2.106-1.11,4.393-1.838,6.754-2.151c0.431-0.066,0.852-0.177,1.377-0.293c-0.282-0.514-0.498-0.94-0.741-1.355
	c-6.387-10.764-12.776-21.528-19.167-32.292c-2.008-3.386-2.058-6.798,0.05-10.15c1.277-2.065,3.362-3.5,5.748-3.955
	c7.231-1.527,14.461-3.027,21.688-4.502c2.251-0.465,4.497-0.952,6.754-1.383c3.984-0.841,8.045,1.056,9.957,4.652
	c2.583,4.53,5.122,9.094,7.677,13.641l21.457,38.167c0.21,0.371,0.448,0.735,0.758,1.239c0.112-0.286,0.205-0.58,0.276-0.879
	c0.737-5.343,1.475-10.69,2.213-16.041c0.833-6.088,1.672-12.173,2.517-18.254s1.688-12.206,2.533-18.375
	c0.31-2.212,0.554-4.48,0.946-6.699c0.563-3.901,3.568-7,7.45-7.683c5.327-1.106,10.659-2.152,15.992-3.225l8.457-1.688
	c5.305-1.062,9.177,0.979,11.296,5.963c0.078,0.141,0.169,0.273,0.271,0.398l0.835-0.592c2.322-1.755,5.217-2.578,8.115-2.307
	c5.193,0.481,10.388,1.023,15.582,1.543c1.98,0.193,3.955,0.409,5.936,0.608c5.598,0.47,10.295,4.413,11.727,9.846
	c2.483,9.083,4.917,18.177,7.367,27.265c4.271,15.835,8.537,31.669,12.8,47.504c0.078,0.293,0.183,0.586,0.36,1.156
	c0.354-0.604,0.613-1.018,0.852-1.449l21.08-38.521c5.436-9.927,10.871-19.858,16.307-29.792c2.144-4.187,6.312-6.956,11.002-7.307
	c1.781-0.182,3.618,0.089,5.421,0.238c4.721,0.369,9.435,0.782,14.145,1.239c1.37,0.069,2.731,0.254,4.071,0.553
	c4.425,1.189,7.263,4.043,8.563,8.419c0.199,0.804,0.354,1.618,0.464,2.439v1.327c-0.083,0.47-0.204,0.94-0.243,1.422
	c-0.227,2.821-0.415,5.642-0.658,8.463c-0.481,5.598-0.995,11.19-1.499,16.788c-0.368,4.314-0.75,8.631-1.145,12.949
	c-0.498,5.598-0.999,11.194-1.505,16.789c-0.387,4.357-0.772,8.719-1.156,13.081c-0.497,5.554-0.995,11.105-1.493,16.655
	c-0.393,4.358-0.769,8.724-1.156,13.088c-0.505,5.59-1.009,11.185-1.51,16.782c-0.338,3.744-0.587,7.5-1.051,11.229
	c-0.857,6.876-7.235,10.886-12.982,10.289c-6.776-0.708-13.541-1.478-20.322-2.13c-6.722-0.488-11.774-6.333-11.286-13.055
	c0.012-0.164,0.027-0.328,0.046-0.492c0.874-9.691,1.703-19.36,2.544-29.084c0.089-1.029,0.149-2.058,0.222-3.092
	c-0.34,0.225-0.617,0.53-0.808,0.89c-2.633,4.559-5.263,9.118-7.888,13.68c-3.872,6.743-7.706,13.53-11.688,20.218
	c-3.059,5.122-7.711,7.351-13.662,6.781c-2.902-0.28-5.805-0.588-8.707-0.924c-1.492-0.1-2.973-0.329-4.425-0.686
	c-4.912-1.478-8.049-4.763-9.481-9.691c-3.632-12.538-7.273-25.06-10.924-37.564c-0.116-0.387-0.261-0.769-0.394-1.155
	c-0.229,0.348-0.37,0.746-0.409,1.161c-0.564,4.057-1.128,8.13-1.692,12.219c-0.935,6.743-1.931,13.48-2.805,20.234
	c-0.901,6.942-6.565,11.556-13.558,10.925c-5.642-0.509-11.284-0.957-16.921-1.521c-4.657-0.465-7.965-2.904-9.896-7.19
	c-0.171-0.377-0.332-0.764-0.619-1.411c-0.105,0.465-0.155,0.62-0.178,0.78c-0.575,4.216-3.875,7.54-8.087,8.147
	c-5.365,0.886-10.687,2.008-16.041,3.01c-1.434,0.303-2.917,0.282-4.342-0.062c-2.489-0.621-4.609-2.245-5.858-4.485
	c-3.559-6.015-7.124-12.023-10.697-18.027c-0.227-0.376-0.481-0.741-0.847-1.3c-0.332,1.825-0.553,3.357-0.896,4.867
	c-0.479,2.618-1.455,5.119-2.877,7.368c-1.62,2.39-3.822,3.972-6.704,4.31c-1.796,0.239-3.613,0.264-5.415,0.071
	c-3.988-0.492-7.96-1.156-11.92-1.848c-2.888-0.509-5.582-0.442-8.137,1.306c-1.063,0.627-2.24,1.036-3.463,1.206
	c-1.351,0.239-2.722,0.347-4.094,0.32c-4.734-0.038-9.464-0.149-14.199-0.227c-2.622,0.038-5.217-0.53-7.583-1.659
	c-1.526-0.751-3.287-0.872-4.901-0.338c-1.258,0.402-2.557,0.666-3.872,0.786c-3.839,0.237-7.688,0.442-11.533,0.448
	c-3.036,0-6.129,0.104-9.061-0.974c-1.967-0.78-4.169-0.713-6.084,0.188c-1.624,0.727-3.403,1.04-5.178,0.913
	c-1.455-0.089-2.921-0.172-4.358-0.404c-2.659-0.432-5.311-0.92-7.954-1.466c-3.872-0.802-7.534-0.52-11.063,1.455
	c-1.923,1.029-4.08,1.544-6.262,1.493c-3.318,0-6.638,0.105-9.956-0.055c-4.193-0.211-8.402-0.442-12.324-2.252
	c-1.366-0.554-2.88-0.626-4.293-0.204c-1.484,0.428-3.007,0.715-4.546,0.857c-4.818,0.183-9.642,0.221-14.46,0.271
	c-1.02,0.041-2.04-0.05-3.036-0.271c-2.401-0.608-4.613-0.166-6.849,0.741c-1.302,0.547-2.671,0.919-4.071,1.106
	c-4.219,0.527-8.473,0.712-12.722,0.553c-2.821-0.11-5.676-0.1-8.396-1.034c-2.33-0.782-4.848-0.806-7.191-0.066
	c-1.266,0.404-2.56,0.711-3.872,0.918c-5.336,0.655-10.752,0.053-15.814-1.759c-6.267-2.185-11.544-5.896-16.151-10.62
	c-0.327-0.344-0.67-0.675-1.029-1.035c-0.464,0.229-0.911,0.489-1.339,0.78c-1.184,0.93-2.4,1.825-3.484,2.859
	c-3.352,3.12-7.412,5.378-11.832,6.577c-5.469,1.523-11.176,2-16.821,1.405c-5.566-0.465-11.007-1.913-16.068-4.276
	c-3.469-1.659-6.699-3.601-9.066-6.742c-0.502-0.613-1.069-1.17-1.692-1.659c-1.239-1.023-2.085-1.063-3.319-0.066
	c-0.931,0.747-1.802,1.566-2.604,2.45c-1.461,1.608-3.158,2.984-5.034,4.082c-1.742,1.094-3.549,2.082-5.409,2.959
	c-10.632,4.63-21.623,5.454-32.852,2.766c-9.468-2.235-17.979-7.423-24.306-14.813c-2.024-2.329-3.623-4.906-4.292-7.977
	c-0.115-0.328-0.271-0.641-0.465-0.93L-0.011,434.513z M325.791,397.861c-0.232-0.376-0.418-0.779-0.553-1.2
	c-0.145-0.869-0.222-1.748-0.299-2.622c-0.16-1.853-1.162-2.827-2.993-2.832c-1.012,0-2.029,0.061-3.048,0.083l-8.739,0.177
	c-1.327,0-2.655,0.039-3.978,0.094c-1.233,0.055-1.659,0.553-1.593,1.753c0.155,2.55,0.321,5.1,0.426,7.656
	c0.128,2.998,0.211,6.001,0.271,8.999c0.056,2.788,0.085,5.573,0.088,8.358c0,6.903,0,13.805,0,20.704
	c0,0.553-0.05,1.062-0.05,1.593c0,2.871-0.038,5.747,0.05,8.618c0.056,1.914,0.747,2.506,2.634,2.489
	c4.325-0.045,8.656-0.111,12.987-0.172c1.283,0,2.562-0.044,3.845-0.094c1.427-0.056,2.24-0.907,2.307-2.356
	c0.061-1.322,0.138-2.645,0.171-3.966c0.1-3.978,0.199-7.949,0.271-11.921c0.1-5.793,0.188-11.583,0.266-17.368
	c0.008-1.239,0.296-2.461,0.841-3.574c0.729-1.493,2.124-1.814,3.545-1.936c1.323-0.184,2.609,0.521,3.164,1.736
	c0.406,0.783,0.748,1.598,1.023,2.435c0.559,1.954,0.831,3.979,0.808,6.013c0,7.161,0,14.328,0,21.501
	c0,0.486-0.044,0.968-0.055,1.454c-0.072,2.252-0.172,4.503-0.194,6.749c0,1.482,0.703,2.212,2.141,2.29
	c2.954,0.121,5.914,0.199,8.851,0.271c1.499,0.039,3.009,0,4.509,0.05c1.587,0.045,3.175,0.188,4.757,0.205
	c1.477,0,2.052-0.747,1.875-2.213s-0.31-2.893-0.382-4.342c-0.083-1.765-0.066-3.535-0.11-5.305
	c-0.072-2.766-0.227-5.531-0.227-8.336s0.083-5.653,0.26-8.469c0.183-2.904,0.465-5.803,0.835-8.68
	c0.19-1.041,0.543-2.048,1.046-2.98c0.693-1.502,2.219-2.443,3.872-2.39c1.786,0,3.318,0.696,4.109,2.4
	c0.544,1.056,0.894,2.2,1.034,3.38c0.186,2.457,0.196,4.925,0.033,7.385c-0.234,3.304-0.637,6.594-1.206,9.856
	c-0.835,4.646-1.896,9.249-2.859,13.873c-0.31,1.466,0.305,2.423,1.775,2.666c1.306,0.216,2.622,0.354,3.934,0.521l10.095,1.267
	c1.399,0.183,2.766,0.393,4.192,0.553c1.561,0.193,2.18-0.266,2.479-1.831c0.166-0.862,0.287-1.731,0.415-2.605
	c0.337-2.351,0.702-4.707,0.984-7.063c0.409-3.457,0.918-6.914,1.106-10.382c0.286-4.724,0.244-9.461-0.128-14.178
	c-0.331-3.789-0.862-7.539-2.212-11.129c-2.545-6.826-7.296-11.234-14.382-13.027c-3.062-0.693-6.201-0.978-9.337-0.846
	c-2.75,0.014-5.461,0.653-7.927,1.87c-2.201,1.05-4.182,2.511-5.836,4.303c-0.658,0.741-1.239,0.725-1.919,0.033
	c-0.149-0.163-0.286-0.337-0.41-0.52c-2.727-3.618-6.493-5.073-10.869-5.012c-3.353,0.046-6.576,1.297-9.082,3.523
	C327.545,396.08,326.798,396.883,325.791,397.861z M507.937,400.384v30.666h-5.045c0.818,2.815,1.588,5.433,2.351,8.054
	c1.955,6.697,3.907,13.394,5.858,20.091c0.553,1.869,1.753,3.036,3.739,3.264c3.806,0.437,7.616,0.868,11.434,1.238
	c0.656,0.022,1.312-0.088,1.925-0.326c1.189-0.409,1.908-1.333,2.527-2.406c9.142-15.886,18.297-31.771,27.464-47.653
	c3.997-6.926,7.997-13.849,11.998-20.771c0.271-0.416,0.575-0.809,0.907-1.178l0.299,0.116c0,0.597,0.038,1.195,0,1.787
	c-0.351,4.126-0.708,8.253-1.073,12.38c-0.232,2.672-0.498,5.349-0.725,8.025c-0.183,2.186-0.332,4.375-0.504,6.639h10.306v-1.516
	c0-6.373,0-12.723,0-19.111c0-1.66,0.1-3.264,0.183-4.89c0.041-0.35,0.119-0.695,0.231-1.029c0.93-3.408,1.854-6.815,2.767-10.222
	c0.63-2.285,1.283-4.569,1.941-6.903h14.979c0.255-2.473,0.521-4.873,0.736-7.279c0.47-5.311,0.907-10.621,1.371-15.936
	c0.349-3.994,0.725-7.988,1.057-11.981c0.155-1.87-0.868-3.081-2.693-3.241c-2.456-0.227-4.918-0.42-7.379-0.625
	c-1.262-0.105-2.528-0.199-3.872-0.299c-2.368,7.141-4.696,14.177-7.042,21.263h-1.521c-4.426,0-8.851,0-13.276,0
	c-0.636,0-1.139,0-1.515,0.73c-2.273,4.248-4.608,8.458-6.92,12.684c-4.223,7.711-8.441,15.421-12.656,23.132l-12.142,22.208
	c-1.715,3.135-3.434,6.27-5.155,9.404c-0.299,0.553-0.554,1.105-1.526,1.105c-0.25-0.474-0.462-0.965-0.637-1.471
	c-1.844-6.734-3.662-13.468-5.454-20.201c-0.515-1.914-1.04-3.822-1.56-5.73L507.937,400.384z M266.931,452.379
	c-0.094-1.145-0.254-2.411-0.298-3.678c-0.145-4.104-0.332-8.209-0.344-12.313c0-4.731,0.093-9.459,0.277-14.183
	c0.126-2.295,0.397-4.581,0.813-6.842c0.184-1.004,0.56-1.961,1.106-2.821c1.276-2.159,4.062-2.874,6.221-1.597
	c0.73,0.432,1.325,1.06,1.717,1.813c0.521,1.018,0.884,2.108,1.073,3.236c0.391,2.262,0.439,4.57,0.144,6.848
	c-0.32,2.666-0.553,5.338-0.924,7.992c-0.231,1.693-0.619,3.363-0.945,5.045c-0.369,1.933-0.749,3.863-1.14,5.792
	c-0.393,1.985-0.83,3.966-1.167,5.957c-0.243,1.399,0.266,2.063,1.659,2.263c2.003,0.293,4.016,0.514,6.023,0.769
	c2.009,0.254,3.922,0.515,5.886,0.758c2.213,0.282,4.459,0.581,6.693,0.818c1.277,0.139,1.626-0.144,1.853-1.443
	c0.41-2.301,0.774-4.613,1.146-6.92c0.818-4.869,1.372-9.779,1.659-14.708c0.3-5.167,0.133-10.352-0.498-15.488
	c-0.459-3.513-1.105-6.964-2.594-10.223c-2.439-5.409-6.411-9.115-12.081-10.963c-3.446-1.106-6.997-1.355-10.593-1.338
	c-4.196-0.049-8.288,1.315-11.616,3.872c-0.841,0.642-1.609,1.372-2.4,2.08c-1.067,0.957-1.615,0.907-2.478-0.205
	c-0.43-0.616-0.919-1.188-1.461-1.709c-3.872-3.357-8.297-4.065-13.126-2.766c-2.639,0.697-4.779,2.213-6.727,4.082
	c-0.447,0.421-0.841,0.936-1.692,0.78c-0.094-0.309-0.17-0.622-0.227-0.94c-0.077-0.614-0.083-1.233-0.177-1.842
	c-0.443-2.915-1.179-3.479-4.11-3.319c-2.29,0.114-4.584,0.199-6.881,0.254c-2.429,0.061-4.862,0.066-7.291,0.1
	c-1.443,0-1.819,0.365-1.809,1.797c0,2.108,0.033,4.22,0.116,6.328c0.094,2.213,0.326,4.393,0.393,6.594
	c0.133,4.592,0.271,9.183,0.261,13.773c0,7.246-0.166,14.492-0.238,21.739c-0.027,2.434,0,4.867,0,7.301
	c0,1.81,0.769,2.738,2.766,2.678c5.388-0.172,10.781-0.21,16.174-0.293c2.03,0,2.871-0.847,2.921-2.899
	c0.056-2.162,0.127-4.325,0.177-6.482c0.094-4.375,0.193-8.745,0.26-13.12c0.056-3.226,0.05-6.456,0.1-9.687
	c-0.022-1.542,0.05-3.084,0.216-4.618c0.415-2.954,1.345-4.05,4.397-4.276c1.221-0.143,2.41,0.451,3.031,1.511
	c0.587,0.876,1.016,1.847,1.267,2.87c0.451,2.019,0.714,4.074,0.786,6.141c0.033,8.093-0.083,16.18-0.145,24.267
	c0,0.221-0.049,0.442-0.061,0.663c-0.066,1.449-0.171,2.898-0.188,4.354c0,1.35,0.553,2.323,2.212,2.362
	c1.66,0.038,3.264,0.193,4.89,0.227c2.169,0.039,4.337,0,6.506,0c1.809,0.033,3.611,0.199,5.42,0.232
	c0.99,0.061,2.063,0.349,3.043-0.631L266.931,452.379z M41.608,452.977c2.213-0.221,4.475-0.382,6.704-0.669
	c4.626-0.57,9.08-2.104,13.076-4.503c4.555-2.634,8.109-6.7,10.111-11.566c1.262-3.081,1.588-6.3,1.594-9.603
	c0-7.34-2.767-13.491-7.744-18.724c-2.878-2.947-6.174-5.455-9.78-7.445c-3.872-2.213-7.799-4.337-11.648-6.594
	c-1.244-0.756-2.4-1.648-3.446-2.661c-1.037-0.882-1.523-2.251-1.278-3.59c0.465-2.373,1.964-3.319,4.729-3.197
	c2.252,0.166,4.46,0.708,6.533,1.604c4.235,1.683,8.187,4.008,11.715,6.892c1.438,1.195,2.512,1.051,3.529-0.465
	c0.841-1.25,1.659-2.506,2.489-3.767c1.206-1.854,2.417-3.701,3.602-5.565c0.735-1.156,0.696-1.438-0.249-2.412
	c-0.492-0.509-1.013-0.984-1.532-1.46c-3.354-3.086-7.12-5.693-11.19-7.744c-5.637-2.827-11.677-3.972-17.922-4.077
	c-2.161-0.018-4.321,0.146-6.455,0.487c-4.892,0.639-9.515,2.608-13.364,5.692c-5.255,4.309-7.678,9.957-7.977,16.639
	c0.008,1.279,0.082,2.557,0.222,3.828c0.232,4.104,1.902,7.667,4.182,10.986c2.639,3.724,5.968,6.907,9.808,9.376
	c4.187,2.799,8.557,5.311,12.794,8.037c1.702,1.104,3.313,2.344,4.817,3.706c1.304,1.051,1.938,2.724,1.66,4.375
	c-0.432,2.5-1.505,3.557-4.021,3.723c-2.032,0.18-4.08-0.008-6.046-0.553c-5.809-1.71-11.097-4.337-15.405-8.707
	c-1.239-1.25-2.313-1.15-3.446,0.261c-1.354,1.692-2.683,3.396-4.021,5.094c-1.105,1.428-2.212,2.865-3.362,4.271
	c-0.463,0.581-0.617,1.349-0.415,2.063c0.205,0.533,0.535,1.009,0.962,1.388c1.731,1.887,3.391,3.845,5.255,5.593
	c3.356,3.153,7.353,5.548,11.716,7.02C32.265,452.235,36.889,452.767,41.608,452.977z M156.258,391.196v0.094h-9.686
	c-1.106,0.055-1.443,0.249-1.626,1.338c-0.332,1.903-0.554,3.817-0.819,5.737c-0.266,1.919-0.464,3.922-0.68,5.885
	c-0.145,1.316-0.277,2.633-0.382,3.949c-0.116,1.449-0.072,2.921-0.315,4.348c-0.387,2.438-0.554,4.906-0.498,7.374
	c0.039,2.644,0.033,5.282,0,7.927c0.017,3.217,0.541,6.411,1.555,9.464c0.337,1.106,0.874,2.119,1.173,3.22s1.018,1.931,1.604,2.849
	c2.221,3.526,5.442,6.31,9.254,7.993c2.609,1.189,5.398,1.938,8.253,2.212c2.322,0.296,4.667,0.372,7.003,0.228
	c4.127-0.376,8.025-2.058,11.13-4.802c0.164-0.147,0.338-0.284,0.52-0.409c0.874-0.554,1.399-0.282,1.482,0.774
	c0.039,0.442,0,0.885,0,1.327c0,2.512,0.498,3.031,3.037,2.993c3.872-0.062,7.771-0.178,11.654-0.261
	c1.727-0.038,3.446-0.055,5.172-0.094c1.251-0.027,1.66-0.426,1.632-1.692c0-0.88-0.127-1.759-0.16-2.639
	c-0.1-2.688-0.172-5.382-0.271-8.07c-0.174-4.632-0.358-9.26-0.554-13.884c-0.17-4.426-0.345-8.834-0.525-13.227
	c-0.185-4.672-0.369-9.346-0.553-14.021c-0.105-2.821-0.178-5.642-0.271-8.469c-0.066-2.03-0.979-2.854-3.009-2.766
	c-2.556,0.1-5.117,0.199-7.673,0.249c-3.186,0.061-6.366,0.072-9.553,0.1c-0.221-0.014-0.442-0.014-0.663,0
	c-0.767,0.027-1.366,0.67-1.34,1.436c0.001,0.03,0.003,0.061,0.007,0.091c0.05,2.058,0.083,4.121,0.227,6.179
	c0.166,2.456,0.553,4.901,0.647,7.356c0.171,3.519,0.198,7.036,0.293,10.555c0.033,1.15,0.033,2.301,0.116,3.445
	c0.303,2.897,0.255,5.821-0.145,8.707c-0.242,1.81-1.045,3.498-2.295,4.829c-2.373,2.434-5.311,3.274-8.591,2.915
	c-2.821-0.2-5.251-2.066-6.173-4.74c-0.417-1.114-0.646-2.29-0.675-3.479c-0.022-5.515,0.31-11.024,0.996-16.495
	c0.58-5.393,1.205-10.775,2.135-16.119c0.252-1.064-0.405-2.131-1.47-2.384c-0.188-0.045-0.383-0.062-0.577-0.05
	C162.542,391.262,159.4,391.196,156.258,391.196z M467.054,365.198c-2.821,18.962-5.632,37.829-8.452,56.774
	c1.321,0.179,2.654,0.259,3.988,0.238c2.209-0.231,4.427,0.344,6.244,1.62c0.674,0.428,1.469,0.622,2.263,0.554
	c2.832,0,5.664,0,8.496,0h1.405c0.708-5.084,1.405-10.045,2.091-15.013c0.687-4.967,1.322-9.956,2.069-14.935
	c0.746-4.979,1.267-9.918,2.168-14.935c0.735,0.282,0.769,0.808,0.901,1.239c0.45,1.475,0.889,2.95,1.316,4.425
	c4.101,14.117,8.203,28.233,12.308,42.349c0.183,0.619,0.415,1.228,0.631,1.864c1.373,0.052,2.749,0.035,4.121-0.05v-30.605h12.329
	c-4.005-14.863-7.965-29.549-11.937-44.252H482.21c-1.156,3.59-2.302,7.146-3.463,10.764L467.054,365.198z M408.072,442.533
	l16.257-5.99v-1.345c0-1.77,0.028-3.54,0-5.31c-0.062-0.62,0.229-1.223,0.753-1.561c1.255-0.901,2.467-1.863,3.684-2.82
	c0.436-0.369,0.996-0.555,1.565-0.521c1.455,0.066,2.921,0,4.381,0.033c0.573,0.022,1.133-0.176,1.565-0.553
	c1.582-1.272,3.177-2.53,4.784-3.772c0.462-0.333,0.767-0.842,0.841-1.405c0.836-5.05,1.715-10.089,2.578-15.128
	c0.089-0.51,0.139-1.023,0.227-1.721h-7.927c0-0.471-0.061-0.77-0.055-1.073c0-5.481,0.071-10.963,0.066-16.45
	c-0.034-0.676,0.309-1.314,0.891-1.66c1.224-0.701,1.842-2.123,1.521-3.496c-0.015-0.184-0.015-0.369,0-0.553
	c0-0.819,0.039-1.66,0.066-2.572h9.874c0.343-2.063,0.664-4.01,0.995-5.963c1.38-8.083,2.759-16.167,4.138-24.25
	c1.206-7.128,2.402-14.26,3.59-21.396c0.315-1.892-0.553-2.805-2.439-2.467c-1.172,0.21-2.334,0.481-3.501,0.719l-6.947,1.411v1.388
	c0,1.504,0,3.009,0,4.508c0.09,0.582-0.17,1.162-0.664,1.482c-1.443,0.835-1.914,2.074-1.659,3.667c0.044,0.26-0.033,0.553,0,0.796
	c0.163,1.025-0.252,2.056-1.079,2.683c-0.088,0.098-0.183,0.19-0.282,0.277c-0.563,0.438-0.86,1.137-0.785,1.847
	c0.039,2.871,0.027,5.747,0,8.624c0,1.189,0.282,2.539-0.183,3.523c-0.465,0.985-1.748,1.56-2.594,2.39
	c-0.485,0.455-1.143,0.676-1.804,0.608c-1.947,0-3.872,0-5.841,0c-0.338,0-0.681,0.056-1.057,0.083
	c-0.078,0.221-0.144,0.446-0.193,0.675c-0.369,2.582-0.725,5.163-1.068,7.744c-1.012,7.468-2.008,14.935-3.031,22.402
	c-1.105,8.113-2.234,16.225-3.385,24.338c-0.072,0.553-0.305,1.339-0.647,1.455c-0.735,0.238-0.945-0.604-1.233-1.106
	c-2.581-4.58-5.163-9.162-7.744-13.745c-0.553-0.985-1.14-1.958-1.792-3.082l-11.766,9.83c0.009,0.199,0.029,0.399,0.062,0.598
	c2.019,7.545,2.212,15.255,2.052,22.999c-0.028,0.473,0.086,0.942,0.326,1.35c1.245,2.086,2.473,4.183,3.717,6.268
	C405.572,438.379,406.794,440.398,408.072,442.533z M78.535,420.806c-0.128,3.669,0.349,7.334,1.411,10.848
	c0.403,1.255,0.658,2.566,1.161,3.777c0.557,1.138,1.172,2.245,1.842,3.319c1.905,3.345,4.529,6.224,7.684,8.43
	c2.143,1.479,4.481,2.654,6.947,3.49c3.203,1.195,6.565,1.561,9.957,1.814c2.59,0.183,5.193,0.027,7.744-0.465
	c7.323-1.388,13.015-5.222,17.208-11.351c1.819-2.66,2.904-5.647,3.938-8.656c0.642-1.875,0-3.064-1.914-3.618
	c-3.982-1.15-7.971-2.29-11.965-3.418c-1.477-0.42-1.77-0.31-2.406,1.023c-1.517,3.146-4.227,5.555-7.528,6.693
	c-0.991,0.363-2.048,0.52-3.103,0.459c-3.872-0.222-6.604-2.279-8.353-5.664c-1.892-3.656-2.124-7.573-1.189-11.484
	c1.178-4.944,5.205-9.254,11.556-8.369c3.723,0.521,6.472,2.324,8.059,5.798c0.697,1.526,1.478,1.919,3.17,1.659
	c0.216-0.033,0.426-0.094,0.642-0.149c2.438-0.597,4.879-1.2,7.323-1.809c1.842-0.459,3.689-0.896,5.532-1.399
	c1.105-0.305,1.233-0.553,0.923-1.621c-0.364-1.271-0.752-2.545-1.228-3.777c-1.818-4.879-4.974-9.146-9.104-12.313
	c-4.426-3.385-9.603-4.751-15.073-5.127c-3.705-0.264-7.428-0.013-11.063,0.747c-5.885,1.239-10.974,3.922-14.935,8.485
	s-6.085,10.172-6.82,16.201C78.662,416.469,78.652,418.648,78.535,420.806z M599.438,378.302H585.77
	c-0.112,0.25-0.21,0.507-0.293,0.769c-1.411,5.067-2.821,10.123-4.199,15.195c-0.188,0.722-0.28,1.466-0.276,2.212
	c0,7.914,0,15.833,0,23.758c0,0.509,0,1.023-0.044,1.609h-11.893c-0.111,0.445-0.2,0.896-0.266,1.35
	c-0.365,4.127-0.714,8.253-1.073,12.38c-0.359,4.126-0.708,8.17-1.057,12.252c-0.464,5.487-0.862,10.985-1.404,16.467
	c-0.201,1.715,1.026,3.267,2.74,3.468c0.069,0.008,0.139,0.014,0.208,0.018c2.107,0.127,4.203,0.464,6.306,0.663
	c0.769,0.072,1.543,0,2.373,0c0.376-5.172,0.741-10.261,1.106-15.416l6.007-0.829l1.659-3.181h7.296
	c0.073-0.16,0.131-0.327,0.172-0.498c0.343-3.596,0.679-7.192,1.007-10.792c0.368-3.949,0.723-7.898,1.062-11.849
	c0.471-5.36,0.924-10.72,1.395-16.074c0.332-3.872,0.686-7.744,1.023-11.589c0.21-2.417,0.397-4.834,0.613-7.246
	C598.636,386.815,599.045,382.65,599.438,378.302z M409.156,393.884c-0.26-0.515-0.459-0.957-0.691-1.372
	c-1.271-2.273-2.561-4.536-3.839-6.81c-4.34-7.744-8.684-15.488-13.032-23.232c-2.212-3.872-4.386-7.772-6.549-11.671
	c-0.244-0.628-0.879-1.014-1.549-0.94c-1.149,0.078-2.303,0.078-3.451,0c-0.761-0.118-1.508,0.278-1.837,0.974
	c-0.066,0.116-0.172,0.205-0.232,0.321c-0.327,0.745-1.116,1.174-1.919,1.045c-1.81-0.072-3.629-0.028-5.443,0
	c-0.332,0-0.669,0.066-1.106,0.116v10.72c-2.87,0.122-5.625-0.033-8.529,0.1c0.288,0.553,0.459,0.885,0.658,1.217
	c3.28,5.532,6.583,11.096,9.835,16.667c0.376,0.696,1.081,1.152,1.87,1.211c3.64,0.503,7.172,1.604,10.454,3.258
	c5.471,2.838,9.243,7.302,11.82,12.822c0.758,1.62,1.361,3.319,2.103,5.139L409.156,393.884z M506.509,352.952
	c-0.061-0.349-0.071-0.476-0.104-0.598c-1.906-7.121-3.818-14.238-5.736-21.351c-0.495-1.761-2.047-3.018-3.872-3.137
	c-3.729-0.376-7.456-0.725-11.185-1.106c-3.114-0.304-6.229-0.553-9.337-0.93c-2.174-0.249-3.402,0.553-3.739,2.688
	c-0.824,5.177-1.582,10.366-2.367,15.549c-0.764,5.056-1.521,10.11-2.273,15.162c-0.211,1.389-0.382,2.766-0.581,4.265h10.333
	c1.105-3.513,2.262-7.02,3.401-10.565L506.509,352.952z M409.001,443.905c0.063,0.203,0.14,0.402,0.227,0.598
	c2.639,4.425,5.255,8.895,7.927,13.319c0.818,1.441,2.48,2.18,4.099,1.82c3.783-0.649,7.554-1.357,11.312-2.125
	c1.818-0.276,3.229-1.73,3.452-3.557c0.282-1.659,0.553-3.318,0.824-4.95c1.475-8.511,2.935-17.026,4.381-25.544
	c0.021-0.291,0.021-0.583,0-0.874l-2.163,1.659c-1.018,0.774-1.931,1.864-3.081,2.213c-1.15,0.348-2.622,0.116-3.938,0
	c-1.234-0.17-2.48,0.222-3.396,1.067c-0.584,0.54-1.215,1.026-1.886,1.455c-0.61,0.376-0.943,1.075-0.852,1.786
	c0.038,1.941,0,3.872,0,5.836c0,0.337-0.056,0.68-0.083,1.028L409.001,443.905z M456.599,436.2c-0.085,0.221-0.153,0.448-0.204,0.68
	c-0.845,5.624-1.686,11.248-2.522,16.871c-0.188,1.283,0.636,2.498,1.897,2.799c0.729,0.142,1.469,0.229,2.212,0.261
	c5.045,0.447,10.095,0.901,15.146,1.327c1.991,0.171,3.197-0.719,3.496-2.738c0.796-5.36,1.526-10.73,2.273-16.097
	c0-0.116-0.072-0.243-0.149-0.465L456.599,436.2z M383.479,348.277c-0.193-0.442-0.282-0.725-0.426-0.979
	c-1.272-2.273-2.562-4.536-3.828-6.815c-1.327-2.384-2.705-3.015-5.354-2.467c-6.692,1.39-13.39,2.771-20.09,4.143
	c-0.73,0.155-1.477,0.282-2.213,0.492c-0.972,0.19-1.604,1.131-1.415,2.103c0.034,0.174,0.094,0.341,0.176,0.498
	c0.102,0.243,0.222,0.478,0.36,0.702c2.928,4.941,5.854,9.881,8.778,14.819c0.199,0.449,0.654,0.729,1.145,0.703
	c2.252-0.033,4.509,0,6.766-0.033c0.204-0.035,0.403-0.097,0.592-0.183v-10.681h1.427c1.765,0,3.54-0.094,5.305,0.027
	c1.294,0.089,2.213-0.254,2.805-1.427c0.387-0.78,1.028-0.957,1.858-0.918C380.697,348.327,382.007,348.277,383.479,348.277z
	 M443.351,325.156c-0.217-0.018-0.435-0.018-0.652,0c-2.334,0.465-4.674,0.913-7.003,1.427c-1.69,0.392-2.945,1.814-3.125,3.54
	c-0.282,2.008-0.553,4.016-0.813,6.024c-0.793,5.719-1.582,11.435-2.367,17.147c-0.066,0.498-0.056,1.007-0.083,1.61
	c1.848,0,3.523-0.083,5.194,0c1.32,0.146,2.637-0.313,3.578-1.25c0.577-0.463,0.905-1.169,0.886-1.908c-0.05-3.673,0-7.346,0-11.013
	c0-0.553,0-1.062,0.47-1.438c1.505-1.079,2.225-2.948,1.831-4.757v-0.133c-0.229-1.104,0.27-2.23,1.239-2.804
	c0.402-0.25,0.69-0.646,0.802-1.106C443.396,328.724,443.352,326.959,443.351,325.156L443.351,325.156z M456.748,434.485
	c1.659,0.52,21.512,2.766,22.502,2.55c0.498-3.629,1.001-7.273,1.526-11.063h-1.443c-2.766,0-5.57-0.039-8.358,0
	c-1.017,0.07-2.028-0.198-2.876-0.764c-1.734-1.243-3.87-1.795-5.99-1.549c-1.217,0.121-2.45,0-3.756,0
	C457.799,427.389,457.274,430.945,456.748,434.485L456.748,434.485z M587.219,337.131c-2.113-0.199-3.949-0.354-5.786-0.553
	c-2.396-0.249-4.038,0.741-5.178,2.849c-2.976,5.531-6.013,11.002-9.011,16.506c-0.142,0.308-0.26,0.625-0.354,0.951h13.745
	c2.18-6.527,4.349-13.043,6.583-19.742V337.131z M579.436,454.432c-0.332,4.807-0.658,9.536-0.99,14.382
	c1.229,0.138,2.273,0.26,3.319,0.37c2.213,0.238,4.464,0.509,6.704,0.691c1.493,0.175,2.845-0.894,3.02-2.387
	c0.009-0.081,0.015-0.164,0.018-0.246c0.104-1.057,0.177-2.107,0.276-3.158c0.254-2.766,0.553-5.531,0.774-8.297
	c0.144-1.66,0.237-3.319,0.359-5.039h-6.361c-0.34,0.566-0.636,1.158-0.885,1.77c-0.332,1.013-1.04,1.278-1.997,1.366
	c-1.399,0.122-2.782,0.359-4.237,0.559V454.432z M445.022,400.776c1.277-7.517,2.539-14.974,3.816-22.507h-8.048
	c-0.039,0.552-0.039,1.107,0,1.659c0.342,1.593-0.333,3.232-1.698,4.121c-0.508,0.369-0.781,0.979-0.719,1.604
	c0,4.641-0.045,9.288-0.066,13.929c0,0.381,0.05,0.769,0.077,1.194H445.022z"/>
</svg>
