<?xml version="1.0" encoding="utf-8"?>
<!-- Generator: Adobe Illustrator 16.0.0, SVG Export Plug-In . SVG Version: 6.00 Build 0)  -->
<!DOCTYPE svg PUBLIC "-//W3C//DTD SVG 1.1//EN" "http://www.w3.org/Graphics/SVG/1.1/DTD/svg11.dtd">
<svg version="1.1" id="Layer_2" xmlns="http://www.w3.org/2000/svg" xmlns:xlink="http://www.w3.org/1999/xlink" x="0px" y="0px"
	 width="787px" height="299px" viewBox="0 0 787 299" enable-background="new 0 0 787 299" xml:space="preserve">
<g>
	<g>
		<path fill="#FFFFFF" d="M47.691,113.462l74.419,127.575h100.997l-74.419-127.575H47.691L47.691,113.462z M63.639,121.436h77.076
			l63.558,108.971h-77.077L63.639,121.436z"/>
		<path fill="#FFFFFF" d="M74.297,181.848l-58.499,59.189h93.022L74.297,181.848z M71.169,198.512l21.706,34.553H37.061
			L71.169,198.512z"/>
		<path fill="#FFFFFF" d="M193.969,172.605l58.499-59.18h-93.023L193.969,172.605z M197.097,155.951L175.391,121.4h55.814
			L197.097,155.951z"/>
	</g>
	<g>
		<path fill="#FFFFFF" d="M268.512,196.527c-0.142-0.188-0.443,1.443-0.903,4.882s-0.718,5.997-0.762,7.663
			c0.479,3.562,1.692,3.589,3.659,5.387c1.64,1.01,3.039,0.727,6.98,1.169c3.942,0.452,27.411,0.46,31.38,0.019
			c3.96-0.435,7.274-0.976,9.437-2.399c4.217-2.649,7.079-6.46,8.576-16.753c1.071-5.557,1.541-6.983,1.416-9.604
			c-0.159-3.511-1.948-5.867-5.368-7.054c-3.419-1.188-8.407-0.61-13.953-0.61h-10.95c-11.774,0-18.906,0.051-22.432,2.487
			C271.578,184.398,269.983,187.969,268.512,196.527z M352.702,155.52H336.03c0.559-4.016,0.407-6.699,0.293-9.152
			c-0.115-2.499-0.373-4.688-1.507-5.493c-2.374-2.046-12.048-1.86-22.343-1.86h-9.63c-10.241,0-16.23-0.063-19.34,2.241
			c-4.022,3.128-6.449,7.91-7.291,14.345l-2.712,11.063c0,0,1.807-2.709,5.864-3.145c7.124-0.771,18.986-0.054,23.442-0.054
			c10.86,0.187,19.836-0.45,25.675,0.505c5.838,0.967,12.19,2.225,15.229,5.521c2.686,2.754,4.155,6.98,4.422,12.676
			c0.177,3.757-0.567,9.898-2.225,18.402c-0.93,4.103-2.011,7.806-3.25,11.091c-1.231,3.297-2.934,6.353-5.113,9.171
			c-2.17,2.816-4.757,7.699-7.76,9.329c-4.74,2.418-10.816,2.259-16.311,2.905c-5.492,0.646-14.299,0-23.025,0
			c-7.788,0-15.689,0.178-21.359-0.496c-5.68-0.674-10.356-2.313-14.033-4.918c-4.492-3.269-7.017-8.674-7.557-16.203
			c-0.027-3.891,0.407-8.309,1.302-13.28l9.294-48.771c1.763-10.676,5.031-19.003,12.802-23.964
			c4.323-2.693,9.568-4.474,15.734-5.342c6.174-0.876,16.354-1.311,25.239-1.311h13.66c9.285,0,11.872,1.24,18.383,3.712
			c6.513,2.471,9.941,7.406,10.286,14.804C354.306,139.455,353.801,149.077,352.702,155.52z"/>
		<path fill="#FFFFFF" d="M416.764,134.37c-10.957,0-20.935,0.497-24.61,1.487c-3.588,1.002-5.839,0.914-7.46,3.482
			c-1.613,2.569-2.64,5.264-3.083,8.088c-0.443,2.818-0.842,6.609-1.188,11.359c0.346,2.854,1.258,4.818,2.737,5.881
			c2.834,1.79,12.766,1.95,25.665,1.95c11.554,0,20.174-0.239,24.692-2.197c1.912-0.753,3.561-2.454,4.941-5.094
			c1.393-2.649,2.233-4.581,3.217-9.567c0.55-3.021,0.79-5.572,0.746-7.673c-0.063-2.668-0.888-4.44-2.475-5.325
			c-1.744-0.957-4.411-1.595-7.999-1.914C428.352,134.529,423.293,134.37,416.764,134.37z M444.733,173.936
			c6.866,2.817,6.866,9.444,7.044,17.072c0.027,1.073,0.283,6.875-0.07,8.887c-0.354,2.002-0.238,3.545-0.361,4.189
			c-1.518,6.999-2.013,10.083-4.378,14.219c-2.365,4.147-3.757,7.115-7.885,9.33c-3.598,2.038-8.159,3.455-13.68,4.244
			c-5.527,0.787-15.212,1.188-23.742,1.188H390.64c-9.542,0-17.001-0.347-22.389-1.037c-5.378-0.691-8.549-3.172-11.713-6.067
			c-2.984-2.604-5.818-8.931-6.307-15.026c0.159-2.844,0.665-4.297,1.506-9.656c1.107-4.951,1.373-8.938,2.25-11.596
			c0.877-2.65,2.631-5.77,4.563-8.205c1.923-2.428,4.767-4.209,8.134-6.131c2.073-1.188,2.692-1.639,0.576-3.41
			c-2.33-1.939-2.951-3.758-3.606-6.131c-0.337-0.744-0.514-7.974-0.549-8.213c1.028-16.505,5.351-24.913,13.086-31.265
			c4.544-3.898,6.546-6.21,16.628-6.928c5.174-0.417,19.357-0.62,26.604-0.62c9.993,0,19.712,0.213,23.85,0.638
			c3.632,0.531,6.786,1.311,9.479,2.33c2.695,1.027,2.42,2.773,4.475,5.245c1.8,2.277,2.757,5.891,2.872,10.835
			c0.078,3.41-0.145,6.964-0.673,10.675c-0.523,3.704-1.49,7.273-2.898,10.721c-1.399,3.445-3.217,6.192-5.448,8.258
			c-2.801,3.049-2.408,5.183-6.113,6.396c-0.797,0.268-1.222,0.08-1.204-0.044C443.768,173.732,444.086,173.67,444.733,173.936z
			 M405.584,181.298c-7.044,0-14.246-0.026-18.047,0.397c-3.801,0.427-6.911,1.242-9.347,2.438c-2.242,1.012-4.04,2.836-5.404,5.477
			c-1.374,2.647-2.578,6.334-3.632,11.057c-0.896,5.475-0.78,6.563-0.948,8.159c0.337,2.905,0.948,4.614,3.146,5.581
			c2.206,0.966,5.377,2.65,9.745,2.836c3.331,0.361,12.021,0.54,20.75,0.54c9.063,0,16.168,0.629,21.085-1.205
			c2.318-1.021,4.88-1.302,6.352-3.925c1.479-2.614,2.116-5.324,3.242-10.375c0.896-3.861,1.32-6.892,1.267-9.088
			c-0.061-2.5-0.761-7.063-2.117-8.365c-1.123-1.266-3.633-2.205-7.513-2.825C420.281,181.369,413.502,181.298,405.584,181.298z"/>
		<path fill="#FFFFFF" d="M501.132,233.063c-9.938,0-20.481-0.629-26.321-1.887c-5.838-1.258-10.081-3.465-12.748-6.627
			c-3.294-3.703-2.686-8.992-3.146-16.23c0.195-5.793,0.923-11.596,1.853-17.055l6.018-31.608c1.257-6.777,3.038-12.909,5.35-18.401
			c2.305-5.484,5.555-10.056,9.736-13.706c2.394-2.312,5.537-4.137,9.428-5.493c3.881-1.347,8.311-2.232,13.271-2.649
			c4.952-0.416,11.047-0.629,18.269-0.629c5.458,0,10.364,0.186,14.715,0.558c4.359,0.372,8.177,1.046,11.465,2.029
			c3.287,0.983,6.078,2.455,8.362,4.403c4.146,3.766,6.316,9.693,6.504,17.78c0.08,3.262-0.417,8.859-1.479,16.799l-6.139,31.752
			c-3.322,18.047-7.293,29.892-17.215,35.545c-4.031,2.231-8.877,3.691-14.557,4.385
			C518.816,232.718,509.258,233.063,501.132,233.063z M519.957,135.143c-7.573,0-12.994,0.141-16.256,0.424
			c-3.26,0.274-6.067,0.877-8.426,1.809c-1.808,0.734-3.429,1.798-4.873,3.171c-1.436,1.384-2.87,3.695-4.297,6.929
			c-1.425,3.241-2.676,4.952-3.738,10.428l-6.804,36.103c-0.779,5.343-1.267,7.024-1.453,10.365
			c0.205,2.995,0.699,5.183,1.506,6.573s2.003,2.498,3.571,3.322c2.001,1.036,4.553,1.7,7.663,1.993
			c3.109,0.292,8.24,0.442,15.388,0.442c8.691,0,15.149-0.266,19.402-0.779c4.253-0.521,7.477-1.72,9.675-3.579
			c4.058-3.649,6.396-9.106,8.788-20.475l6.289-33.284c0.914-6.361,1.329-8.521,1.26-11.801c-0.105-4.545-0.266-6.922-2.24-8.318
			c-1.897-1.438-4.557-2.348-7.967-2.738C534.027,135.336,528.206,135.143,519.957,135.143z"/>
		<path fill="#FFFFFF" d="M604.786,233.063c-9.938,0-20.481-0.629-26.321-1.887c-5.838-1.258-10.08-3.465-12.747-6.627
			c-3.295-3.703-2.686-8.992-3.146-16.23c0.196-5.793,0.922-11.596,1.854-17.055l6.017-31.608c1.257-6.777,3.038-12.909,5.35-18.401
			c2.305-5.484,5.556-10.056,9.737-13.706c2.393-2.312,5.537-4.137,9.426-5.493c3.882-1.347,8.312-2.232,13.271-2.649
			c4.953-0.416,11.047-0.629,18.268-0.629c5.458,0,10.366,0.186,14.716,0.558c4.359,0.372,8.177,1.046,11.466,2.029
			c3.286,0.983,6.077,2.455,8.36,4.403c4.148,3.766,6.318,9.693,6.506,17.78c0.079,3.262-0.419,8.859-1.48,16.799l-6.139,31.752
			c-3.322,18.047-7.292,29.892-17.214,35.545c-4.032,2.231-8.878,3.691-14.558,4.385
			C622.471,232.718,612.911,233.063,604.786,233.063z M623.613,135.143c-7.575,0-12.996,0.141-16.257,0.424
			c-3.26,0.274-6.068,0.877-8.426,1.809c-1.809,0.734-3.43,1.798-4.872,3.171c-1.437,1.384-2.87,3.695-4.298,6.929
			c-1.425,3.241-2.676,4.952-3.737,10.428l-6.805,36.103c-0.779,5.343-1.268,7.024-1.453,10.365
			c0.205,2.995,0.698,5.183,1.507,6.573c0.806,1.391,2.002,2.498,3.571,3.322c2,1.036,4.553,1.7,7.661,1.993
			c3.109,0.292,8.24,0.442,15.39,0.442c8.69,0,15.147-0.266,19.401-0.779c4.252-0.521,7.477-1.72,9.676-3.579
			c4.057-3.649,6.395-9.106,8.787-20.475l6.289-33.284c0.913-6.361,1.329-8.521,1.26-11.801c-0.106-4.545-0.267-6.922-2.24-8.318
			c-1.898-1.438-4.557-2.348-7.967-2.738C637.683,135.336,631.861,135.143,623.613,135.143z"/>
		<path fill="#FFFFFF" d="M708.441,233.063c-9.939,0-20.482-0.629-26.321-1.887c-5.838-1.258-10.081-3.465-12.748-6.627
			c-3.295-3.703-2.685-8.992-3.146-16.23c0.195-5.793,0.922-11.596,1.852-17.055l6.018-31.608c1.258-6.777,3.038-12.909,5.35-18.401
			c2.305-5.484,5.555-10.056,9.737-13.706c2.393-2.312,5.537-4.137,9.427-5.493c3.881-1.347,8.312-2.232,13.271-2.649
			c4.951-0.416,11.046-0.629,18.268-0.629c5.458,0,10.365,0.186,14.715,0.558c4.36,0.372,8.177,1.046,11.465,2.029
			c3.286,0.983,6.077,2.455,8.362,4.403c4.147,3.766,6.317,9.693,6.504,17.78c0.08,3.262-0.417,8.859-1.479,16.799l-6.14,31.752
			c-3.321,18.047-7.293,29.892-17.215,35.545c-4.031,2.231-8.877,3.691-14.557,4.385
			C726.124,232.718,716.566,233.063,708.441,233.063z M727.268,135.143c-7.574,0-12.996,0.141-16.257,0.424
			c-3.261,0.274-6.067,0.877-8.425,1.809c-1.81,0.734-3.431,1.798-4.873,3.171c-1.437,1.384-2.87,3.695-4.299,6.929
			c-1.424,3.241-2.675,4.952-3.736,10.428l-6.806,36.103c-0.778,5.343-1.266,7.024-1.451,10.365
			c0.204,2.995,0.698,5.183,1.506,6.573c0.806,1.391,2.003,2.498,3.57,3.322c2.001,1.036,4.554,1.7,7.663,1.993
			c3.108,0.292,8.24,0.442,15.389,0.442c8.69,0,15.148-0.266,19.401-0.779c4.253-0.521,7.478-1.72,9.675-3.579
			c4.059-3.649,6.396-9.106,8.787-20.475l6.29-33.284c0.914-6.361,1.329-8.521,1.261-11.801c-0.107-4.545-0.267-6.922-2.241-8.318
			c-1.897-1.438-4.557-2.348-7.966-2.738C741.336,135.336,735.516,135.143,727.268,135.143z"/>
	</g>
</g>
<g>
	<polygon fill="#FFFFFF" points="268.848,34.303 268.848,92.51 288.781,92.51 288.781,69.387 327.055,69.387 327.055,92.51 
		346.988,92.51 346.988,34.303 327.055,34.303 327.055,56.629 288.781,56.629 288.781,34.303 	"/>
	<path fill="#FFFFFF" d="M392.037,46.867l12.605,20.925h-25.221L392.037,46.867z M411.858,79.752l7.689,12.757h23.123
		l-35.084-58.207h-7.974h-15.149L349.38,92.51h15.148l7.69-12.757L411.858,79.752L411.858,79.752z"/>
	<path fill="#FFFFFF" d="M528.782,34.303V92.51h19.136V71.433c6.316,1.285,13.512,1.94,21.131,1.94
		c25.318,0,36.862-9.107,37.075-20.333c0.247-13.466-14.945-21.129-40.266-21.129c-6.574,0-8.878,0.274-17.94,0.797
		C538.857,33.231,528.782,34.303,528.782,34.303z M547.918,43.508c0,0,4.67-0.549,8.879-0.824c4.197-0.266,5.314-0.213,8.36-0.213
		c11.749,0,18.756,3.739,18.642,10.649c-0.098,5.758-5.457,10.436-17.205,10.436c-3.534,0-8.859-0.496-12.448-1
		c-3.588-0.497-6.228-1.639-6.228-1.639V43.508z"/>
	<path fill="#FFFFFF" d="M445.062,34.303V92.51h19.136V43.508c0,0,4.67-0.549,8.878-0.824c4.199-0.266,5.315-0.213,8.362-0.213
		c11.749,0,19.552,3.739,19.438,10.649c-0.099,5.758-6.255,8.841-18.003,8.841c-3.533,0-7.886-0.487-11.473-0.983
		c-0.194-0.027-4.013,6.167-4.013,6.167l28.704,25.364h28.704l-25.349-21.812c15.868-2.658,23.744-9.869,23.753-17.657
		c0.02-15.113-15.017-21.431-41.063-21.129c-6.573,0.08-8.878,0.274-17.94,0.797C455.135,33.231,445.062,34.303,445.062,34.303z"/>
	<path fill="#FFFFFF" d="M256.091,51.845c0,0,6.68-12.262,6.379-12.758c-0.301-0.495-13.484-7.477-39.867-7.176
		c-40.886,0.461-40.664,17.542-40.664,17.542s-4.085,15.875,27.695,19.136c19.499,1.994,33.39,5.253,33.311,9.993
		c-0.08,4.75-8.266,4.465-11.934,4.165c-31.902-2.587-43.304-11.526-43.304-11.526l-6.92,14.334c0,0,15.396,9.639,47.397,9.346
		c32.036-0.292,36.421-7.894,37.005-18.126c0.727-12.74-17.072-17.754-17.072-17.754s-9.763-2.144-19.917-3.596
		c-11.667-1.675-23.822-3.543-22.308-8.151c0-0.159,3.447-6.759,27.907-2.17C245.691,47.327,256.091,51.845,256.091,51.845z"/>
</g>
</svg>
